<svg width="364" height="35" viewBox="0 0 364 35" fill="none" xmlns="http://www.w3.org/2000/svg">
<g clip-path="url(#clip0_908_947)">
<path d="M21.3865 4.21186C21.3865 6.58475 19.535 8.48305 17.2207 8.48305C14.9064 8.48305 13.1128 6.58475 13.1128 4.21186C13.1128 1.83898 14.9642 0 17.2786 0C19.5929 0 21.4443 1.8983 21.4443 4.21186H21.3865Z" fill="black"/>
<path d="M21.3865 17.2033C21.3865 19.5169 19.535 21.4152 17.2207 21.4152C14.9064 21.4152 13.1128 19.5169 13.1128 17.2033C13.1128 14.8898 14.9642 12.9321 17.2207 12.9321C19.4772 12.9321 21.3865 14.8304 21.3865 17.2033Z" fill="black"/>
<path d="M8.77367 17.2033C8.77367 19.5169 6.92222 21.4152 4.60791 21.4152C2.29359 21.4152 0.5 19.5169 0.5 17.2033C0.5 14.8898 2.35145 12.9321 4.60791 12.9321C6.86436 12.9321 8.77367 14.8304 8.77367 17.2033Z" fill="black"/>
<path d="M34.0576 17.2033C34.0576 19.5169 32.2062 21.4152 29.9497 21.4152C27.6932 21.4152 25.8418 19.5169 25.8418 17.2033C25.8418 14.8898 27.6932 12.9321 29.9497 12.9321C32.2062 12.9321 34.0576 14.8304 34.0576 17.2033Z" fill="black"/>
<path d="M21.3865 30.1357C21.3865 32.4492 19.535 34.4069 17.2207 34.4069C14.9064 34.4069 13.1128 32.5086 13.1128 30.1357C13.1128 27.7628 14.9642 25.8645 17.2207 25.8645C19.4772 25.8645 21.3865 27.7628 21.3865 30.1357Z" fill="black"/>
<path d="M50.605 21.4152V16.4915H44.8771V21.4152H42.7363V9.90674H44.8771V14.4745H50.605V9.90674H52.7457V21.4152H50.605Z" fill="black"/>
<path d="M55.812 21.4152V9.90674H62.6392V11.7457H57.9528V14.5932H61.7714V16.4322H57.9528V19.5169H62.8707V21.3559H55.812V21.4152Z" fill="black"/>
<path d="M64.9536 21.4152V9.90674H67.0944V19.5169H71.6651V21.3559H64.9536V21.4152Z" fill="black"/>
<path d="M79.534 12.6949C78.319 12.161 77.3932 11.8644 76.6411 11.8644C75.8889 11.8644 75.0211 12.2796 75.0211 12.9322C75.0211 13.5847 75.3104 13.7033 76.0625 14.1779C77.7982 15.1271 78.8975 15.8389 79.4183 16.3728C79.8811 16.8474 80.1704 17.6186 80.1704 18.4491C80.1704 20.5254 78.724 21.7118 76.2361 21.7118C73.7482 21.7118 75.5418 21.7118 75.2525 21.6525C74.4425 21.5339 74.0953 21.4152 72.9382 20.8813L72.186 20.5254L73.1118 18.5084C73.9218 18.983 74.2689 19.161 74.7318 19.2796C75.3104 19.5169 75.8889 19.6355 76.3518 19.6355C77.3354 19.6355 77.9718 19.161 77.9718 18.5084C77.9718 17.8559 77.7404 17.6779 76.9882 17.2627L75.2525 16.2542C73.2853 15.0678 72.6489 14.2966 72.6489 13.0508C72.6489 11.805 72.8225 11.8644 73.1118 11.4491C73.2853 11.1525 73.5746 10.8559 73.9218 10.6186C74.7318 10.0254 75.4261 9.84741 76.7568 9.84741C78.0875 9.84741 78.1454 9.90673 78.8397 10.144C79.3604 10.322 79.7075 10.4406 80.4597 10.7966L79.5918 12.7542L79.534 12.6949Z" fill="black"/>
<path d="M82.4268 21.4152V9.90674H89.254V11.7457H84.5675V14.5932H88.3861V16.4322H84.5675V19.5169H89.4854V21.3559H82.4268V21.4152Z" fill="black"/>
<path d="M95.6181 11.805V21.4152H93.4773V11.805H90.1216V9.96606H98.9738V11.805H95.6181Z" fill="black"/>
<path d="M101.867 23.9067C101.52 24.5 101.346 24.7966 100.767 25.5084L99.1475 24.4406C99.726 23.4915 99.8418 23.2542 100.073 22.7796C100.478 21.9491 100.594 21.1186 100.594 19.8728V10.0254H102.735V21.8305C102.445 22.839 102.272 23.1949 101.809 23.9661L101.867 23.9067Z" fill="black"/>
<path d="M105.801 21.4152V9.90674H112.628V11.7457H107.942V14.5932H111.761V16.4322H107.942V19.5169H112.86V21.3559H105.801V21.4152Z" fill="black"/>
<path d="M122.407 21.5339L117.604 14.1186L117.257 13.4067C117.199 13.2881 117.141 13.1694 117.084 12.9915V21.4152H115.059V9.90674H117.546L122.059 17.2033C122.407 17.7372 122.522 18.0932 122.638 18.4491V9.90674H124.663V21.4745H122.407V21.5339Z" fill="black"/>
<path d="M127.787 21.4152V9.90674H134.614V11.7457H129.928V14.5932H133.746V16.4322H129.928V19.5169H134.846V21.3559H127.787V21.4152Z" fill="black"/>
<path d="M143.119 12.6949C141.904 12.161 140.979 11.8644 140.227 11.8644C139.474 11.8644 138.607 12.2796 138.607 12.9322C138.607 13.5847 138.896 13.7033 139.648 14.1779C141.384 15.1271 142.483 15.8389 143.004 16.3728C143.467 16.8474 143.756 17.6186 143.756 18.4491C143.756 20.5254 142.309 21.7118 139.822 21.7118C137.334 21.7118 139.127 21.7118 138.838 21.6525C138.028 21.5339 137.681 21.4152 136.524 20.8813L135.771 20.5254L136.697 18.5084C137.507 18.983 137.854 19.161 138.317 19.2796C138.896 19.5169 139.474 19.6355 139.937 19.6355C140.921 19.6355 141.557 19.161 141.557 18.5084C141.557 17.8559 141.326 17.6779 140.574 17.2627L138.838 16.2542C136.871 15.0678 136.234 14.2966 136.234 13.0508C136.234 11.805 136.408 11.8644 136.697 11.4491C136.871 11.1525 137.16 10.8559 137.507 10.6186C138.317 10.0254 139.012 9.84741 140.342 9.84741C141.673 9.84741 141.731 9.90673 142.425 10.144C142.946 10.322 143.293 10.4406 144.045 10.7966L143.177 12.7542L143.119 12.6949Z" fill="black"/>
<path d="M150.121 11.805V21.4152H147.98V11.805H144.624V9.96606H153.476V11.805H150.121Z" fill="black"/>
<path d="M155.154 21.4152V9.90674H161.981V11.7457H157.295V14.5932H161.113V16.4322H157.295V19.5169H162.212V21.3559H155.154V21.4152Z" fill="black"/>
<path d="M171.759 21.5339L166.957 14.1186L166.61 13.4067C166.552 13.2881 166.494 13.1694 166.436 12.9915V21.4152H164.411V9.90674H166.899L171.412 17.2033C171.759 17.7372 171.875 18.0932 171.991 18.4491V9.90674H174.016V21.4745H171.759V21.5339Z" fill="black"/>
<path d="M183.388 12.6949C182.173 12.161 181.248 11.8644 180.496 11.8644C179.743 11.8644 178.876 12.2796 178.876 12.9322C178.876 13.5847 179.165 13.7033 179.917 14.1779C181.653 15.1271 182.752 15.8389 183.273 16.3728C183.736 16.8474 184.025 17.6186 184.025 18.4491C184.025 20.5254 182.578 21.7118 180.091 21.7118C177.603 21.7118 179.396 21.7118 179.107 21.6525C178.297 21.5339 177.95 21.4152 176.793 20.8813L176.041 20.5254L176.966 18.5084C177.776 18.983 178.123 19.161 178.586 19.2796C179.165 19.5169 179.743 19.6355 180.206 19.6355C181.19 19.6355 181.826 19.161 181.826 18.5084C181.826 17.8559 181.595 17.6779 180.843 17.2627L179.107 16.2542C177.14 15.0678 176.503 14.2966 176.503 13.0508C176.503 11.805 176.677 11.8644 176.966 11.4491C177.14 11.1525 177.429 10.8559 177.776 10.6186C178.586 10.0254 179.281 9.84741 180.611 9.84741C181.942 9.84741 182 9.90673 182.694 10.144C183.215 10.322 183.562 10.4406 184.314 10.7966L183.446 12.7542L183.388 12.6949Z" fill="black"/>
<path d="M196.985 12.5762C196.406 12.1017 195.538 11.9237 194.323 11.9237H192.646V19.5169H194.323C196.869 19.5169 198.316 18.1525 198.316 15.661C198.316 13.1694 197.853 13.1695 197.043 12.5762H196.985ZM199.068 19.7542C198.026 20.8813 196.58 21.4152 194.555 21.4152H190.389V9.90674H194.555C196.696 9.90674 198.026 10.3813 199.126 11.5678C200.109 12.6356 200.63 14.1186 200.63 15.6017C200.63 17.0847 200.051 18.6271 199.068 19.6949V19.7542Z" fill="black"/>
<path d="M206.069 11.805H204.68V14.9491H206.069C207.399 14.9491 208.036 14.4745 208.036 13.2881C208.036 12.1017 207.457 11.7457 206.069 11.7457V11.805ZM208.325 21.4152L205.779 16.8474H204.738V21.4152H202.597V9.90674H206.358C207.978 9.90674 208.73 10.144 209.367 10.7372C210.003 11.3305 210.292 12.161 210.292 13.2288C210.292 14.2966 210.061 14.8305 209.656 15.3644C209.251 15.8983 208.846 16.1356 207.92 16.4322L210.697 21.3559H208.383L208.325 21.4152Z" fill="black"/>
<path d="M212.375 9.96606H214.516V21.4745H212.375V9.96606Z" fill="black"/>
<path d="M219.666 11.805V14.7711H223.6V16.6101H219.666V21.4152H217.525V9.90674H224.468V11.7457H219.666V11.805Z" fill="black"/>
<path d="M230.485 11.805V21.4152H228.344V11.805H224.988V9.96606H233.841V11.805H230.485Z" fill="black"/>
<path d="M241.709 12.6949C240.494 12.161 239.569 11.8644 238.816 11.8644C238.064 11.8644 237.196 12.2796 237.196 12.9322C237.196 13.5847 237.486 13.7033 238.238 14.1779C239.974 15.1271 241.073 15.8389 241.594 16.3728C242.056 16.8474 242.346 17.6186 242.346 18.4491C242.346 20.5254 240.899 21.7118 238.411 21.7118C235.923 21.7118 237.717 21.7118 237.428 21.6525C236.618 21.5339 236.271 21.4152 235.113 20.8813L234.361 20.5254L235.287 18.5084C236.097 18.983 236.444 19.161 236.907 19.2796C237.486 19.5169 238.064 19.6355 238.527 19.6355C239.511 19.6355 240.147 19.161 240.147 18.5084C240.147 17.8559 239.916 17.6779 239.164 17.2627L237.428 16.2542C235.461 15.0678 234.824 14.2966 234.824 13.0508C234.824 11.805 234.998 11.8644 235.287 11.4491C235.461 11.1525 235.75 10.8559 236.097 10.6186C236.907 10.0254 237.601 9.84741 238.932 9.84741C240.263 9.84741 240.321 9.90673 241.015 10.144C241.536 10.322 241.883 10.4406 242.635 10.7966L241.767 12.7542L241.709 12.6949Z" fill="black"/>
<path d="M249.578 11.6271C247.437 11.6271 245.875 13.3474 245.875 15.661C245.875 17.9745 247.437 19.6949 249.578 19.6949C251.719 19.6949 253.223 17.9745 253.223 15.661C253.223 13.3474 251.661 11.6271 249.578 11.6271ZM249.578 21.6525C246.107 21.6525 243.619 19.161 243.619 15.661C243.619 12.161 246.049 9.72876 249.578 9.72876C253.107 9.72876 255.537 12.1016 255.537 15.661C255.537 19.2203 253.049 21.6525 249.578 21.6525Z" fill="black"/>
<path d="M261.092 11.805H259.703V14.9491H261.092C262.423 14.9491 263.059 14.4745 263.059 13.2881C263.059 12.1017 262.48 11.7457 261.092 11.7457V11.805ZM263.29 21.4152L260.745 16.8474H259.703V21.4152H257.562V9.90674H261.323C262.943 9.90674 263.695 10.144 264.332 10.7372C264.968 11.3305 265.258 12.161 265.258 13.2288C265.258 14.2966 265.026 14.8305 264.621 15.3644C264.216 15.8983 263.811 16.1356 262.885 16.4322L265.663 21.3559H263.348L263.29 21.4152Z" fill="black"/>
<path d="M275.556 21.2372C274.341 21.5338 273.647 21.5932 272.721 21.5932C269.018 21.5932 266.415 19.161 266.415 15.6016C266.415 12.0423 267.051 12.3389 268.266 11.2118C269.423 10.144 270.696 9.66943 272.663 9.66943C274.63 9.66943 274.283 9.72876 274.978 9.90672C275.498 10.0254 275.845 10.144 276.655 10.4999L276.135 12.3389C275.73 12.161 275.44 12.1016 275.209 11.983C274.399 11.6864 273.589 11.5677 272.895 11.5677C270.407 11.5677 268.613 13.1694 268.613 15.4237C268.613 17.6779 270.522 19.5762 273.01 19.5762C275.498 19.5762 273.82 19.5762 274.457 19.3389V16.1949H276.598V20.8813L275.44 21.1779L275.556 21.2372Z" fill="black"/>
<path d="M283.02 12.5762L281.747 16.7288H284.35L283.02 12.5762ZM285.739 21.4152L284.871 18.5678H281.11L280.185 21.4152H277.928L281.978 9.90674H283.888L287.938 21.4152H285.681H285.739Z" fill="black"/>
<path d="M297.021 21.5339L292.219 14.1186L291.872 13.4067C291.814 13.2881 291.756 13.1694 291.698 12.9915V21.4152H289.673V9.90674H292.161L296.674 17.2033C297.021 17.7372 297.137 18.0932 297.253 18.4491V9.90674H299.278V21.4745H297.021V21.5339Z" fill="black"/>
<path d="M302.402 9.96606H304.543V21.4745H302.402V9.96606Z" fill="black"/>
<path d="M313.742 12.6949C312.527 12.161 311.602 11.8644 310.85 11.8644C310.097 11.8644 309.23 12.2796 309.23 12.9322C309.23 13.5847 309.519 13.7033 310.271 14.1779C312.007 15.1271 313.106 15.8389 313.627 16.3728C314.09 16.8474 314.379 17.6186 314.379 18.4491C314.379 20.5254 312.932 21.7118 310.445 21.7118C307.957 21.7118 309.75 21.7118 309.461 21.6525C308.651 21.5339 308.304 21.4152 307.147 20.8813L306.395 20.5254L307.32 18.5084C308.13 18.983 308.477 19.161 308.94 19.2796C309.519 19.5169 310.097 19.6355 310.56 19.6355C311.544 19.6355 312.18 19.161 312.18 18.5084C312.18 17.8559 311.949 17.6779 311.197 17.2627L309.461 16.2542C307.494 15.0678 306.857 14.2966 306.857 13.0508C306.857 11.805 307.031 11.8644 307.32 11.4491C307.494 11.1525 307.783 10.8559 308.13 10.6186C308.94 10.0254 309.635 9.84741 310.965 9.84741C312.296 9.84741 312.354 9.90673 313.048 10.144C313.569 10.322 313.916 10.4406 314.668 10.7966L313.8 12.7542L313.742 12.6949Z" fill="black"/>
<path d="M320.107 12.5762L318.834 16.7288H321.438L320.107 12.5762ZM322.884 21.4152L322.016 18.5678H318.255L317.33 21.4152H315.073L319.123 9.90674H321.033L325.083 21.4152H322.826H322.884Z" fill="black"/>
<path d="M332.893 12.6949C331.678 12.161 330.753 11.8644 330 11.8644C329.248 11.8644 328.38 12.2796 328.38 12.9322C328.38 13.5847 328.67 13.7033 329.422 14.1779C331.158 15.1271 332.257 15.8389 332.778 16.3728C333.241 16.8474 333.53 17.6186 333.53 18.4491C333.53 20.5254 332.083 21.7118 329.595 21.7118C327.108 21.7118 328.901 21.7118 328.612 21.6525C327.802 21.5339 327.455 21.4152 326.298 20.8813L325.545 20.5254L326.471 18.5084C327.281 18.983 327.628 19.161 328.091 19.2796C328.67 19.5169 329.248 19.6355 329.711 19.6355C330.695 19.6355 331.331 19.161 331.331 18.5084C331.331 17.8559 331.1 17.6779 330.348 17.2627L328.612 16.2542C326.645 15.0678 326.008 14.2966 326.008 13.0508C326.008 11.805 326.182 11.8644 326.471 11.4491C326.645 11.1525 326.934 10.8559 327.281 10.6186C328.091 10.0254 328.785 9.84741 330.116 9.84741C331.447 9.84741 331.505 9.90673 332.199 10.144C332.72 10.322 333.067 10.4406 333.819 10.7966L332.951 12.7542L332.893 12.6949Z" fill="black"/>
<path d="M336.885 23.9067C336.538 24.5 336.365 24.7966 335.786 25.5084L334.166 24.4406C334.745 23.4915 334.86 23.2542 335.092 22.7796C335.497 21.9491 335.612 21.1186 335.612 19.8728V10.0254H337.753V21.8305C337.464 22.839 337.29 23.1949 336.827 23.9661L336.885 23.9067Z" fill="black"/>
<path d="M345.795 11.6271C343.655 11.6271 342.092 13.3474 342.092 15.661C342.092 17.9745 343.655 19.6949 345.795 19.6949C347.936 19.6949 349.44 17.9745 349.44 15.661C349.44 13.3474 347.878 11.6271 345.795 11.6271ZM345.795 21.6525C342.324 21.6525 339.836 19.161 339.836 15.661C339.836 12.161 342.266 9.72876 345.795 9.72876C349.325 9.72876 351.755 12.1016 351.755 15.661C351.755 19.2203 349.267 21.6525 345.795 21.6525Z" fill="black"/>
<path d="M361.243 21.5339L356.441 14.1186L356.094 13.4067C356.036 13.2881 355.978 13.1694 355.921 12.9915V21.4152H353.896V9.90674H356.383L360.896 17.2033C361.243 17.7372 361.359 18.0932 361.475 18.4491V9.90674H363.5V21.4745H361.243V21.5339Z" fill="black"/>
<path d="M47.5382 34.4662L43.4882 28.0594C43.4882 28.0001 43.3725 27.8815 43.3146 27.7628C43.1989 27.5849 43.141 27.4662 43.0832 27.2882V34.4069H42.0996V26.1611H43.3725L47.3647 32.4493C47.3647 32.4493 47.4225 32.5679 47.4804 32.6272L47.654 33.1018V26.1018H48.6375V34.4069H47.4804L47.5382 34.4662Z" fill="black"/>
<path d="M54.7129 30.3729L52.2828 33.339C52.6879 33.6356 52.9193 33.7543 53.2664 33.7543C54.1922 33.7543 55.0022 32.7458 55.0022 31.5C55.0022 30.2543 54.9443 30.8475 54.7129 30.3729ZM53.2664 29.4238C52.2828 29.4238 51.5307 30.3729 51.5307 31.5593C51.5307 32.7458 51.6464 32.4492 51.9357 32.9238L54.4236 29.9577C54.1343 29.6017 53.7293 29.4238 53.2664 29.4238ZM55.3493 29.661C55.7543 30.1949 55.9858 30.9068 55.9858 31.6187C55.9858 33.2797 54.7707 34.5848 53.3243 34.5848C51.8778 34.5848 52.3407 34.5254 51.7043 34.0509L50.8364 35.0593L50.4893 34.7627L51.3571 33.7543C50.8364 33.2204 50.5471 32.4492 50.5471 31.678C50.5471 30.0763 51.82 28.7119 53.2664 28.7119C54.7129 28.7119 54.5393 28.9492 54.9443 29.3644L55.8122 28.356L56.1593 28.6526L55.2915 29.7204L55.3493 29.661Z" fill="black"/>
<path d="M61.135 30.7289C61.135 30.3136 61.135 30.195 61.0193 29.9577C60.8457 29.6611 60.4986 29.4831 59.92 29.4831C58.7628 29.4831 58.0107 30.3729 58.0107 31.678C58.0107 32.9831 58.6471 33.6357 59.4571 33.6357C60.2671 33.6357 60.2093 33.517 60.5564 33.2204C60.7879 33.0424 60.9036 32.9238 61.135 32.6272V30.6695V30.7289ZM61.135 34.4068V33.695C60.6721 34.2289 59.9778 34.5848 59.2836 34.5848C57.9528 34.5848 56.9692 33.3984 56.9692 31.7373C56.9692 30.0763 58.1264 28.5933 59.8043 28.5933C61.4821 28.5933 60.7879 28.7119 61.135 29.0085V25.3306H62.0607V34.4068H61.135Z" fill="black"/>
<path d="M67.7888 34.4068V30.3729C67.7888 30.017 67.7888 29.8983 67.731 29.7204C67.6731 29.5424 67.4417 29.4238 67.1524 29.4238C66.5738 29.4238 65.9952 29.839 65.0117 30.9068V34.3475H64.0859V28.7119H65.0117V29.8983C65.4167 29.4831 65.4745 29.3644 65.7638 29.1272C66.1688 28.7712 66.7474 28.5933 67.2103 28.5933C68.1938 28.5933 68.6567 29.1272 68.6567 30.195V34.4068H67.731H67.7888Z" fill="black"/>
<path d="M72.7643 29.4238C72.0121 29.4238 71.4335 29.8984 71.26 30.7882H73.9793C73.9793 29.8984 73.5164 29.4238 72.7643 29.4238ZM71.2021 31.5C71.2021 32.8645 71.8964 33.695 72.9957 33.695C74.095 33.695 73.8636 33.5763 74.4421 33.1611L74.7893 33.8729C73.9793 34.4068 73.5164 34.5848 72.8221 34.5848C71.3178 34.5848 70.2764 33.3984 70.2764 31.6187C70.2764 29.839 71.3178 28.6526 72.88 28.6526C74.4421 28.6526 75.0207 29.6017 75.0207 31.0255V31.5594H71.26L71.2021 31.5Z" fill="black"/>
<path d="M77.5668 34.5254C76.9303 34.5254 76.5253 33.9915 76.5253 33.2796V29.483H75.5996V28.9491L76.5253 28.7118V27.0508H77.4511V28.7118H78.8975V29.483H77.4511V32.6864C77.4511 32.6864 77.4511 33.2203 77.4511 33.3389C77.4511 33.5169 77.5668 33.5762 77.7403 33.5762C77.9139 33.5762 78.1453 33.4576 78.5504 33.161L78.9554 33.8135C78.3189 34.3474 78.0296 34.5254 77.5668 34.5254Z" fill="black"/>
<path d="M81.3275 34.5254C80.6911 34.5254 80.2861 33.9915 80.2861 33.2796V29.483H79.3604V28.9491L80.2861 28.7118V27.0508H81.2118V28.7118H82.6582V29.483H81.2118V32.6864C81.2118 32.6864 81.2118 33.2203 81.2118 33.3389C81.2118 33.5169 81.3275 33.5762 81.5011 33.5762C81.6747 33.5762 81.9061 33.4576 82.3111 33.161L82.7161 33.8135C82.0797 34.3474 81.7904 34.5254 81.3275 34.5254Z" fill="black"/>
</g>
<defs>
<clipPath id="clip0_908_947">
<rect width="363" height="35" fill="white" transform="translate(0.5)"/>
</clipPath>
</defs>
</svg>
