<svg width="143" height="71" viewBox="0 0 143 71" fill="none" xmlns="http://www.w3.org/2000/svg">
<path d="M71.5006 0.000732422H0.5V71.0002H71.5006V0.000732422Z" fill="black"/>
<path d="M142.5 0H71.5005V71H142.5V0Z" fill="#003976"/>
<path d="M142.106 0.394531H71.8945V70.6053H142.106V0.394531Z" fill="white" stroke="black"/>
<path d="M52.8793 17.4326C46.8991 17.4326 40.3418 20.6286 39.8564 25.7549C39.4952 29.7936 42.1196 31.8135 44.0777 33.7711C47.2103 36.9036 50.2299 39.14 50.2299 41.4883C50.2299 45.104 46.7394 49.0409 42.2092 49.0409C37.1775 49.0409 34.4835 45.9573 33.2885 44.5602L24.3093 34.0716C23.9609 33.6648 23.972 33.4761 24.3093 33.1672L42.8142 17.9196H38.707L20.0229 33.0241L24.9717 17.9191H20.9847L10.2617 50.6511H14.2481L19.5704 34.4056L29.0071 45.4664C31.9632 48.5371 35.5171 51.4916 41.3047 51.4916C47.2069 51.4916 50.7286 49.3526 53.437 45.945C56.1171 42.572 55.5382 38.2217 53.1465 35.9424C51.1382 34.0288 49.3243 32.3523 47.9149 30.9185C46.657 29.6439 44.3215 27.5444 44.3215 24.9345C44.3215 21.0561 49.2424 19.5416 53.0608 19.5416C55.0768 19.5416 58.5172 20.2718 60.8054 21.8242L61.6447 19.6351C58.9391 18.4234 55.5933 17.4326 52.8793 17.4326Z" fill="white"/>
<path d="M103.761 17.144L94.3795 21.6608C93.9593 21.8623 93.7834 22.366 93.986 22.7862C94.1869 23.2053 94.6906 23.3823 95.1109 23.1803L104.492 18.6646C104.912 18.4614 105.087 17.9577 104.885 17.5386C104.684 17.1184 104.181 16.9419 103.761 17.144Z" fill="black"/>
<path d="M91.1419 25.9114L88.8247 36.0599C88.7206 36.5129 89.0045 36.9671 89.4593 37.0695C89.9129 37.1736 90.3654 36.8886 90.4689 36.4356L92.7866 26.286C92.8907 25.8318 92.6063 25.3798 92.1527 25.2763C91.6979 25.1733 91.2454 25.4561 91.1419 25.9114Z" fill="black"/>
<path d="M90.4392 40.432C90.0746 40.722 90.0145 41.2525 90.3051 41.6176L96.794 49.7562C97.0845 50.1202 97.6155 50.1803 97.9801 49.8898C98.3441 49.5998 98.4037 49.0688 98.1137 48.7048L91.6237 40.5651C91.3331 40.201 90.8038 40.1409 90.4392 40.432Z" fill="black"/>
<path d="M100.95 51.0838C100.95 51.5502 101.328 51.9276 101.793 51.9276L112.203 51.9287C112.668 51.9287 113.046 51.5508 113.046 51.0844C113.046 50.6196 112.668 50.2411 112.203 50.2411L101.793 50.24C101.328 50.2405 100.95 50.6185 100.95 51.0838Z" fill="black"/>
<path d="M121.888 40.3959L115.396 48.535C115.106 48.899 115.165 49.4289 115.528 49.72C115.892 50.01 116.423 49.9505 116.715 49.5864L123.206 41.4484C123.496 41.0844 123.436 40.5539 123.072 40.2634C122.709 39.9728 122.178 40.0324 121.888 40.3959Z" fill="black"/>
<path d="M121.272 25.3164C120.818 25.4205 120.534 25.8725 120.637 26.3256L122.953 36.4752C123.056 36.9288 123.508 37.2127 123.963 37.1097C124.416 37.0067 124.701 36.5548 124.597 36.1L122.283 25.9515C122.178 25.4973 121.725 25.2129 121.272 25.3164Z" fill="black"/>
<path d="M103.192 21.8171C103.281 21.8304 104.922 22.0687 106.855 22.0687C108.788 22.0687 110.427 21.8304 110.498 21.8204C110.86 21.7692 111.395 21.6523 111.816 21.2326C111.954 21.0946 112.061 20.9354 112.154 20.7695L110.628 20.0348C110.627 20.0365 110.625 20.0393 110.623 20.0404C110.598 20.0654 110.515 20.115 110.257 20.1512C110.237 20.1539 108.66 20.3827 106.856 20.3827C105.052 20.3827 103.474 20.1539 103.458 20.1517C103.145 20.0977 103.116 20.0699 103.085 20.0393C103.062 20.0159 103.029 19.9708 103.006 19.9102L101.487 20.641C101.588 20.858 101.719 21.0584 101.893 21.2321C102.298 21.6367 102.739 21.7403 103.192 21.8171Z" fill="black"/>
<path d="M102.983 16.2373C102.983 16.1098 103.047 16.0274 103.086 15.989C103.112 15.9634 103.194 15.9144 103.453 15.8777C103.473 15.8755 105.051 15.6473 106.855 15.6473C108.658 15.6473 110.236 15.8755 110.252 15.8771C110.565 15.9317 110.594 15.959 110.624 15.9901C110.662 16.0274 110.726 16.1104 110.726 16.2373V17.1484L112.413 17.9611V16.2373C112.413 15.694 112.201 15.1819 111.817 14.7962C111.411 14.3927 110.971 14.2886 110.518 14.2112C110.428 14.1979 108.788 13.9602 106.855 13.9602C104.921 13.9602 103.281 14.1984 103.212 14.2079C102.851 14.2591 102.314 14.376 101.895 14.7962C101.509 15.1814 101.297 15.694 101.297 16.2373V17.8002L102.983 16.9887L102.983 16.2373Z" fill="black"/>
<path d="M89.8496 26.4418C89.7494 26.3622 89.7238 26.2598 89.7182 26.2047C89.7143 26.1702 89.7277 26.075 89.8607 25.849C89.8713 25.8318 90.6767 24.4564 91.8005 23.046C92.9254 21.6356 94.0876 20.5446 94.0993 20.5329C94.3375 20.322 94.377 20.317 94.4199 20.312C94.4727 20.3064 94.5768 20.3081 94.677 20.3877C94.677 20.3877 94.8668 20.5385 95.1451 20.7611L96.8311 19.9485C96.2455 19.481 95.7279 19.0685 95.7279 19.0685C95.3032 18.7296 94.7716 18.5765 94.2295 18.6377C93.6623 18.7023 93.3067 18.9817 92.9632 19.2884C92.8975 19.3491 91.688 20.4834 90.4824 21.9946C89.2779 23.5057 88.4403 24.9368 88.4057 24.9974C88.2193 25.3125 87.9772 25.8056 88.0434 26.3945C88.1046 26.9377 88.3735 27.422 88.7987 27.7615L90.0099 28.7267L90.4268 26.9016L89.8496 26.4418Z" fill="black"/>
<path d="M93.0746 30.4083C93.6429 30.3443 93.9985 30.0632 94.3414 29.7576C94.4071 29.6969 95.6166 28.562 96.8216 27.0509C98.0273 25.5391 98.8649 24.1081 98.8989 24.0474C99.0642 23.768 99.2729 23.3495 99.2729 22.8485C99.2729 22.7845 99.2696 22.7188 99.2618 22.6515C99.2284 22.3598 99.1327 22.0882 98.988 21.845L97.4389 22.5914C97.4445 22.5958 97.4551 22.6042 97.4551 22.6042C97.5547 22.6821 97.5803 22.7851 97.5864 22.8396C97.5892 22.8741 97.5758 22.9693 97.4434 23.1958C97.4322 23.2131 96.6279 24.5896 95.5042 25.9989C94.3793 27.4088 93.2165 28.5008 93.2048 28.5119C92.9672 28.7234 92.9276 28.7285 92.8859 28.7329C92.8486 28.7368 92.7885 28.7346 92.7234 28.7106L92.3477 30.3554C92.5825 30.4138 92.828 30.4361 93.0746 30.4083Z" fill="black"/>
<path d="M89.7748 42.9273C89.6513 42.9562 89.555 42.9106 89.5082 42.8816C89.4787 42.8638 89.4114 42.7937 89.319 42.5499C89.3101 42.5304 88.7373 41.0426 88.3371 39.2843C87.9347 37.5244 87.8067 35.9353 87.8044 35.9197C87.8 35.8395 87.7983 35.7778 87.7983 35.7288C87.7983 35.5852 87.8145 35.5579 87.8317 35.5317C87.8601 35.4861 87.9269 35.4048 88.0505 35.377C88.0505 35.377 88.2353 35.3353 88.5136 35.2724L88.9299 33.4473L87.6759 33.7328C87.1465 33.8536 86.6935 34.1736 86.404 34.6356C86.1001 35.1187 86.0968 35.5724 86.1218 36.0316C86.1296 36.1223 86.2621 37.7754 86.6912 39.66C87.1215 41.5441 87.7193 43.092 87.7443 43.1566C87.874 43.4978 88.1083 43.9949 88.611 44.3104C89.0735 44.601 89.6206 44.6934 90.1511 44.5726L91.7574 44.2058L90.5902 42.7414L89.7748 42.9273Z" fill="black"/>
<path d="M94.8861 42.8782C95.1895 42.3957 95.1934 41.942 95.1683 41.4812C95.1605 41.3921 95.0281 39.739 94.5984 37.8533C94.1681 35.9692 93.5703 34.4229 93.5458 34.3572C93.415 34.0166 93.1812 33.519 92.6792 33.204C92.3981 33.027 92.0858 32.9335 91.7647 32.9067L91.3745 34.6177C91.4636 34.5982 91.5159 34.5854 91.5159 34.5854C91.64 34.5576 91.7352 34.601 91.7819 34.6311C91.8109 34.65 91.8777 34.7196 91.9706 34.9645C91.9795 34.9834 92.5523 36.4712 92.9536 38.229C93.3549 39.9884 93.4835 41.578 93.4846 41.5936C93.5013 41.9114 93.4796 41.9465 93.459 41.981C93.449 41.9955 93.4273 42.0172 93.4089 42.0372C93.7301 42.4408 94.0874 42.8871 94.4592 43.3541C94.6223 43.2178 94.7704 43.0641 94.8861 42.8782Z" fill="black"/>
<path d="M105.49 48.9442C105.3 48.406 104.948 48.121 104.573 47.8539C104.498 47.8032 103.123 46.877 101.382 46.0382C99.6408 45.1994 98.0601 44.7024 97.9927 44.6812C97.6437 44.5699 97.1088 44.4436 96.5505 44.6389C96.2784 44.733 96.0362 44.8844 95.8325 45.0753C96.2066 45.5462 96.5695 46.0009 96.9018 46.4178C96.9018 46.4167 96.9045 46.4095 96.9045 46.4095C96.9613 46.2948 97.0548 46.2486 97.1055 46.2314C97.14 46.2191 97.2357 46.2102 97.4868 46.2898C97.5046 46.2948 99.0252 46.7741 100.651 47.5566C102.276 48.3392 103.598 49.2298 103.612 49.2381C103.87 49.4224 103.884 49.4619 103.897 49.5008C103.915 49.5515 103.936 49.65 103.884 49.7619H105.597C105.617 49.4892 105.583 49.2109 105.49 48.9442Z" fill="black"/>
<path d="M102.34 52.9712C102.287 53.0803 102.202 53.1298 102.139 53.151C102.105 53.1627 102.01 53.1716 101.76 53.092C101.741 53.0859 100.22 52.6066 98.5955 51.8246C96.9708 51.0415 95.6477 50.152 95.6344 50.1431C95.3756 49.9572 95.3622 49.9199 95.3483 49.8799C95.331 49.8286 95.3088 49.7262 95.3627 49.6121C95.3627 49.6121 95.4713 49.3873 95.6294 49.0617L94.4616 47.5967L93.8443 48.8808C93.6072 49.37 93.576 49.9227 93.7564 50.4381C93.9451 50.9752 94.2968 51.2602 94.672 51.5285C94.7477 51.5797 96.1225 52.5065 97.8636 53.3447C99.6052 54.1829 101.187 54.68 101.254 54.7011C101.602 54.8125 102.136 54.9399 102.695 54.7451C103.212 54.5642 103.625 54.1941 103.862 53.7031L104.486 52.4074H102.613L102.34 52.9712Z" fill="black"/>
<path d="M118.33 49.5079C118.382 49.6164 118.367 49.715 118.345 49.7778C118.335 49.8046 118.288 49.8858 118.063 50.0361C118.046 50.0484 116.723 50.9384 115.098 51.7209C113.472 52.503 111.952 52.9833 111.937 52.9878C111.629 53.074 111.592 53.0612 111.553 53.0479C111.503 53.0306 111.407 52.9833 111.353 52.8692C111.353 52.8692 111.264 52.6827 111.131 52.4061H109.258L109.833 53.5995C110.069 54.0893 110.482 54.4589 110.997 54.6398C111.534 54.8279 111.976 54.7299 112.42 54.6047C112.508 54.5769 114.089 54.0793 115.831 53.241C117.572 52.4022 118.948 51.4766 119.005 51.4371C119.308 51.2356 119.74 50.8966 119.938 50.3367C120.118 49.8213 120.087 49.2674 119.85 48.7771L119.143 47.3093L117.975 48.7726L118.33 49.5079Z" fill="black"/>
<path d="M115.721 44.5725C115.635 44.5992 114.054 45.0963 112.312 45.9351C110.571 46.7739 109.196 47.7 109.139 47.7379C108.833 47.9422 108.402 48.2806 108.206 48.8388C108.1 49.1411 108.075 49.4556 108.114 49.7622L109.859 49.7634C109.83 49.7055 109.812 49.666 109.812 49.666C109.756 49.5524 109.779 49.4494 109.797 49.3982C109.808 49.3643 109.861 49.2847 110.08 49.1383C110.097 49.1266 111.419 48.2372 113.044 47.4546C114.669 46.672 116.19 46.1928 116.205 46.1889C116.512 46.1015 116.549 46.1148 116.589 46.1288C116.61 46.136 116.64 46.1505 116.67 46.1705L117.718 44.8575C117.545 44.7228 117.357 44.6104 117.145 44.5363C116.607 44.3482 116.165 44.4462 115.721 44.5725Z" fill="black"/>
<path d="M127.026 34.4168C126.736 33.9549 126.283 33.6348 125.753 33.5129L124.429 33.2107C124.59 33.9198 124.735 34.5532 124.844 35.0358L125.378 35.1582C125.494 35.1844 125.562 35.2573 125.596 35.313C125.612 35.3386 125.646 35.4254 125.623 35.6942C125.621 35.7171 125.493 37.3062 125.092 39.0639C124.69 40.8239 124.117 42.3111 124.111 42.3261C123.988 42.6211 123.954 42.6412 123.919 42.664C123.874 42.6924 123.777 42.7369 123.654 42.708C123.654 42.708 123.356 42.6406 122.94 42.5454L121.773 44.0099L123.277 44.3522C123.807 44.4741 124.354 44.3817 124.815 44.0922C125.3 43.7878 125.498 43.3803 125.676 42.9557C125.709 42.8705 126.306 41.3243 126.735 39.4396C127.165 37.5544 127.299 35.9024 127.303 35.8317C127.336 35.4699 127.342 34.92 127.026 34.4168Z" fill="black"/>
<path d="M119.971 41.7628C119.952 41.7316 119.923 41.6398 119.944 41.3782C119.945 41.3593 120.075 39.7702 120.476 38.0091C120.877 36.2508 121.451 34.7647 121.456 34.7502C121.58 34.4558 121.614 34.4341 121.651 34.4112C121.695 34.3828 121.791 34.3394 121.915 34.3673L121.985 34.3834C121.869 33.8663 121.737 33.2925 121.6 32.6919C121.302 32.7264 121.013 32.8194 120.752 32.9836C120.269 33.2886 120.07 33.6954 119.892 34.1212C119.859 34.2042 119.262 35.751 118.832 37.6351C118.403 39.5208 118.269 41.1723 118.264 41.2418C118.233 41.607 118.229 42.1547 118.541 42.6567C118.675 42.8705 118.848 43.0502 119.042 43.1972L120.1 41.873C120.037 41.8368 119.991 41.794 119.971 41.7628Z" fill="black"/>
<path d="M118.766 20.4568C118.861 20.3805 118.961 20.3738 119.027 20.3816C119.056 20.385 119.145 20.4134 119.34 20.5987C119.356 20.6126 120.519 21.7047 121.644 23.1151C122.768 24.5255 123.574 25.9009 123.581 25.9148C123.708 26.1463 123.727 26.2126 123.727 26.2532C123.727 26.261 123.727 26.2682 123.726 26.2749C123.719 26.3278 123.694 26.4313 123.595 26.5104C123.595 26.5104 123.349 26.7068 123.007 26.9796C123.121 27.4783 123.264 28.1084 123.424 28.8047L124.646 27.8295C125.071 27.4905 125.34 27.0057 125.401 26.4647C125.464 25.897 125.27 25.4879 125.049 25.0838C125.003 25.0053 124.166 23.5743 122.961 22.0631C121.757 20.5519 120.547 19.4176 120.496 19.3703C120.231 19.1198 119.806 18.7736 119.215 18.7063C118.673 18.645 118.139 18.7992 117.715 19.1382L116.638 19.9965L118.324 20.808L118.766 20.4568Z" fill="black"/>
<path d="M114.535 24.0991C114.581 24.1771 115.417 25.6086 116.622 27.1187C117.828 28.6288 119.036 29.7642 119.087 29.8121C119.353 30.0637 119.78 30.4093 120.367 30.4761C120.611 30.5045 120.851 30.4817 121.082 30.426C120.95 29.8477 120.823 29.2889 120.708 28.7829C120.647 28.8024 120.592 28.8046 120.557 28.8002C120.522 28.7957 120.432 28.7623 120.241 28.5814C120.227 28.5692 119.066 27.4771 117.94 26.0667C116.816 24.6574 116.01 23.2815 116.004 23.2681C115.85 22.9882 115.853 22.9481 115.859 22.9063C115.865 22.8524 115.89 22.7505 115.989 22.6709L116.031 22.6375L114.473 21.8872C114.32 22.1371 114.215 22.4171 114.183 22.7171C114.119 23.2865 114.313 23.6956 114.535 24.0991Z" fill="black"/>
<path d="M108.401 17.4961C108.2 17.9152 108.376 18.419 108.795 18.6204L118.173 23.1378C118.594 23.3399 119.097 23.164 119.3 22.7443C119.502 22.3241 119.327 21.8209 118.907 21.6189L109.527 17.1015C109.107 16.8994 108.603 17.0759 108.401 17.4961Z" fill="black"/>
</svg>
