<svg width="307" height="51" viewBox="0 0 307 51" fill="none" xmlns="http://www.w3.org/2000/svg">
<path d="M19.1205 35.6143V32.3017C19.1205 31.6663 18.5991 31.1495 17.9581 31.1495H9.02605C8.385 31.1495 7.87215 30.6327 7.87215 30.0057V26.1932C7.87215 25.5663 7.35931 25.0579 6.7268 25.0579H2.52148C1.86333 25.0579 1.33339 24.5072 1.36758 23.8549C1.88043 13.7475 8.81237 5.04654 18.6504 2.25071C19.0009 2.14904 19.206 1.79321 19.1205 1.44585C19.0265 1.09001 18.6504 0.869735 18.2914 0.971401C15.8469 1.66612 13.522 2.72515 11.3851 4.1146C9.09443 5.60571 7.07725 7.45266 5.38486 9.58766C3.67538 11.7481 2.34199 14.1457 1.42742 16.7297C0.478654 19.3985 0 22.1943 0 25.0495C0 28.4299 0.666697 31.7086 1.983 34.801C3.25656 37.7832 5.07715 40.4604 7.40205 42.7649C9.72694 45.0693 12.4279 46.8739 15.4366 48.1363C18.1803 49.2885 21.0779 49.9409 24.0524 50.0764C24.7105 50.1103 25.2661 49.585 25.2661 48.9242V48.7802V43.4427C25.2661 42.8073 24.7533 42.2989 24.1122 42.2989H20.2573C19.6248 42.2989 19.112 41.7906 19.112 41.1636V35.6143H19.1205Z" fill="#436884"/>
<path d="M31.4188 25.0578H26.4442C25.7946 25.0578 25.2646 25.5831 25.2646 26.227V41.1381C25.2646 41.782 25.7946 42.3073 26.4442 42.3073H30.2392C30.8888 42.3073 31.4188 41.782 31.4188 41.1381V32.327C31.4188 31.6831 31.9487 31.1578 32.5983 31.1578H41.4876C42.1372 31.1578 42.6671 30.6325 42.6671 29.9886V26.227C42.6671 25.5831 42.1372 25.0578 41.4876 25.0578H31.4188Z" fill="#BB7D69"/>
<path d="M19.1214 25.0577H24.1216C24.7542 25.0577 25.2755 24.5494 25.2755 23.9139V8.96046C25.2755 8.33352 24.7627 7.81671 24.1216 7.81671H20.2753C19.6428 7.81671 19.1214 8.32504 19.1214 8.96046V17.8224C19.1214 18.4494 18.6086 18.9662 17.9675 18.9662H9.02695C8.39444 18.9662 7.87305 19.4745 7.87305 20.1099V23.9224C7.87305 24.5494 8.38589 25.0662 9.02695 25.0662H19.1214V25.0577Z" fill="#BB7D69"/>
<path d="M48.549 15.3062C47.2754 12.3239 45.4548 9.64672 43.1299 7.34227C40.805 5.03783 38.1041 3.23324 35.0954 1.97088C32.3602 0.827129 29.4626 0.174767 26.4796 0.0392116C25.8214 0.00532267 25.2744 0.530601 25.2744 1.17449V6.66449C25.2744 7.29991 25.7958 7.81672 26.4369 7.81672H30.2746C30.9071 7.81672 31.4285 8.32505 31.4285 8.96047V17.8139C31.4285 18.4494 31.9499 18.9662 32.591 18.9662H41.5658C42.1812 18.9662 42.6769 19.4576 42.6769 20.0676V23.9309C42.6769 24.5578 43.1898 25.0662 43.8223 25.0662H48.0361C48.6943 25.0662 49.2157 25.6084 49.19 26.2608C48.6772 36.3681 41.7452 45.0776 31.8986 47.8649C31.5482 47.9666 31.3431 48.3224 31.4285 48.6698C31.5226 49.0256 31.8986 49.2459 32.2576 49.1442C34.7022 48.4495 37.0271 47.3905 39.1639 46.001C41.4546 44.5099 43.4718 42.663 45.1642 40.528C46.8737 38.3676 48.2071 35.9699 49.1216 33.3859C50.0704 30.7171 50.5491 27.9213 50.5491 25.0662C50.5491 21.6858 49.8824 18.407 48.5661 15.3146L48.549 15.3062Z" fill="#436884"/>
<path d="M68.8076 26.2017H65.1151V11.9768H60.3799V8.92682H73.5429V11.9768H68.8076V26.2017Z" fill="#1D3749"/>
<path d="M81.9698 26.4387C79.8244 26.4387 78.1491 25.8542 76.9439 24.6765C75.7387 23.4989 75.1318 21.8383 75.1318 19.6948C75.1318 17.5514 75.6874 15.7722 76.8071 14.5607C77.9268 13.3491 79.4654 12.7476 81.4398 12.7476C83.4143 12.7476 84.7904 13.2814 85.8417 14.3404C86.8931 15.4079 87.4144 16.8736 87.4144 18.746V20.4912H78.8243C78.867 21.5164 79.1662 22.3128 79.7389 22.8889C80.3116 23.465 81.115 23.753 82.1492 23.753C82.9527 23.753 83.7134 23.6683 84.4229 23.5074C85.1408 23.3379 85.8845 23.0753 86.6623 22.7194V25.5068C86.0298 25.8203 85.346 26.0575 84.628 26.21C83.9015 26.3625 83.0211 26.4387 81.9783 26.4387H81.9698ZM81.4569 15.3062C80.6876 15.3062 80.0808 15.5519 79.6449 16.0348C79.2089 16.5178 78.9611 17.204 78.8927 18.0936H83.9955C83.9784 17.204 83.7476 16.5178 83.2946 16.0348C82.8416 15.5519 82.2262 15.3062 81.4569 15.3062Z" fill="#1D3749"/>
<path d="M99.655 22.2789C99.655 23.6344 99.1764 24.668 98.2276 25.3712C97.2789 26.0829 95.86 26.4387 93.9625 26.4387C92.9966 26.4387 92.1675 26.371 91.4837 26.2439C90.7999 26.1168 90.1589 25.9219 89.5606 25.6678V22.694C90.2358 23.0075 90.9965 23.2701 91.8427 23.4819C92.6889 23.6937 93.4325 23.8039 94.0736 23.8039C95.3899 23.8039 96.048 23.4226 96.048 22.6686C96.048 22.389 95.9626 22.1518 95.7831 21.9739C95.6121 21.796 95.3044 21.5926 94.877 21.3723C94.4497 21.1521 93.877 20.8894 93.159 20.5844C92.1333 20.1608 91.3812 19.7626 90.9025 19.4068C90.4238 19.0425 90.0734 18.6273 89.8512 18.1614C89.6289 17.6954 89.5264 17.1193 89.5264 16.433C89.5264 15.2554 89.9879 14.3489 90.9025 13.7135C91.8171 13.0696 93.1248 12.7476 94.8087 12.7476C96.4925 12.7476 97.9712 13.095 99.4926 13.7897L98.3986 16.3907C97.7319 16.1111 97.1079 15.8739 96.5267 15.696C95.9455 15.518 95.3557 15.4248 94.7488 15.4248C93.6719 15.4248 93.1419 15.7129 93.1419 16.289C93.1419 16.611 93.3129 16.8905 93.6633 17.1278C94.0138 17.365 94.7659 17.7123 95.9369 18.1783C96.9797 18.5935 97.7404 18.9832 98.2276 19.3475C98.7148 19.7118 99.0738 20.1269 99.3046 20.6014C99.5354 21.0758 99.6465 21.635 99.6465 22.2873L99.655 22.2789Z" fill="#1D3749"/>
<path d="M108.106 23.5668C108.739 23.5668 109.508 23.4312 110.397 23.1516V25.8373C109.491 26.2355 108.38 26.4389 107.063 26.4389C105.61 26.4389 104.55 26.0746 103.884 25.346C103.217 24.6173 102.892 23.5244 102.892 22.0672V15.6961H101.148V14.1711L103.149 12.968L104.2 10.1807H106.525V12.9934H110.251V15.6961H106.525V22.0672C106.525 22.5755 106.67 22.9568 106.961 23.2025C107.251 23.4482 107.636 23.5668 108.115 23.5668H108.106Z" fill="#1D3749"/>
<path d="M121.552 26.2014L120.851 24.4053H120.757C120.142 25.1678 119.518 25.7015 118.868 25.9981C118.219 26.2946 117.373 26.4386 116.338 26.4386C115.056 26.4386 114.048 26.0743 113.313 25.3542C112.578 24.6255 112.21 23.6004 112.21 22.2618C112.21 20.9232 112.706 19.8303 113.697 19.161C114.689 18.4917 116.176 18.1274 118.176 18.0596L120.492 17.9918V17.4157C120.492 16.0771 119.8 15.4078 118.415 15.4078C117.347 15.4078 116.099 15.7297 114.663 16.3651L113.458 13.9336C114.988 13.1372 116.689 12.739 118.561 12.739C120.433 12.739 121.723 13.1287 122.672 13.8997C123.629 14.6707 124.099 15.8483 124.099 17.4242V26.2268H121.561L121.552 26.2014ZM120.475 20.0844L119.065 20.1353C118.005 20.1692 117.219 20.3555 116.706 20.7029C116.193 21.0503 115.928 21.5755 115.928 22.2872C115.928 23.3039 116.518 23.8122 117.689 23.8122C118.535 23.8122 119.202 23.575 119.706 23.0921C120.21 22.6092 120.467 21.9737 120.467 21.1774V20.0929L120.475 20.0844Z" fill="#1D3749"/>
<path d="M135.269 12.739C135.765 12.739 136.175 12.7729 136.5 12.8492L136.227 16.2296C135.936 16.1533 135.577 16.111 135.15 16.111C133.987 16.111 133.09 16.4075 132.44 17.0005C131.79 17.5936 131.466 18.4154 131.466 19.4829V26.2014H127.833V12.9932H130.585L131.124 15.2129H131.303C131.714 14.4758 132.278 13.8743 132.979 13.4253C133.679 12.9762 134.449 12.7475 135.269 12.7475V12.739Z" fill="#1D3749"/>
<path d="M144.946 26.4387C142.801 26.4387 141.126 25.8542 139.92 24.6765C138.715 23.4989 138.108 21.8383 138.108 19.6948C138.108 17.5514 138.664 15.7722 139.784 14.5607C140.903 13.3491 142.442 12.7476 144.416 12.7476C146.391 12.7476 147.767 13.2814 148.818 14.3404C149.87 15.4079 150.391 16.8736 150.391 18.746V20.4912H141.801C141.844 21.5164 142.143 22.3128 142.715 22.8889C143.288 23.465 144.092 23.753 145.126 23.753C145.929 23.753 146.69 23.6683 147.399 23.5074C148.117 23.3379 148.861 23.0753 149.639 22.7194V25.5068C149.006 25.8203 148.323 26.0575 147.605 26.21C146.878 26.3625 145.998 26.4387 144.955 26.4387H144.946ZM144.433 15.3062C143.664 15.3062 143.057 15.5519 142.621 16.0348C142.186 16.5178 141.938 17.204 141.869 18.0936H146.972C146.955 17.204 146.724 16.5178 146.271 16.0348C145.818 15.5519 145.203 15.3062 144.433 15.3062Z" fill="#1D3749"/>
<path d="M165.642 26.2014H162.009V18.4832C162.009 17.5343 161.838 16.8142 161.496 16.3397C161.154 15.8653 160.607 15.628 159.864 15.628C158.847 15.628 158.111 15.9669 157.658 16.6362C157.205 17.3055 156.983 18.4239 156.983 19.9828V26.2014H153.351V12.9932H156.128L156.616 14.6792H156.821C157.223 14.0437 157.787 13.5608 158.496 13.2304C159.206 12.9 160.018 12.739 160.924 12.739C162.471 12.739 163.65 13.1542 164.454 13.9844C165.257 14.8147 165.659 16.0178 165.659 17.5851V26.2014H165.642Z" fill="#1D3749"/>
<path d="M177.845 26.2014L177.144 24.4053H177.05C176.435 25.1678 175.811 25.7015 175.161 25.9981C174.512 26.2946 173.666 26.4386 172.631 26.4386C171.349 26.4386 170.341 26.0743 169.606 25.3542C168.87 24.6255 168.503 23.6004 168.503 22.2618C168.503 20.9232 168.999 19.8303 169.99 19.161C170.982 18.4917 172.469 18.1274 174.469 18.0596L176.785 17.9918V17.4157C176.785 16.0771 176.093 15.4078 174.708 15.4078C173.64 15.4078 172.392 15.7297 170.956 16.3651L169.751 13.9336C171.281 13.1372 172.982 12.739 174.854 12.739C176.726 12.739 178.016 13.1287 178.965 13.8997C179.922 14.6707 180.392 15.8483 180.392 17.4242V26.2268H177.854L177.845 26.2014ZM176.768 20.0844L175.358 20.1353C174.298 20.1692 173.512 20.3555 172.999 20.7029C172.486 21.0503 172.221 21.5755 172.221 22.2872C172.221 23.3039 172.811 23.8122 173.982 23.8122C174.828 23.8122 175.495 23.575 175.999 23.0921C176.503 22.6092 176.76 21.9737 176.76 21.1774V20.0929L176.768 20.0844Z" fill="#1D3749"/>
<path d="M190.752 26.2017V8.92682H194.444V26.2017H190.752Z" fill="#1D3749"/>
<path d="M210.848 26.2014H207.215V18.4832C207.215 17.5343 207.044 16.8142 206.702 16.3397C206.36 15.8653 205.813 15.628 205.07 15.628C204.053 15.628 203.318 15.9669 202.865 16.6362C202.412 17.3055 202.189 18.4239 202.189 19.9828V26.2014H198.557V12.9932H201.335L201.822 14.6792H202.027C202.429 14.0437 202.993 13.5608 203.702 13.2304C204.412 12.9 205.224 12.739 206.13 12.739C207.677 12.739 208.856 13.1542 209.66 13.9844C210.463 14.8147 210.865 16.0178 210.865 17.5851V26.2014H210.848Z" fill="#1D3749"/>
<path d="M226.89 26.2014H223.257V18.4832C223.257 17.5343 223.086 16.8142 222.744 16.3397C222.402 15.8653 221.855 15.628 221.112 15.628C220.095 15.628 219.36 15.9669 218.907 16.6362C218.453 17.3055 218.231 18.4239 218.231 19.9828V26.2014H214.599V12.9932H217.377L217.864 14.6792H218.069C218.471 14.0437 219.035 13.5608 219.744 13.2304C220.454 12.9 221.266 12.739 222.172 12.739C223.719 12.739 224.898 13.1542 225.702 13.9844C226.505 14.8147 226.907 16.0178 226.907 17.5851V26.2014H226.89Z" fill="#1D3749"/>
<path d="M234.276 26.2014H230.644V7.81671H234.276V26.2014Z" fill="#1D3749"/>
<path d="M246.55 26.2014L245.849 24.4053H245.755C245.14 25.1678 244.516 25.7015 243.866 25.9981C243.217 26.2946 242.371 26.4386 241.336 26.4386C240.054 26.4386 239.046 26.0743 238.311 25.3542C237.576 24.6255 237.208 23.6004 237.208 22.2618C237.208 20.9232 237.704 19.8303 238.695 19.161C239.687 18.4917 241.174 18.1274 243.174 18.0596L245.49 17.9918V17.4157C245.49 16.0771 244.798 15.4078 243.413 15.4078C242.345 15.4078 241.097 15.7297 239.661 16.3651L238.456 13.9336C239.986 13.1372 241.687 12.739 243.559 12.739C245.431 12.739 246.721 13.1287 247.67 13.8997C248.627 14.6707 249.097 15.8483 249.097 17.4242V26.2268H246.559L246.55 26.2014ZM245.473 20.0844L244.063 20.1353C243.003 20.1692 242.217 20.3555 241.704 20.7029C241.191 21.0503 240.926 21.5755 240.926 22.2872C240.926 23.3039 241.516 23.8122 242.687 23.8122C243.533 23.8122 244.2 23.575 244.704 23.0921C245.208 22.6092 245.465 21.9737 245.465 21.1774V20.0929L245.473 20.0844Z" fill="#1D3749"/>
<path d="M265.131 26.2014H261.498V18.4832C261.498 17.5343 261.327 16.8142 260.986 16.3397C260.644 15.8653 260.097 15.628 259.353 15.628C258.336 15.628 257.601 15.9669 257.148 16.6362C256.695 17.3055 256.472 18.4239 256.472 19.9828V26.2014H252.84V12.9932H255.618L256.105 14.6792H256.31C256.712 14.0437 257.276 13.5608 257.985 13.2304C258.695 12.9 259.507 12.739 260.413 12.739C261.96 12.739 263.139 13.1542 263.943 13.9844C264.746 14.8147 265.148 16.0178 265.148 17.5851V26.2014H265.131Z" fill="#1D3749"/>
<path d="M273.089 26.4388C271.525 26.4388 270.294 25.8373 269.397 24.6342C268.499 23.4312 268.055 21.7621 268.055 19.6271C268.055 17.4921 268.508 15.7723 269.422 14.5607C270.328 13.3492 271.585 12.7477 273.183 12.7477C274.858 12.7477 276.141 13.3916 277.021 14.6878H277.141C276.961 13.705 276.867 12.8239 276.867 12.053V7.82532H280.517V26.2101H277.73L277.029 24.4987H276.876C276.047 25.7949 274.79 26.4473 273.098 26.4473L273.089 26.4388ZM274.363 23.5667C275.294 23.5667 275.97 23.2956 276.406 22.7619C276.841 22.2281 277.072 21.3131 277.115 20.0338V19.6441C277.115 18.2292 276.893 17.2125 276.457 16.5941C276.012 15.9756 275.294 15.6706 274.303 15.6706C273.491 15.6706 272.858 16.0095 272.414 16.6957C271.961 17.3735 271.739 18.3648 271.739 19.6695C271.739 20.9742 271.961 21.9401 272.414 22.5924C272.867 23.2448 273.516 23.5667 274.354 23.5667H274.363Z" fill="#1D3749"/>
<path d="M290.354 26.4387C288.208 26.4387 286.533 25.8542 285.328 24.6765C284.122 23.4989 283.516 21.8383 283.516 19.6948C283.516 17.5514 284.071 15.7722 285.191 14.5607C286.311 13.3491 287.849 12.7476 289.824 12.7476C291.798 12.7476 293.174 13.2814 294.226 14.3404C295.277 15.4079 295.798 16.8736 295.798 18.746V20.4912H287.208C287.251 21.5164 287.55 22.3128 288.123 22.8889C288.695 23.465 289.499 23.753 290.533 23.753C291.336 23.753 292.097 23.6683 292.807 23.5074C293.525 23.3379 294.268 23.0753 295.046 22.7194V25.5068C294.414 25.8203 293.73 26.0575 293.012 26.21C292.285 26.3625 291.405 26.4387 290.362 26.4387H290.354ZM289.841 15.3062C289.071 15.3062 288.465 15.5519 288.029 16.0348C287.593 16.5178 287.345 17.204 287.276 18.0936H292.379C292.362 17.204 292.131 16.5178 291.678 16.0348C291.225 15.5519 290.61 15.3062 289.841 15.3062Z" fill="#1D3749"/>
<path d="M304.356 23.5668C304.989 23.5668 305.758 23.4312 306.647 23.1516V25.8373C305.741 26.2355 304.63 26.4389 303.313 26.4389C301.86 26.4389 300.8 26.0746 300.134 25.346C299.467 24.6173 299.142 23.5244 299.142 22.0672V15.6961H297.398V14.1711L299.399 12.968L300.45 10.1807H302.775V12.9934H306.501V15.6961H302.775V22.0672C302.775 22.5755 302.92 22.9568 303.211 23.2025C303.501 23.4482 303.886 23.5668 304.365 23.5668H304.356Z" fill="#1D3749"/>
<path d="M66.6519 37.4357C66.6519 38.1558 66.3869 38.7319 65.8656 39.1471C65.3442 39.5622 64.6091 39.774 63.6774 39.774C62.8141 39.774 62.0534 39.613 61.3867 39.2911V37.7153C61.9338 37.9525 62.3953 38.1219 62.7714 38.2236C63.1475 38.3253 63.4979 38.3676 63.8056 38.3676C64.1817 38.3676 64.4723 38.2999 64.6689 38.1558C64.8655 38.0118 64.9681 37.8 64.9681 37.5204C64.9681 37.3594 64.9253 37.2239 64.8313 37.1053C64.7458 36.9867 64.6091 36.868 64.4381 36.7494C64.2672 36.6308 63.9167 36.4529 63.3954 36.2072C62.8996 35.9785 62.5321 35.7582 62.2842 35.5464C62.0363 35.3346 61.8397 35.0889 61.6944 34.8093C61.5491 34.5297 61.4722 34.1993 61.4722 33.8265C61.4722 33.1148 61.7115 32.5642 62.1987 32.1575C62.6859 31.7508 63.3526 31.5475 64.2074 31.5475C64.6262 31.5475 65.0279 31.5983 65.4125 31.6915C65.7972 31.7932 66.1904 31.9287 66.6092 32.1067L66.0536 33.4283C65.6262 33.2504 65.2672 33.1318 64.9852 33.064C64.7031 32.9962 64.4296 32.9623 64.1561 32.9623C63.8313 32.9623 63.5834 33.0386 63.4125 33.1911C63.2415 33.3436 63.156 33.5385 63.156 33.7757C63.156 33.9282 63.1902 34.0553 63.2586 34.1654C63.327 34.2755 63.4381 34.3857 63.5919 34.4873C63.7458 34.589 64.1048 34.7754 64.6775 35.0465C65.4296 35.4023 65.951 35.7667 66.2331 36.1225C66.5152 36.4783 66.6519 36.9189 66.6519 37.4442V37.4357Z" fill="#1D3749"/>
<path d="M71.9099 39.6552L71.5851 38.8249H71.5424C71.2603 39.1808 70.9697 39.4265 70.6706 39.562C70.3714 39.6976 69.9782 39.7654 69.4996 39.7654C68.9098 39.7654 68.4397 39.5959 68.0978 39.2655C67.7559 38.9266 67.585 38.4522 67.585 37.8337C67.585 37.2152 67.8157 36.7069 68.2688 36.3934C68.7303 36.0884 69.4227 35.9105 70.3458 35.8851L71.4142 35.8512V35.5801C71.4142 34.9616 71.0979 34.6481 70.4569 34.6481C69.9611 34.6481 69.3799 34.7922 68.7132 35.0887L68.1576 33.9619C68.8671 33.5891 69.6534 33.4112 70.5253 33.4112C71.3971 33.4112 71.9869 33.5891 72.4313 33.9449C72.8758 34.3008 73.098 34.843 73.098 35.5801V39.6637H71.9185L71.9099 39.6552ZM71.4142 36.817L70.7646 36.8424C70.2774 36.8594 69.9099 36.9441 69.6705 37.1051C69.4312 37.2661 69.3115 37.5118 69.3115 37.8422C69.3115 38.3166 69.5851 38.5454 70.1321 38.5454C70.5253 38.5454 70.833 38.4352 71.0723 38.2149C71.3031 37.9947 71.4227 37.6981 71.4227 37.3254V36.8255L71.4142 36.817Z" fill="#1D3749"/>
<path d="M80.3439 39.6554H78.66V36.0801C78.66 35.6395 78.5831 35.3091 78.4378 35.0888C78.2925 34.8685 78.0532 34.7584 77.7369 34.7584C77.3096 34.7584 76.9933 34.9194 76.7967 35.2329C76.6001 35.5463 76.5061 36.0631 76.5061 36.7833V39.6638H74.8223V33.5384H76.1129L76.3352 34.3179H76.4292C76.5916 34.0383 76.8309 33.818 77.1472 33.657C77.4634 33.496 77.8224 33.4198 78.2241 33.4198C79.1472 33.4198 79.7712 33.7163 80.1046 34.3179H80.2499C80.4123 34.0298 80.6601 33.8095 80.9849 33.657C81.3097 33.496 81.6687 33.4198 82.079 33.4198C82.7799 33.4198 83.3098 33.5977 83.6688 33.9535C84.0278 34.3094 84.2073 34.877 84.2073 35.6649V39.6554H82.5149V36.0801C82.5149 35.6395 82.438 35.3091 82.2927 35.0888C82.1474 34.8685 81.9081 34.7584 81.5918 34.7584C81.1815 34.7584 80.8738 34.9024 80.6687 35.199C80.4635 35.4955 80.361 35.953 80.361 36.5884V39.6638L80.3439 39.6554Z" fill="#1D3749"/>
<path d="M90.234 37.8424C90.234 38.4693 90.0118 38.9523 89.5759 39.2742C89.14 39.6046 88.4733 39.7656 87.6014 39.7656C87.1484 39.7656 86.7723 39.7317 86.4561 39.6724C86.1398 39.6131 85.8407 39.5199 85.5671 39.4098V38.0288C85.8834 38.1728 86.2338 38.2999 86.627 38.3931C87.0202 38.4948 87.3621 38.5371 87.6613 38.5371C88.2767 38.5371 88.5758 38.3592 88.5758 38.0118C88.5758 37.8763 88.5331 37.7746 88.4562 37.6899C88.3792 37.6052 88.2339 37.512 88.0373 37.4103C87.8408 37.3087 87.5758 37.1816 87.2424 37.046C86.7638 36.8512 86.4219 36.6648 86.1996 36.4953C85.9774 36.3259 85.815 36.131 85.7124 35.9192C85.6099 35.6989 85.5586 35.4363 85.5586 35.1143C85.5586 34.5721 85.7723 34.1485 86.1996 33.852C86.627 33.5555 87.2253 33.403 88.0117 33.403C88.7981 33.403 89.4819 33.5639 90.1827 33.8859L89.6784 35.0889C89.3707 34.9534 89.0801 34.8517 88.8152 34.767C88.5502 34.6823 88.2681 34.6399 87.9946 34.6399C87.4989 34.6399 87.251 34.7755 87.251 35.0381C87.251 35.1906 87.3279 35.3177 87.4903 35.4278C87.6527 35.538 88.0031 35.6989 88.5416 35.9192C89.0203 36.1141 89.3793 36.292 89.6015 36.4614C89.8237 36.6309 89.9947 36.8257 90.0973 37.046C90.1998 37.2663 90.2597 37.5289 90.2597 37.8255L90.234 37.8424Z" fill="#1D3749"/>
<path d="M93.1745 36.3257L93.9096 35.3938L95.6362 33.5299H97.5337L95.0806 36.1902L97.679 39.6553H95.7302L93.9524 37.173L93.2258 37.7491V39.6553H91.542V31.1323H93.2258V34.9363L93.1404 36.3257H93.166H93.1745Z" fill="#1D3749"/>
<path d="M102.491 39.6552L102.166 38.8249H102.123C101.841 39.1808 101.551 39.4265 101.252 39.562C100.952 39.6976 100.559 39.7654 100.081 39.7654C99.4909 39.7654 99.0208 39.5959 98.6789 39.2655C98.337 38.9266 98.166 38.4522 98.166 37.8337C98.166 37.2152 98.3968 36.7069 98.8498 36.3934C99.3114 36.0884 100.004 35.9105 100.927 35.8851L101.995 35.8512V35.5801C101.995 34.9616 101.679 34.6481 101.038 34.6481C100.542 34.6481 99.961 34.7922 99.2943 35.0887L98.7387 33.9619C99.4481 33.5891 100.234 33.4112 101.106 33.4112C101.978 33.4112 102.568 33.5891 103.012 33.9449C103.457 34.3008 103.679 34.843 103.679 35.5801V39.6637H102.5L102.491 39.6552ZM101.995 36.817L101.346 36.8424C100.858 36.8594 100.491 36.9441 100.252 37.1051C100.012 37.2661 99.8926 37.5118 99.8926 37.8422C99.8926 38.3166 100.166 38.5454 100.713 38.5454C101.106 38.5454 101.414 38.4352 101.653 38.2149C101.884 37.9947 102.004 37.6981 102.004 37.3254V36.8255L101.995 36.817Z" fill="#1D3749"/>
<path d="M108.8 39.7656C108.073 39.7656 107.509 39.503 107.09 38.9862H107.005C107.064 39.4945 107.09 39.791 107.09 39.8758V42.3581H105.406V33.5385H106.774L107.013 34.3349H107.09C107.483 33.7249 108.064 33.4284 108.842 33.4284C109.569 33.4284 110.142 33.708 110.552 34.2672C110.962 34.8263 111.167 35.6058 111.167 36.597C111.167 37.2494 111.073 37.817 110.877 38.2999C110.68 38.7829 110.406 39.1472 110.047 39.4013C109.688 39.6555 109.27 39.7826 108.791 39.7826L108.8 39.7656ZM108.304 34.7585C107.885 34.7585 107.586 34.8856 107.389 35.1398C107.201 35.394 107.099 35.8091 107.09 36.3937V36.5716C107.09 37.2324 107.193 37.6984 107.389 37.9865C107.586 38.2745 107.902 38.4101 108.329 38.4101C109.082 38.4101 109.466 37.7916 109.466 36.5631C109.466 35.9616 109.372 35.5126 109.184 35.2076C108.996 34.9026 108.706 34.7585 108.312 34.7585H108.304Z" fill="#1D3749"/>
<path d="M112.492 31.9543C112.492 31.412 112.8 31.1409 113.407 31.1409C114.014 31.1409 114.321 31.412 114.321 31.9543C114.321 32.2169 114.244 32.4118 114.091 32.5558C113.937 32.6998 113.706 32.7761 113.407 32.7761C112.791 32.7761 112.492 32.505 112.492 31.9543ZM114.253 39.6555H112.569V33.5301H114.253V39.6555Z" fill="#1D3749"/>
<path d="M121.715 39.6552H120.031V36.0799C120.031 35.6394 119.954 35.309 119.791 35.0887C119.629 34.8684 119.381 34.7583 119.031 34.7583C118.561 34.7583 118.219 34.9108 118.005 35.2243C117.791 35.5377 117.689 36.0545 117.689 36.7747V39.6552H116.005V33.5298H117.296L117.526 34.3093H117.62C117.808 34.0127 118.065 33.7924 118.398 33.6399C118.732 33.4874 119.099 33.4112 119.526 33.4112C120.244 33.4112 120.791 33.6061 121.159 33.9873C121.535 34.3686 121.715 34.9277 121.715 35.6563V39.6468V39.6552Z" fill="#1D3749"/>
<path d="M128.827 33.5385V34.3858L127.861 34.6315C128.041 34.9026 128.126 35.216 128.126 35.5549C128.126 36.2158 127.895 36.7241 127.434 37.0884C126.972 37.4527 126.331 37.6391 125.511 37.6391L125.203 37.6222L124.955 37.5967C124.784 37.7323 124.699 37.8763 124.699 38.0373C124.699 38.2745 125.006 38.4016 125.63 38.4016H126.682C127.357 38.4016 127.878 38.5456 128.229 38.8337C128.588 39.1217 128.759 39.5454 128.759 40.1045C128.759 40.8162 128.459 41.3754 127.853 41.7735C127.254 42.1717 126.382 42.3666 125.263 42.3666C124.399 42.3666 123.741 42.2141 123.288 41.9176C122.835 41.621 122.604 41.2059 122.604 40.6637C122.604 40.2909 122.724 39.9859 122.955 39.7402C123.186 39.4945 123.528 39.3166 123.981 39.2065C123.81 39.1302 123.656 39.0116 123.528 38.8506C123.399 38.6812 123.331 38.5117 123.331 38.3254C123.331 38.0881 123.399 37.8933 123.536 37.7408C123.673 37.5883 123.87 37.4358 124.126 37.2833C123.801 37.1477 123.545 36.919 123.357 36.614C123.169 36.309 123.075 35.9447 123.075 35.5295C123.075 34.8602 123.297 34.3434 123.733 33.9791C124.169 33.6148 124.801 33.4284 125.613 33.4284C125.784 33.4284 125.989 33.4453 126.229 33.4708C126.468 33.5047 126.622 33.5216 126.682 33.5385H128.836H128.827ZM124.058 40.5281C124.058 40.7569 124.169 40.9348 124.391 41.0704C124.613 41.2059 124.929 41.2652 125.331 41.2652C125.938 41.2652 126.408 41.1805 126.75 41.0195C127.092 40.8585 127.263 40.6298 127.263 40.3417C127.263 40.113 127.16 39.952 126.955 39.8673C126.75 39.7826 126.442 39.7317 126.015 39.7317H125.143C124.835 39.7317 124.579 39.808 124.365 39.952C124.16 40.096 124.049 40.2909 124.049 40.5281H124.058ZM124.673 35.5465C124.673 35.8769 124.75 36.1395 124.904 36.3344C125.058 36.5292 125.288 36.6224 125.605 36.6224C125.921 36.6224 126.152 36.5292 126.297 36.3344C126.442 36.1395 126.519 35.8769 126.519 35.5465C126.519 34.8094 126.211 34.4366 125.605 34.4366C124.998 34.4366 124.673 34.8094 124.673 35.5465Z" fill="#1D3749"/>
<path d="M136.707 39.6552L136.382 38.8249H136.339C136.057 39.1808 135.767 39.4265 135.467 39.562C135.168 39.6976 134.775 39.7654 134.296 39.7654C133.707 39.7654 133.237 39.5959 132.895 39.2655C132.553 38.9266 132.382 38.4522 132.382 37.8337C132.382 37.2152 132.613 36.7069 133.066 36.3934C133.527 36.0884 134.22 35.9105 135.143 35.8851L136.211 35.8512V35.5801C136.211 34.9616 135.895 34.6481 135.254 34.6481C134.758 34.6481 134.177 34.7922 133.51 35.0887L132.955 33.9619C133.664 33.5891 134.45 33.4112 135.322 33.4112C136.194 33.4112 136.784 33.5891 137.228 33.9449C137.673 34.3008 137.895 34.843 137.895 35.5801V39.6637H136.715L136.707 39.6552ZM136.211 36.817L135.561 36.8424C135.074 36.8594 134.707 36.9441 134.467 37.1051C134.228 37.2661 134.108 37.5118 134.108 37.8422C134.108 38.3166 134.382 38.5454 134.929 38.5454C135.322 38.5454 135.63 38.4352 135.869 38.2149C136.1 37.9947 136.22 37.6981 136.22 37.3254V36.8255L136.211 36.817Z" fill="#1D3749"/>
<path d="M141.094 39.6553L138.743 33.5299H140.504L141.701 37.0205C141.837 37.461 141.914 37.8762 141.948 38.2744H141.983C142 37.927 142.085 37.5034 142.23 37.0205L143.419 33.5299H145.179L142.829 39.6553H141.102H141.094Z" fill="#1D3749"/>
<path d="M154.7 39.6553H153.016V36.08C153.016 35.1989 152.683 34.7584 152.025 34.7584C151.555 34.7584 151.213 34.9193 150.999 35.2328C150.785 35.5463 150.683 36.0631 150.683 36.7748V39.6553H148.999V31.1323H150.683V32.8691C150.683 33.0046 150.666 33.3181 150.64 33.818L150.597 34.3093H150.683C151.059 33.7078 151.657 33.4113 152.469 33.4113C153.196 33.4113 153.743 33.6062 154.119 33.9959C154.495 34.3856 154.683 34.9363 154.683 35.6649V39.6553H154.7Z" fill="#1D3749"/>
<path d="M159.229 39.7655C158.237 39.7655 157.459 39.4944 156.895 38.9522C156.331 38.4099 156.058 37.639 156.058 36.6392C156.058 35.6395 156.314 34.8177 156.835 34.2585C157.357 33.6994 158.066 33.4198 158.981 33.4198C159.895 33.4198 160.536 33.6655 161.024 34.1569C161.511 34.6483 161.75 35.3345 161.75 36.1987V37.012H157.767C157.784 37.4865 157.929 37.8592 158.194 38.1219C158.459 38.3845 158.836 38.5201 159.314 38.5201C159.69 38.5201 160.041 38.4777 160.365 38.4015C160.699 38.3252 161.041 38.2066 161.408 38.0372V39.3334C161.118 39.4774 160.801 39.5876 160.46 39.6554C160.126 39.7231 159.716 39.7655 159.237 39.7655H159.229ZM158.989 34.6059C158.63 34.6059 158.348 34.7161 158.152 34.9448C157.947 35.1651 157.835 35.487 157.801 35.9022H160.169C160.169 35.487 160.049 35.1736 159.844 34.9448C159.63 34.7161 159.348 34.6059 158.989 34.6059Z" fill="#1D3749"/>
<path d="M164.802 39.6553H163.118V31.1323H164.802V39.6553Z" fill="#1D3749"/>
<path d="M170.879 37.8424C170.879 38.4693 170.656 38.9523 170.22 39.2742C169.784 39.6046 169.118 39.7656 168.246 39.7656C167.793 39.7656 167.417 39.7317 167.101 39.6724C166.784 39.6131 166.485 39.5199 166.212 39.4098V38.0288C166.528 38.1728 166.878 38.2999 167.272 38.3931C167.665 38.4948 168.007 38.5371 168.306 38.5371C168.921 38.5371 169.22 38.3592 169.22 38.0118C169.22 37.8763 169.178 37.7746 169.101 37.6899C169.024 37.6052 168.878 37.512 168.682 37.4103C168.485 37.3087 168.22 37.1816 167.887 37.046C167.408 36.8512 167.066 36.6648 166.844 36.4953C166.622 36.3259 166.46 36.131 166.357 35.9192C166.254 35.6989 166.203 35.4363 166.203 35.1143C166.203 34.5721 166.417 34.1485 166.844 33.852C167.272 33.5555 167.87 33.403 168.656 33.403C169.443 33.403 170.126 33.5639 170.827 33.8859L170.323 35.0889C170.015 34.9534 169.725 34.8517 169.46 34.767C169.195 34.6823 168.913 34.6399 168.639 34.6399C168.143 34.6399 167.896 34.7755 167.896 35.0381C167.896 35.1906 167.972 35.3177 168.135 35.4278C168.297 35.538 168.648 35.6989 169.186 35.9192C169.665 36.1141 170.024 36.292 170.246 36.4614C170.468 36.6309 170.639 36.8257 170.742 37.046C170.844 37.2663 170.904 37.5289 170.904 37.8255L170.879 37.8424Z" fill="#1D3749"/>
<path d="M174.992 39.7655C174.001 39.7655 173.223 39.4944 172.659 38.9522C172.095 38.4099 171.821 37.639 171.821 36.6392C171.821 35.6395 172.078 34.8177 172.599 34.2585C173.12 33.6994 173.83 33.4198 174.744 33.4198C175.659 33.4198 176.3 33.6655 176.787 34.1569C177.275 34.6483 177.514 35.3345 177.514 36.1987V37.012H173.531C173.548 37.4865 173.693 37.8592 173.958 38.1219C174.223 38.3845 174.599 38.5201 175.078 38.5201C175.454 38.5201 175.804 38.4777 176.129 38.4015C176.454 38.3252 176.804 38.2066 177.172 38.0372V39.3334C176.881 39.4774 176.565 39.5876 176.223 39.6554C175.89 39.7231 175.48 39.7655 175.001 39.7655H174.992ZM174.753 34.6059C174.394 34.6059 174.112 34.7161 173.915 34.9448C173.71 35.1651 173.599 35.487 173.565 35.9022H175.933C175.933 35.487 175.813 35.1736 175.608 34.9448C175.394 34.7161 175.112 34.6059 174.753 34.6059Z" fill="#1D3749"/>
<path d="M181.488 38.4354C181.779 38.4354 182.138 38.3677 182.548 38.2406V39.486C182.129 39.6724 181.616 39.7656 181.001 39.7656C180.326 39.7656 179.838 39.5961 179.531 39.2572C179.223 38.9184 179.069 38.41 179.069 37.7407V34.7924H178.266V34.0892L179.197 33.53L179.684 32.2338H180.761V33.5385H182.488V34.7924H180.761V37.7407C180.761 37.9779 180.83 38.1559 180.967 38.266C181.103 38.3761 181.283 38.4354 181.497 38.4354H181.488Z" fill="#1D3749"/>
<path d="M183.3 42.3495C182.872 42.3495 182.496 42.3071 182.188 42.2139V40.9007C182.445 40.9685 182.71 41.0024 182.975 41.0024C183.257 41.0024 183.462 40.9262 183.599 40.7652C183.727 40.6042 183.795 40.3755 183.795 40.0705V33.5299H185.479V40.3162C185.479 40.9685 185.291 41.4684 184.907 41.8157C184.53 42.1716 183.992 42.341 183.291 42.341L183.3 42.3495ZM183.727 31.9456C183.727 31.4034 184.035 31.1323 184.642 31.1323C185.248 31.1323 185.556 31.4034 185.556 31.9456C185.556 32.2082 185.479 32.4031 185.325 32.5471C185.172 32.6912 184.941 32.7674 184.642 32.7674C184.026 32.7674 183.727 32.4963 183.727 31.9456Z" fill="#1D3749"/>
<path d="M190.042 39.7655C189.051 39.7655 188.273 39.4944 187.709 38.9522C187.145 38.4099 186.871 37.639 186.871 36.6392C186.871 35.6395 187.128 34.8177 187.649 34.2585C188.17 33.6994 188.88 33.4198 189.794 33.4198C190.709 33.4198 191.35 33.6655 191.837 34.1569C192.324 34.6483 192.564 35.3345 192.564 36.1987V37.012H188.581C188.598 37.4865 188.743 37.8592 189.008 38.1219C189.273 38.3845 189.649 38.5201 190.128 38.5201C190.504 38.5201 190.854 38.4777 191.179 38.4015C191.512 38.3252 191.854 38.2066 192.222 38.0372V39.3334C191.931 39.4774 191.615 39.5876 191.273 39.6554C190.94 39.7231 190.529 39.7655 190.051 39.7655H190.042ZM189.803 34.6059C189.444 34.6059 189.162 34.7161 188.965 34.9448C188.76 35.1651 188.649 35.487 188.615 35.9022H190.982C190.982 35.487 190.863 35.1736 190.658 34.9448C190.444 34.7161 190.162 34.6059 189.803 34.6059Z" fill="#1D3749"/>
<path d="M199.633 39.6552H197.95V36.0799C197.95 35.6394 197.873 35.309 197.71 35.0887C197.548 34.8684 197.3 34.7583 196.95 34.7583C196.479 34.7583 196.138 34.9108 195.924 35.2243C195.71 35.5377 195.608 36.0545 195.608 36.7747V39.6552H193.924V33.5298H195.214L195.445 34.3093H195.539C195.727 34.0127 195.984 33.7924 196.317 33.6399C196.65 33.4874 197.018 33.4112 197.445 33.4112C198.163 33.4112 198.71 33.6061 199.078 33.9873C199.454 34.3686 199.633 34.9277 199.633 35.6563V39.6468V39.6552Z" fill="#1D3749"/>
<path d="M204.162 39.7655C203.171 39.7655 202.393 39.4944 201.829 38.9522C201.265 38.4099 200.991 37.639 200.991 36.6392C200.991 35.6395 201.248 34.8177 201.769 34.2585C202.29 33.6994 203 33.4198 203.914 33.4198C204.829 33.4198 205.47 33.6655 205.957 34.1569C206.444 34.6483 206.684 35.3345 206.684 36.1987V37.012H202.701C202.718 37.4865 202.863 37.8592 203.128 38.1219C203.393 38.3845 203.769 38.5201 204.248 38.5201C204.624 38.5201 204.974 38.4777 205.299 38.4015C205.632 38.3252 205.974 38.2066 206.342 38.0372V39.3334C206.051 39.4774 205.735 39.5876 205.393 39.6554C205.06 39.7231 204.649 39.7655 204.171 39.7655H204.162ZM203.923 34.6059C203.564 34.6059 203.282 34.7161 203.085 34.9448C202.88 35.1651 202.769 35.487 202.735 35.9022H205.103C205.103 35.487 204.983 35.1736 204.778 34.9448C204.564 34.7161 204.282 34.6059 203.923 34.6059Z" fill="#1D3749"/>
<path d="M212.36 37.8424C212.36 38.4693 212.138 38.9523 211.702 39.2742C211.266 39.6046 210.599 39.7656 209.727 39.7656C209.274 39.7656 208.898 39.7317 208.582 39.6724C208.266 39.6131 207.967 39.5199 207.693 39.4098V38.0288C208.009 38.1728 208.36 38.2999 208.753 38.3931C209.146 38.4948 209.488 38.5371 209.787 38.5371C210.403 38.5371 210.702 38.3592 210.702 38.0118C210.702 37.8763 210.659 37.7746 210.582 37.6899C210.505 37.6052 210.36 37.512 210.163 37.4103C209.967 37.3087 209.702 37.1816 209.368 37.046C208.89 36.8512 208.548 36.6648 208.326 36.4953C208.103 36.3259 207.941 36.131 207.838 35.9192C207.736 35.6989 207.685 35.4363 207.685 35.1143C207.685 34.5721 207.898 34.1485 208.326 33.852C208.753 33.5555 209.351 33.403 210.138 33.403C210.924 33.403 211.608 33.5639 212.309 33.8859L211.804 35.0889C211.497 34.9534 211.206 34.8517 210.941 34.767C210.676 34.6823 210.394 34.6399 210.121 34.6399C209.625 34.6399 209.377 34.7755 209.377 35.0381C209.377 35.1906 209.454 35.3177 209.616 35.4278C209.779 35.538 210.129 35.6989 210.668 35.9192C211.146 36.1141 211.505 36.292 211.727 36.4614C211.95 36.6309 212.121 36.8257 212.223 37.046C212.326 37.2663 212.386 37.5289 212.386 37.8255L212.36 37.8424Z" fill="#1D3749"/>
<path d="M216.285 38.4354C216.575 38.4354 216.934 38.3677 217.345 38.2406V39.486C216.926 39.6724 216.413 39.7656 215.798 39.7656C215.122 39.7656 214.635 39.5961 214.328 39.2572C214.02 38.9184 213.866 38.41 213.866 37.7407V34.7924H213.062V34.0892L213.994 33.53L214.481 32.2338H215.558V33.5385H217.285V34.7924H215.558V37.7407C215.558 37.9779 215.627 38.1559 215.763 38.266C215.9 38.3761 216.08 38.4354 216.293 38.4354H216.285Z" fill="#1D3749"/>
<path d="M221.388 39.7655C220.396 39.7655 219.619 39.4944 219.054 38.9522C218.49 38.4099 218.217 37.639 218.217 36.6392C218.217 35.6395 218.473 34.8177 218.995 34.2585C219.516 33.6994 220.225 33.4198 221.14 33.4198C222.055 33.4198 222.696 33.6655 223.183 34.1569C223.67 34.6483 223.909 35.3345 223.909 36.1987V37.012H219.926C219.943 37.4865 220.089 37.8592 220.354 38.1219C220.619 38.3845 220.995 38.5201 221.473 38.5201C221.849 38.5201 222.2 38.4777 222.525 38.4015C222.858 38.3252 223.2 38.2066 223.567 38.0372V39.3334C223.277 39.4774 222.961 39.5876 222.619 39.6554C222.285 39.7231 221.875 39.7655 221.396 39.7655H221.388ZM221.149 34.6059C220.79 34.6059 220.507 34.7161 220.311 34.9448C220.106 35.1651 219.995 35.487 219.96 35.9022H222.328C222.328 35.487 222.208 35.1736 222.003 34.9448C221.79 34.7161 221.508 34.6059 221.149 34.6059Z" fill="#1D3749"/>
<path d="M228.719 33.4198C228.95 33.4198 229.138 33.4367 229.292 33.4706L229.163 35.038C229.027 35.0041 228.864 34.9872 228.668 34.9872C228.129 34.9872 227.71 35.1227 227.411 35.3938C227.112 35.6649 226.958 36.0547 226.958 36.5461V39.6638H225.274V33.5384H226.548L226.796 34.572H226.881C227.069 34.2331 227.334 33.9535 227.659 33.7417C227.984 33.5299 228.343 33.4283 228.719 33.4283V33.4198Z" fill="#1D3749"/>
<path d="M238.968 36.5885C238.968 37.5883 238.703 38.3677 238.173 38.9269C237.643 39.4861 236.908 39.7741 235.96 39.7741C235.37 39.7741 234.84 39.647 234.387 39.3844C233.934 39.1302 233.583 38.7574 233.344 38.2745C233.105 37.7916 232.977 37.2324 232.977 36.5885C232.977 35.5888 233.242 34.8094 233.763 34.2587C234.284 33.708 235.028 33.4284 235.985 33.4284C236.575 33.4284 237.105 33.5555 237.558 33.8097C238.011 34.0638 238.361 34.4281 238.601 34.911C238.84 35.3855 238.968 35.9531 238.968 36.5885ZM234.695 36.5885C234.695 37.1985 234.797 37.656 234.994 37.961C235.19 38.2745 235.524 38.427 235.977 38.427C236.43 38.427 236.746 38.2745 236.943 37.961C237.139 37.656 237.242 37.1901 237.242 36.5801C237.242 35.9701 237.139 35.521 236.943 35.216C236.746 34.911 236.421 34.7585 235.968 34.7585C235.515 34.7585 235.199 34.911 234.994 35.2076C234.797 35.5126 234.695 35.9616 234.695 36.5716V36.5885Z" fill="#1D3749"/>
<path d="M245.73 33.5385V34.3858L244.764 34.6315C244.944 34.9026 245.029 35.216 245.029 35.5549C245.029 36.2158 244.799 36.7241 244.337 37.0884C243.876 37.4527 243.234 37.6391 242.414 37.6391L242.106 37.6222L241.858 37.5967C241.687 37.7323 241.602 37.8763 241.602 38.0373C241.602 38.2745 241.91 38.4016 242.534 38.4016H243.585C244.26 38.4016 244.782 38.5456 245.132 38.8337C245.491 39.1217 245.662 39.5454 245.662 40.1045C245.662 40.8162 245.363 41.3754 244.756 41.7735C244.158 42.1717 243.286 42.3666 242.166 42.3666C241.303 42.3666 240.645 42.2141 240.192 41.9176C239.739 41.621 239.508 41.2059 239.508 40.6637C239.508 40.2909 239.627 39.9859 239.858 39.7402C240.089 39.4945 240.431 39.3166 240.884 39.2065C240.713 39.1302 240.559 39.0116 240.431 38.8506C240.303 38.6812 240.234 38.5117 240.234 38.3254C240.234 38.0881 240.303 37.8933 240.439 37.7408C240.576 37.5883 240.773 37.4358 241.029 37.2833C240.704 37.1477 240.448 36.919 240.26 36.614C240.072 36.309 239.978 35.9447 239.978 35.5295C239.978 34.8602 240.2 34.3434 240.636 33.9791C241.072 33.6148 241.705 33.4284 242.517 33.4284C242.687 33.4284 242.893 33.4453 243.132 33.4708C243.371 33.5047 243.525 33.5216 243.585 33.5385H245.739H245.73ZM240.961 40.5281C240.961 40.7569 241.072 40.9348 241.294 41.0704C241.516 41.2059 241.833 41.2652 242.234 41.2652C242.841 41.2652 243.311 41.1805 243.653 41.0195C243.995 40.8585 244.166 40.6298 244.166 40.3417C244.166 40.113 244.064 39.952 243.858 39.8673C243.653 39.7826 243.346 39.7317 242.918 39.7317H242.046C241.739 39.7317 241.482 39.808 241.269 39.952C241.063 40.096 240.952 40.2909 240.952 40.5281H240.961ZM241.576 35.5465C241.576 35.8769 241.653 36.1395 241.807 36.3344C241.961 36.5292 242.192 36.6224 242.508 36.6224C242.824 36.6224 243.055 36.5292 243.2 36.3344C243.346 36.1395 243.423 35.8769 243.423 35.5465C243.423 34.8094 243.115 34.4366 242.508 34.4366C241.901 34.4366 241.576 34.8094 241.576 35.5465Z" fill="#1D3749"/>
<path d="M253.079 39.7656C252.352 39.7656 251.788 39.503 251.369 38.9862H251.284C251.344 39.4945 251.369 39.791 251.369 39.8758V42.3581H249.686V33.5385H251.053L251.292 34.3349H251.369C251.763 33.7249 252.344 33.4284 253.122 33.4284C253.848 33.4284 254.421 33.708 254.831 34.2672C255.241 34.8263 255.446 35.6058 255.446 36.597C255.446 37.2494 255.352 37.817 255.156 38.2999C254.959 38.7829 254.686 39.1472 254.327 39.4013C253.968 39.6555 253.549 39.7826 253.07 39.7826L253.079 39.7656ZM252.583 34.7585C252.164 34.7585 251.865 34.8856 251.669 35.1398C251.481 35.394 251.378 35.8091 251.369 36.3937V36.5716C251.369 37.2324 251.472 37.6984 251.669 37.9865C251.865 38.2745 252.181 38.4101 252.609 38.4101C253.361 38.4101 253.746 37.7916 253.746 36.5631C253.746 35.9616 253.652 35.5126 253.464 35.2076C253.275 34.9026 252.985 34.7585 252.592 34.7585H252.583Z" fill="#1D3749"/>
<path d="M260.293 33.4198C260.524 33.4198 260.712 33.4367 260.866 33.4706L260.738 35.038C260.601 35.0041 260.439 34.9872 260.242 34.9872C259.703 34.9872 259.285 35.1227 258.985 35.3938C258.686 35.6649 258.532 36.0547 258.532 36.5461V39.6638H256.849V33.5384H258.122L258.37 34.572H258.456C258.644 34.2331 258.909 33.9535 259.233 33.7417C259.558 33.5299 259.917 33.4283 260.293 33.4283V33.4198Z" fill="#1D3749"/>
<path d="M267.602 36.5885C267.602 37.5883 267.337 38.3677 266.807 38.9269C266.277 39.4861 265.542 39.7741 264.593 39.7741C264.004 39.7741 263.474 39.647 263.021 39.3844C262.568 39.1302 262.217 38.7574 261.978 38.2745C261.739 37.7916 261.61 37.2324 261.61 36.5885C261.61 35.5888 261.875 34.8094 262.397 34.2587C262.918 33.708 263.662 33.4284 264.619 33.4284C265.209 33.4284 265.739 33.5555 266.192 33.8097C266.645 34.0638 266.995 34.4281 267.235 34.911C267.474 35.3855 267.602 35.9531 267.602 36.5885ZM263.328 36.5885C263.328 37.1985 263.431 37.656 263.628 37.961C263.824 38.2745 264.157 38.427 264.61 38.427C265.063 38.427 265.38 38.2745 265.576 37.961C265.773 37.656 265.875 37.1901 265.875 36.5801C265.875 35.9701 265.773 35.521 265.576 35.216C265.38 34.911 265.055 34.7585 264.602 34.7585C264.149 34.7585 263.833 34.911 263.628 35.2076C263.431 35.5126 263.328 35.9616 263.328 36.5716V36.5885Z" fill="#1D3749"/>
<path d="M270.952 39.7657C270.225 39.7657 269.652 39.4861 269.242 38.9269C268.832 38.3677 268.618 37.5968 268.618 36.6055C268.618 35.6143 268.832 34.8179 269.251 34.2587C269.67 33.6995 270.251 33.42 270.994 33.42C271.772 33.42 272.362 33.7165 272.772 34.318H272.823C272.738 33.8605 272.695 33.4538 272.695 33.098V31.1409H274.388V39.664H273.097L272.772 38.8676H272.704C272.319 39.4691 271.738 39.7741 270.952 39.7741V39.7657ZM271.541 38.4355C271.969 38.4355 272.285 38.3084 272.49 38.0627C272.695 37.817 272.798 37.3934 272.815 36.8004V36.6225C272.815 35.9616 272.712 35.4957 272.507 35.2076C272.302 34.9195 271.969 34.784 271.507 34.784C271.131 34.784 270.841 34.945 270.635 35.2584C270.43 35.5719 270.319 36.0294 270.319 36.6394C270.319 37.2494 270.422 37.69 270.635 37.995C270.849 38.3 271.148 38.444 271.533 38.444L271.541 38.4355Z" fill="#1D3749"/>
<path d="M280.526 39.6555L280.296 38.8761H280.21C280.031 39.1641 279.774 39.3844 279.441 39.5369C279.108 39.6894 278.731 39.7657 278.304 39.7657C277.578 39.7657 277.031 39.5708 276.663 39.1895C276.295 38.8083 276.107 38.2491 276.107 37.529V33.5386H277.791V37.1139C277.791 37.5544 277.868 37.8848 278.031 38.1051C278.193 38.3254 278.441 38.4355 278.791 38.4355C279.261 38.4355 279.603 38.283 279.817 37.9695C280.031 37.6561 280.133 37.1393 280.133 36.4191V33.5386H281.817V39.664H280.526V39.6555Z" fill="#1D3749"/>
<path d="M285.209 36.3257L285.944 35.3938L287.67 33.5299H289.568L287.115 36.1902L289.713 39.6553H287.764L285.987 37.173L285.26 37.7491V39.6553H283.576V31.1323H285.26V34.9363L285.175 36.3257H285.2H285.209Z" fill="#1D3749"/>
<path d="M293.21 38.4354C293.5 38.4354 293.859 38.3677 294.27 38.2406V39.486C293.851 39.6724 293.338 39.7656 292.722 39.7656C292.047 39.7656 291.56 39.5961 291.252 39.2572C290.945 38.9184 290.791 38.41 290.791 37.7407V34.7924H289.987V34.0892L290.919 33.53L291.406 32.2338H292.483V33.5385H294.21V34.7924H292.483V37.7407C292.483 37.9779 292.552 38.1559 292.688 38.266C292.825 38.3761 293.005 38.4354 293.218 38.4354H293.21Z" fill="#1D3749"/>
<path d="M298.313 39.7655C297.321 39.7655 296.543 39.4944 295.979 38.9522C295.415 38.4099 295.142 37.639 295.142 36.6392C295.142 35.6395 295.398 34.8177 295.919 34.2585C296.441 33.6994 297.15 33.4198 298.065 33.4198C298.979 33.4198 299.62 33.6655 300.108 34.1569C300.595 34.6483 300.834 35.3345 300.834 36.1987V37.012H296.851C296.868 37.4865 297.013 37.8592 297.278 38.1219C297.543 38.3845 297.92 38.5201 298.398 38.5201C298.774 38.5201 299.125 38.4777 299.449 38.4015C299.783 38.3252 300.125 38.2066 300.492 38.0372V39.3334C300.202 39.4774 299.885 39.5876 299.544 39.6554C299.21 39.7231 298.8 39.7655 298.321 39.7655H298.313ZM298.073 34.6059C297.714 34.6059 297.432 34.7161 297.236 34.9448C297.031 35.1651 296.919 35.487 296.885 35.9022H299.253C299.253 35.487 299.133 35.1736 298.928 34.9448C298.714 34.7161 298.432 34.6059 298.073 34.6059Z" fill="#1D3749"/>
<path d="M305.657 33.4198C305.887 33.4198 306.075 33.4367 306.229 33.4706L306.101 35.038C305.964 35.0041 305.802 34.9872 305.605 34.9872C305.067 34.9872 304.648 35.1227 304.349 35.3938C304.05 35.6649 303.896 36.0547 303.896 36.5461V39.6638H302.212V33.5384H303.485L303.733 34.572H303.819C304.007 34.2331 304.272 33.9535 304.597 33.7417C304.921 33.5299 305.28 33.4283 305.657 33.4283V33.4198Z" fill="#1D3749"/>
</svg>
