<svg width="170" height="33" viewBox="0 0 170 33" fill="none" xmlns="http://www.w3.org/2000/svg">
<path d="M24.4805 0.536011H8.74051C4.39551 0.536011 0.874512 4.05701 0.874512 8.40101V24.142C0.874512 28.485 4.39551 32.008 8.74051 32.008H24.4805C28.8235 32.008 32.3465 28.485 32.3465 24.142V8.40101C32.3465 4.05701 28.8235 0.536011 24.4805 0.536011ZM8.74051 8.40101H24.4805V24.143H8.74051V8.40101Z" fill="#00509E"/>
<path d="M16.5585 9.76404C12.9925 9.76404 10.1025 12.655 10.1025 16.22C10.1025 19.786 12.9925 22.676 16.5585 22.676C20.1235 22.676 23.0125 19.786 23.0125 16.22C23.0125 12.655 20.1235 9.76404 16.5585 9.76404Z" fill="#00509E"/>
<path d="M49.4607 0.567993L64.7897 22.85V5.70599L64.7447 1.63099H60.1377V0.567993H70.0167V1.63099H66.2067L66.1617 5.70599V32.241L65.4537 32.464L44.8987 2.56099V26.572L44.9427 30.779H49.6827V31.843H39.4497V30.779H43.5267L43.5697 26.572V5.70599L43.5267 1.63099H39.4497V0.567993H49.4607Z" fill="black"/>
<path d="M100.583 0.567993V10.578H99.2536C99.1226 9.02799 98.9466 7.07899 97.5696 4.77599C95.9776 2.07399 93.8056 1.94099 91.6796 1.85199H89.1966L89.1536 5.83899V26.262L89.1976 30.78H93.9826V31.844H79.4526V30.78H84.2366L84.2816 26.262V5.83899L84.2366 1.85199H82.1996C79.6306 1.89599 77.6806 1.89599 75.8206 4.86499C74.3596 7.21299 74.2256 9.07299 74.1356 10.578H72.8516V0.567993H100.583Z" fill="black"/>
<path d="M113.163 0.567993L128.492 22.85V5.70599L128.446 1.63099H123.84V0.567993H133.72V1.63099H129.908L129.864 5.70599V32.241L129.156 32.464L108.601 2.56099V26.572L108.644 30.779H113.385V31.843H103.152V30.779H107.228L107.272 26.572V5.70599L107.228 1.63099H103.152V0.567993H113.163Z" fill="black"/>
<path d="M150.919 0.567993V1.63099H146.534L146.489 5.39499V22.318C146.534 26.702 146.622 30.867 154.863 30.867C163.19 30.867 163.721 27.235 163.854 23.292V5.39499L163.81 1.63099H159.335V0.567993H169.125V1.63099H165.273L165.228 5.39499V21.521C165.181 27.324 165.138 32.285 153.663 32.285C152.027 32.285 148.128 32.11 145.646 31.09C141.704 29.406 141.616 25.951 141.571 21.699V5.39499L141.527 1.63099H137.717V0.567993H150.919Z" fill="black"/>
</svg>
