<svg width="315" height="37" viewBox="0 0 315 37" fill="none" xmlns="http://www.w3.org/2000/svg">
<g clip-path="url(#clip0_908_1097)">
<path d="M256.069 0.5H254.284V36.3201H256.069V0.5Z" fill="#003087"/>
<path d="M294.457 27.6148C298.269 27.6148 301.36 24.4765 301.36 20.6054C301.36 16.7341 298.269 13.5959 294.457 13.5959C290.644 13.5959 287.553 16.7341 287.553 20.6054C287.553 24.4765 290.644 27.6148 294.457 27.6148Z" fill="url(#paint0_radial_908_1097)"/>
<path d="M303.069 0.545898C303.069 0.545898 288.936 10.4461 284.809 19.0276C283.594 21.5482 280.132 29.2786 293.779 29.2786C298.405 29.2786 305.692 28.2393 305.692 22.1783C305.692 16.598 301.137 10.9723 300.427 10.0304C303.523 11.1802 314.501 19.4369 314.501 27.1544C314.501 32.085 309.703 36.3335 294.137 36.3335C283.197 36.3335 269.436 35.0668 269.436 28.4861C269.436 21.2753 284.458 10.4331 303.069 0.545898Z" fill="url(#paint1_linear_908_1097)"/>
<mask id="mask0_908_1097" style="mask-type:luminance" maskUnits="userSpaceOnUse" x="0" y="0" width="242" height="37">
<path d="M241.391 0.667725H0.498535V36.5009H241.391V0.667725Z" fill="white"/>
</mask>
<g mask="url(#mask0_908_1097)">
<path d="M22.5015 5.0932C22.5015 7.52794 20.5602 9.51866 18.1431 9.51866C15.726 9.51866 13.7847 7.54746 13.7847 5.0932C13.7847 2.63895 15.7452 0.667725 18.1431 0.667725C20.541 0.667725 22.5015 2.63895 22.5015 5.0932Z" fill="#6CACE4"/>
<path d="M22.5015 18.5645C22.5015 20.9992 20.5602 22.99 18.1431 22.99C15.726 22.99 13.7847 21.0188 13.7847 18.5645C13.7847 16.1102 15.726 14.139 18.1431 14.139C20.541 14.1586 22.5015 16.1298 22.5015 18.5645Z" fill="#6CACE4"/>
<path d="M9.1962 18.5645C9.1962 20.9992 7.25486 22.99 4.83776 22.99C2.42068 22.99 0.498535 21.0041 0.498535 18.5645C0.498535 16.1249 2.4399 14.139 4.85698 14.139C7.27409 14.139 9.1962 16.1298 9.1962 18.5645Z" fill="#6CACE4"/>
<path d="M35.8082 18.5645C35.8082 20.9992 33.8477 22.99 31.4498 22.99C29.0519 22.99 27.0913 21.0188 27.0913 18.5645C27.0913 16.1102 29.0327 14.139 31.4498 14.139C33.8477 14.1586 35.8082 16.1298 35.8082 18.5645Z" fill="#003087"/>
<path d="M22.5015 32.0755C22.5015 34.5102 20.5602 36.501 18.1431 36.501C15.726 36.501 13.7847 34.5297 13.7847 32.0755C13.7847 29.6212 15.726 27.65 18.1431 27.65C20.541 27.6695 22.5015 29.6407 22.5015 32.0755Z" fill="#003087"/>
<path d="M53.4052 13.8858C52.1558 13.3247 51.1371 13.032 50.349 13.032C49.2966 13.032 48.6142 13.4662 48.6142 14.1395C48.6142 14.647 48.8978 14.9543 49.7387 15.4081C51.5455 16.3888 52.7228 17.1501 53.2754 17.7111C53.7752 18.2186 54.0779 19.0188 54.0779 19.8531C54.0779 21.9951 52.5402 23.2442 49.9309 23.2442C49.5753 23.2442 49.2149 23.2247 48.8785 23.171C48.0376 23.0637 47.6436 22.9173 46.4134 22.3367L45.6445 21.9756L46.5912 19.8726C47.4513 20.3459 47.8069 20.5265 48.2731 20.707C48.8641 20.9266 49.508 21.0534 49.9694 21.0534C51.0073 21.0534 51.6849 20.5802 51.6849 19.8531C51.6849 19.3457 51.4157 18.9993 50.6469 18.565L48.8257 17.5111C46.7354 16.2962 46.0914 15.496 46.0914 14.1932C46.0914 13.5931 46.2692 12.9783 46.5576 12.5245C46.7546 12.2171 47.0573 11.9097 47.4321 11.6365C48.2875 11.0364 49.0227 10.8363 50.3971 10.8363C51.1851 10.8363 51.8819 10.929 52.6123 11.1437C53.1842 11.3242 53.5061 11.4511 54.2942 11.8317L53.4004 13.881L53.4052 13.8858Z" fill="#003087"/>
<path d="M60.7002 17.8773V23.0103H58.4466V17.8773L54.8569 11.0366H57.3221L59.6815 15.7158L62.166 11.0366H64.6309L60.7002 17.8773Z" fill="#003087"/>
<path d="M72.3333 23.0103L68.4026 17.3113V23.0103H66.1489V11.0366H68.4026V16.6233L72.1027 11.0366H74.6929L70.6375 16.8624L74.9089 23.0152H72.3381L72.3333 23.0103Z" fill="#003087"/>
<path d="M76.4604 23.0103V11.0366H83.6445V12.9785H78.7142V15.9354H82.7507V17.8773H78.7142V21.0684H83.88V23.0103H76.4653H76.4604Z" fill="#003087"/>
<path d="M94.404 23.0103V17.8773H88.345V23.0103H86.0913V11.0366H88.345V15.828H94.404V11.0366H96.6529V23.0103H94.404Z" fill="#003087"/>
<path d="M107.84 22.376C106.98 22.9761 105.98 23.2494 104.515 23.2494C103.049 23.2494 102.069 22.9956 101.175 22.376C99.9592 21.5221 99.5649 20.5267 99.5649 18.3311V11.0366H101.799V18.4579C101.799 20.234 102.712 21.1269 104.587 21.1269C106.302 21.1269 107.215 20.1852 107.215 18.4579V11.0366H109.469V18.3311C109.469 20.5267 109.075 21.5074 107.845 22.376H107.84Z" fill="#003087"/>
<path d="M118.902 13.8858C117.653 13.3247 116.634 13.032 115.846 13.032C114.794 13.032 114.111 13.4662 114.111 14.1395C114.111 14.647 114.395 14.9543 115.235 15.4081C117.043 16.3888 118.22 17.1501 118.772 17.7111C119.272 18.2186 119.575 19.0188 119.575 19.8531C119.575 21.9951 118.037 23.2442 115.428 23.2442C115.072 23.2442 114.712 23.2247 114.376 23.171C113.534 23.0637 113.141 22.9173 111.91 22.3367L111.141 21.9756L112.088 19.8726C112.948 20.3459 113.304 20.5265 113.77 20.707C114.361 20.9266 115.005 21.0534 115.466 21.0534C116.504 21.0534 117.182 20.5802 117.182 19.8531C117.182 19.3457 116.912 18.9993 116.144 18.565L114.323 17.5111C112.232 16.2962 111.588 15.496 111.588 14.1932C111.588 13.5931 111.766 12.9783 112.054 12.5245C112.252 12.2171 112.554 11.9097 112.929 11.6365C113.784 11.0364 114.519 10.8363 115.894 10.8363C116.682 10.8363 117.379 10.929 118.109 11.1437C118.681 11.3242 119.003 11.4511 119.791 11.8317L118.897 13.881L118.902 13.8858Z" fill="#003087"/>
<path d="M121.925 23.0103V11.0366H129.109V12.9785H124.179V15.9354H128.215V17.8773H124.179V21.0684H129.344V23.0103H121.93H121.925Z" fill="#003087"/>
<path d="M135.88 12.9785V23.0103H133.626V12.9785H130.089V11.0366H139.416V12.9785H135.88Z" fill="#003087"/>
<path d="M145.604 23.0103V11.0366H147.853V23.0103H145.604Z" fill="#003087"/>
<path d="M158.883 23.1177L153.828 15.3695L153.434 14.6425C153.362 14.4961 153.328 14.4229 153.275 14.2229V23.0055H151.132V11.0319H153.722L158.494 18.6142C158.835 19.1607 158.974 19.5413 159.118 19.9218V11.0319H161.243V23.1177H158.883Z" fill="#003087"/>
<path d="M172.443 23.1177L167.387 15.3695L166.993 14.6425C166.921 14.4961 166.887 14.4229 166.835 14.2229V23.0055H164.691V11.0319H167.282L172.053 18.6142C172.394 19.1607 172.534 19.5413 172.678 19.9218V11.0319H174.802V23.1177H172.443Z" fill="#003087"/>
<path d="M178.146 23.0103V11.0366H180.4V21.0684H185.225V23.0103H178.151H178.146Z" fill="#003087"/>
<path d="M193.62 23.0103L192.692 20.0535H188.742L187.776 23.0103H185.417L189.689 11.0366H191.707L195.979 23.0103H193.62ZM190.708 13.7738L189.348 18.1115H192.082L190.708 13.7738Z" fill="#003087"/>
<path d="M205.485 23.1177L200.429 15.3695L200.035 14.6425C199.963 14.4961 199.929 14.4229 199.876 14.2229V23.0055H197.733V11.0319H200.324L205.095 18.6142C205.436 19.1607 205.576 19.5413 205.72 19.9218V11.0319H207.848V23.1177H205.489H205.485Z" fill="#003087"/>
<path d="M220.213 21.2489C219.122 22.4297 217.57 23.0103 215.441 23.0103H211.083V11.0366H215.46C217.695 11.0366 219.089 11.544 220.251 12.798C221.27 13.9056 221.842 15.4279 221.842 16.9893C221.842 18.5507 221.251 20.1266 220.218 21.2538L220.213 21.2489ZM218.051 13.7544C217.426 13.2811 216.513 13.0469 215.225 13.0469H213.437V20.9952H215.225C217.906 20.9952 219.406 19.5607 219.406 17.004C219.406 15.6426 218.887 14.3935 218.046 13.7544H218.051Z" fill="#003087"/>
<path d="M223.894 23.0103V11.0366H231.078V12.9785H226.147V15.9354H230.184V17.8773H226.147V21.0684H231.313V23.0103H223.898H223.894Z" fill="#003087"/>
<path d="M237.853 12.9785V23.0103H235.599V12.9785H232.062V11.0366H241.39V12.9785H237.853Z" fill="#003087"/>
</g>
</g>
<defs>
<radialGradient id="paint0_radial_908_1097" cx="0" cy="0" r="1" gradientUnits="userSpaceOnUse" gradientTransform="translate(294.459 20.6063) scale(6.90519 7.01138)">
<stop stop-color="#6CACE4"/>
<stop offset="0.4071" stop-color="#6AAAE3"/>
<stop offset="0.5658" stop-color="#64A3DD"/>
<stop offset="0.6811" stop-color="#5A97D4"/>
<stop offset="0.7754" stop-color="#4B86C7"/>
<stop offset="0.8569" stop-color="#376FB6"/>
<stop offset="0.9285" stop-color="#1F54A2"/>
<stop offset="0.9931" stop-color="#03348A"/>
<stop offset="1" stop-color="#003087"/>
</radialGradient>
<linearGradient id="paint1_linear_908_1097" x1="269.433" y1="18.4405" x2="314.5" y2="18.4405" gradientUnits="userSpaceOnUse">
<stop stop-color="#6CACE4"/>
<stop offset="0.2565" stop-color="#5490CF"/>
<stop offset="0.8066" stop-color="#174A9B"/>
<stop offset="1" stop-color="#003087"/>
</linearGradient>
<clipPath id="clip0_908_1097">
<rect width="314" height="36" fill="white" transform="translate(0.5 0.5)"/>
</clipPath>
</defs>
</svg>
