<svg width="132" height="132" viewBox="0 0 132 132" fill="none" xmlns="http://www.w3.org/2000/svg">
<path d="M130.565 66C130.565 101.658 101.658 130.565 66 130.565C30.3416 130.565 1.43476 101.658 1.43476 66C1.43476 30.3416 30.3416 1.43476 66 1.43476C101.658 1.43476 130.565 30.3416 130.565 66Z" fill="black" stroke="url(#paint0_linear_434_5)" stroke-width="2.86952"/>
<path d="M55.071 104.711C55.0803 106.02 55.345 107.315 55.8499 108.521C56.3548 109.727 57.0901 110.821 58.0137 111.74C58.9374 112.66 60.0313 113.386 61.233 113.879C62.4348 114.371 63.7208 114.62 65.0178 114.611C66.3147 114.602 67.597 114.335 68.7917 113.825C69.9863 113.315 71.0698 112.573 71.9802 111.641C72.8907 110.709 73.6103 109.604 74.098 108.391C74.5857 107.178 74.8319 105.88 74.8226 104.57L64.9468 104.641L55.071 104.711Z" fill="url(#paint1_linear_434_5)"/>
<path d="M103.4 63.8001C103.4 83.2405 86.6554 61.6001 66 61.6001C45.3445 61.6001 28.6 83.2405 28.6 63.8001C28.6 44.3596 45.3445 28.6001 66 28.6001C86.6554 28.6001 103.4 44.3596 103.4 63.8001Z" fill="white"/>
<ellipse cx="66.0249" cy="46.2001" rx="13.2019" ry="13.177" transform="rotate(-0.100038 66.0249 46.2001)" fill="black"/>
<circle cx="71.5" cy="40.7" r="3.3" fill="white"/>
<defs>
<linearGradient id="paint0_linear_434_5" x1="66" y1="0" x2="66" y2="132" gradientUnits="userSpaceOnUse">
<stop stop-color="#1762A7"/>
<stop offset="0.82663" stop-color="#CC33AA"/>
</linearGradient>
<linearGradient id="paint1_linear_434_5" x1="65.0178" y1="114.611" x2="64.8758" y2="94.6704" gradientUnits="userSpaceOnUse">
<stop stop-color="#1762A7"/>
<stop offset="1" stop-color="#CC33AA" stop-opacity="0"/>
</linearGradient>
</defs>
</svg>
