<svg width="500" height="500" viewBox="0 0 500 500" fill="none" xmlns="http://www.w3.org/2000/svg">
<path d="M141.45 29.5298H49.69V181.42H141.45V29.5298Z" fill="#E0E0E0"/>
<path d="M138.4 29.5298H46.64V181.42H138.4V29.5298Z" fill="#EBEBEB"/>
<path d="M134.5 32.6099H50.55V178.34H134.5V32.6099Z" fill="#FAFAFA"/>
<path d="M118.15 51.5498H66.53V159.41H118.15V51.5498Z" fill="#EBEBEB"/>
<path d="M66.53 121.24C66.41 111.16 75.47 101.32 85.45 99.9199C90.2 99.2499 95.26 100.19 99.7 98.3699C107.64 95.1099 110.16 84.5699 118.15 81.4399L118.51 159.44H66.51L66.53 121.24Z" fill="#E0E0E0"/>
<path d="M279.486 83.2158L271.456 83.2593L271.673 123.229L279.703 123.185L279.486 83.2158Z" fill="#E0E0E0"/>
<path d="M223.054 82.3027L202.254 82.5107L202.475 104.581L223.275 104.373L223.054 82.3027Z" fill="#EBEBEB"/>
<path d="M243.377 83.2117L222.577 83.3242L222.697 105.394L243.496 105.281L243.377 83.2117Z" fill="#F5F5F5"/>
<path d="M201.9 89.5397C215.72 89.6597 229.58 89.5397 243.4 89.3497C243.458 89.3497 243.514 89.3265 243.556 89.2853C243.597 89.244 243.62 89.1881 243.62 89.1297C243.62 89.0714 243.597 89.0154 243.556 88.9742C243.514 88.9329 243.458 88.9097 243.4 88.9097C229.58 88.8297 215.72 88.9097 201.9 89.1597C201.85 89.1597 201.801 89.1797 201.766 89.2154C201.73 89.251 201.71 89.2993 201.71 89.3497C201.71 89.4001 201.73 89.4484 201.766 89.4841C201.801 89.5197 201.85 89.5397 201.9 89.5397Z" fill="#E0E0E0"/>
<path d="M226.686 105.022L188.896 105.226L188.993 123.206L226.783 123.001L226.686 105.022Z" fill="#EBEBEB"/>
<path d="M264.304 104.818L226.514 105.022L226.612 123.002L264.401 122.798L264.304 104.818Z" fill="#F5F5F5"/>
<path d="M188.92 110.24C214.03 110.52 239.22 110.24 264.33 109.87C264.382 109.859 264.428 109.831 264.461 109.79C264.494 109.749 264.512 109.698 264.512 109.645C264.512 109.592 264.494 109.541 264.461 109.5C264.428 109.459 264.382 109.431 264.33 109.42C239.22 109.29 214.02 109.31 188.92 109.86C188.87 109.86 188.821 109.88 188.786 109.916C188.75 109.951 188.73 109.999 188.73 110.05C188.73 110.1 188.75 110.149 188.786 110.184C188.821 110.22 188.87 110.24 188.92 110.24Z" fill="#E0E0E0"/>
<path d="M321.21 123.22H174.79V129.66H321.21V123.22Z" fill="#E0E0E0"/>
<path d="M204.7 126.32H198.76V148.3H204.7V126.32Z" fill="#E0E0E0"/>
<path d="M293.43 126.32H287.49V148.3H293.43V126.32Z" fill="#E0E0E0"/>
<path d="M287.326 68.3135L279.296 68.3569L279.593 123.326L287.623 123.283L287.326 68.3135Z" fill="#EBEBEB"/>
<path d="M299.871 78.5458L287.391 78.6133L287.632 123.163L300.112 123.095L299.871 78.5458Z" fill="#F5F5F5"/>
<path d="M299.79 87.1399C297.718 87.3587 295.633 87.4322 293.55 87.3599C291.467 87.4318 289.382 87.3583 287.31 87.1399C289.383 86.9281 291.468 86.8579 293.55 86.9299C295.632 86.8576 297.717 86.9277 299.79 87.1399Z" fill="#E0E0E0"/>
<path d="M299.79 85.2698C297.718 85.4886 295.633 85.5621 293.55 85.4898C291.467 85.5617 289.382 85.4882 287.31 85.2698C289.383 85.058 291.468 84.9878 293.55 85.0598C295.632 84.9874 297.717 85.0576 299.79 85.2698Z" fill="#E0E0E0"/>
<path d="M299.79 116.41C297.717 116.622 295.632 116.692 293.55 116.62C291.468 116.692 289.383 116.622 287.31 116.41C289.382 116.192 291.467 116.118 293.55 116.19C295.633 116.118 297.718 116.191 299.79 116.41Z" fill="#E0E0E0"/>
<path d="M299.79 114.54C297.717 114.746 295.632 114.816 293.55 114.75C291.468 114.816 289.383 114.746 287.31 114.54C289.382 114.321 291.467 114.248 293.55 114.32C295.633 114.248 297.718 114.321 299.79 114.54Z" fill="#E0E0E0"/>
<path d="M293.75 110.45C293.63 110.45 293.54 105.96 293.54 100.45C293.54 94.9397 293.63 90.4497 293.75 90.4497C293.87 90.4497 293.97 94.9397 293.97 100.45C293.97 105.96 293.87 110.45 293.75 110.45Z" fill="#E0E0E0"/>
<path d="M313.52 89.5H299.93V123.13H313.52V89.5Z" fill="#EBEBEB"/>
<path d="M285.5 77.7099C285.5 78.1668 285.365 78.6134 285.111 78.9933C284.857 79.3732 284.496 79.6692 284.074 79.8441C283.652 80.0189 283.187 80.0647 282.739 79.9755C282.291 79.8864 281.88 79.6664 281.557 79.3433C281.234 79.0203 281.014 78.6087 280.924 78.1606C280.835 77.7125 280.881 77.248 281.056 76.8259C281.231 76.4038 281.527 76.0431 281.907 75.7892C282.287 75.5354 282.733 75.3999 283.19 75.3999C283.494 75.3986 283.795 75.4574 284.076 75.5731C284.356 75.6887 284.612 75.8588 284.826 76.0736C285.041 76.2883 285.211 76.5435 285.327 76.8244C285.442 77.1052 285.501 77.4062 285.5 77.7099Z" fill="#E0E0E0"/>
<path d="M283.91 84.0596H282.48V116.76H283.91V84.0596Z" fill="#E0E0E0"/>
<path d="M383.56 372.17C379.063 369.349 373.98 367.598 368.7 367.05C366.27 366.8 363.62 366.87 361.7 368.35C361.475 368.478 361.29 368.665 361.163 368.89C361.036 369.115 360.973 369.371 360.98 369.63C361.09 369.997 361.332 370.31 361.66 370.51C367.71 375.12 376.86 375.7 383.59 372.17" fill="#E0E0E0"/>
<path d="M383.18 371.75C379.738 369.22 376.526 366.392 373.58 363.3C370.634 360.183 368.565 356.343 367.58 352.17C367.389 351.551 367.333 350.899 367.416 350.258C367.499 349.616 367.718 348.999 368.06 348.45C375.71 354.45 381.72 362.15 383.2 371.75" fill="#E0E0E0"/>
<path d="M383.48 372.11C382.774 367.934 382.835 363.664 383.66 359.51C384.51 355.323 386.906 351.61 390.37 349.11C391.7 352.2 391.13 355.76 390.2 358.99C388.753 363.987 386.504 368.715 383.54 372.99" fill="#E0E0E0"/>
<path d="M391 385.55C386.45 386.1 382.49 388.5 379.09 391.55C375.67 394.662 373.289 398.75 372.27 403.26C376.73 402.98 380.52 399.83 383.27 396.26C386.02 392.69 387.92 388.85 390.94 385.55" fill="#E0E0E0"/>
<path d="M392.61 387.7C390.819 383.147 390.192 378.22 390.786 373.364C391.379 368.508 393.175 363.877 396.01 359.89C398.6 369.12 397.65 379.54 392.61 387.7Z" fill="#E0E0E0"/>
<path d="M402.52 399.5C398.359 399.245 394.216 400.219 390.603 402.298C386.991 404.378 384.069 407.474 382.2 411.2C382.038 411.43 381.939 411.7 381.915 411.981C381.89 412.262 381.94 412.544 382.06 412.8C382.238 412.968 382.453 413.091 382.688 413.159C382.922 413.227 383.17 413.237 383.41 413.19C387.41 412.93 390.97 410.52 393.9 407.78C396.83 405.04 399.38 401.86 402.61 399.49" fill="#E0E0E0"/>
<path d="M402.21 398.86C400.076 391.989 399.944 384.653 401.83 377.71C402.58 374.99 403.83 372.13 406.34 370.85C406.44 370.783 406.554 370.738 406.672 370.717C406.791 370.697 406.913 370.701 407.03 370.73C407.235 370.834 407.393 371.013 407.47 371.23C408.32 373.135 408.684 375.22 408.53 377.3C408.383 379.369 408.065 381.423 407.58 383.44C406.79 387.2 406.37 391.23 404.31 394.44C403.821 395.217 403.383 396.025 403 396.86C402.61 397.68 402.61 397.97 402.25 398.62" fill="#E0E0E0"/>
<path d="M428.44 402.77C426.5 395.37 428.56 386.41 433.22 380.35C433.56 379.9 434.02 379.43 434.58 379.48C435.44 379.56 435.66 380.7 435.58 381.56C435.224 389.163 432.736 396.514 428.4 402.77" fill="#E0E0E0"/>
<path d="M430.81 404.39C435.399 405.468 440.168 405.539 444.787 404.598C449.407 403.657 453.768 401.727 457.57 398.94C453.09 396.693 447.969 396.067 443.08 397.17C438.24 398.27 433.82 400.44 430.81 404.39Z" fill="#E0E0E0"/>
<path d="M432.8 399.46C437.8 391.26 447.48 385.91 457.09 385.46C455.98 389.37 452.77 392.41 449.14 394.24C445.51 396.07 441.48 396.88 437.49 397.65C435.94 397.95 433.81 398.28 432.8 399.5" fill="#E0E0E0"/>
<path d="M428.94 375.57C430.461 370.949 431.503 366.184 432.05 361.35C432.42 356.51 431.73 351.44 429.22 347.28C424.52 356.38 424.04 367 428.8 376.06" fill="#E0E0E0"/>
<path d="M444.76 367.58C450.26 357.58 461.47 349.58 472.82 348.5C468.44 359.39 456.5 367.81 444.76 367.58Z" fill="#E0E0E0"/>
<path d="M441.31 369.54C449.5 370.78 456.48 376.02 464.14 379.19C465.747 379.968 467.529 380.313 469.31 380.19C470.148 380.204 470.969 379.954 471.658 379.476C472.346 378.997 472.867 378.315 473.146 377.525C473.426 376.735 473.45 375.877 473.216 375.072C472.981 374.267 472.5 373.556 471.84 373.04C470.755 372.039 469.48 371.267 468.09 370.77C459.74 367.29 450.8 367.21 442.01 369.31" fill="#E0E0E0"/>
<path d="M436.56 375.28C438.42 375.82 439.05 376.78 440.56 378.03C445.575 382.283 451.501 385.325 457.88 386.92C458.54 387.09 459.41 387.15 459.74 386.56C460.07 385.97 459.66 385.4 459.29 384.94C456.508 381.672 452.894 379.219 448.83 377.84C444.83 376.35 441.37 374.56 436.6 374.94" fill="#E0E0E0"/>
<path d="M431.21 340.57C434.572 343.667 438.544 346.027 442.872 347.5C447.199 348.972 451.787 349.524 456.34 349.12C456.757 349.123 457.161 348.978 457.48 348.71C458.11 348.02 457.36 346.96 456.62 346.38C449.23 340.62 440.28 338.23 431.21 340.57Z" fill="#E0E0E0"/>
<path d="M437.56 338.24C442.007 334.966 447.166 332.791 452.615 331.892C458.063 330.994 463.647 331.397 468.91 333.07C464.816 336.867 459.565 339.177 454 339.63C448.491 340.129 442.937 339.658 437.59 338.24" fill="#E0E0E0"/>
<path d="M435 322.29C434.27 314.92 434.74 309.1 434.23 301.69C434.23 301.1 434.06 300.39 433.51 300.17C432.74 299.88 432.09 300.82 431.84 301.61C430.772 305.045 430.501 308.679 431.049 312.235C431.597 315.791 432.948 319.175 435 322.13" fill="#E0E0E0"/>
<path d="M434.5 323.11C439.317 319.999 443.47 315.964 446.72 311.24C449.13 307.93 451.17 303.98 450.62 299.93C448.922 299.974 447.254 300.388 445.733 301.142C444.211 301.897 442.872 302.975 441.81 304.3C439.706 306.958 438.174 310.022 437.31 313.3C436.31 316.54 435.65 319.88 434.5 323.07" fill="#E0E0E0"/>
<path d="M446.5 319.77C457.496 315.703 467.677 309.701 476.56 302.05C472.97 300.6 468.86 301.47 465.27 302.92C457.07 306.23 450.37 311.82 446.35 319.69" fill="#E0E0E0"/>
<path d="M437.88 327.14C443.43 327.75 449.06 328.14 454.57 327.22C460.08 326.3 465.09 324.17 470.15 322.04C470.594 321.921 470.974 321.634 471.21 321.24C471.29 321.006 471.297 320.753 471.229 320.515C471.161 320.278 471.022 320.066 470.83 319.91C470.439 319.604 469.985 319.388 469.5 319.28C464 317.75 458.07 318.47 452.66 320.28C447.507 322.039 442.553 324.335 437.88 327.13" fill="#E0E0E0"/>
<path d="M406.19 340.82C402.41 333.18 402.65 324.26 405.93 316.38C408.23 319.89 408.51 324.38 408.09 328.53C407.67 332.68 406.4 337 406.31 341.2" fill="#E0E0E0"/>
<path d="M391.07 333.19C386.33 333.131 381.629 334.062 377.269 335.923C372.91 337.785 368.986 340.535 365.75 344C370.46 344.74 375.32 343.52 379.61 341.43C383.833 339.171 387.817 336.491 391.5 333.43" fill="#E0E0E0"/>
<path d="M380.9 329.79C376.28 329.42 371.83 328.79 367.38 330.21C365.137 330.839 363.055 331.945 361.278 333.451C359.5 334.958 358.069 336.83 357.08 338.94C361.441 339.296 365.818 338.47 369.75 336.55C373.662 334.636 377.394 332.374 380.9 329.79Z" fill="#E0E0E0"/>
<path d="M396 330C391.84 327.27 387.57 324.5 382.72 323.37C377.87 322.24 372.27 323.07 368.89 326.72C372.81 329.02 377.57 329.29 382.11 329.29C386.65 329.29 392.23 329.24 396.52 330.75" fill="#E0E0E0"/>
<path d="M396 330.17C388.89 323.17 386.2 310.64 389.06 301.09C394.675 309.685 397.128 319.965 396 330.17Z" fill="#E0E0E0"/>
<path d="M415.54 310.38C416.88 307.26 417.82 303.99 419.03 300.82C420.13 297.593 421.826 294.601 424.03 292C426.254 289.381 429.418 287.74 432.84 287.43C431.744 292.241 429.658 296.771 426.714 300.732C423.769 304.692 420.032 307.995 415.74 310.43" fill="#E0E0E0"/>
<path d="M412 314.5C409.78 311.45 407.21 307.3 404.21 305.02C401.21 302.74 397.28 301.36 393.6 302.24C395.505 305.571 398.159 308.414 401.353 310.542C404.547 312.67 408.192 314.025 412 314.5Z" fill="#E0E0E0"/>
<path d="M412.71 310.63C411.113 306.988 409.935 303.177 409.2 299.27C408.475 295.327 409.109 291.255 411 287.72C414.9 295.1 416.16 303.02 412.93 310.72" fill="#E0E0E0"/>
<path d="M415.57 287.72C417.78 280.41 424.48 275.02 431.71 272.55C432.606 272.186 433.576 272.039 434.54 272.12C435.021 272.172 435.476 272.365 435.847 272.675C436.219 272.984 436.491 273.396 436.63 273.86C436.89 275.11 435.87 276.22 434.9 277.05C429.247 281.88 422.67 285.511 415.57 287.72Z" fill="#E0E0E0"/>
<path d="M415.65 281.74C415.93 277.02 416.23 272.24 417.76 267.74C419.29 263.24 422.25 259.08 426.55 257.12C427.29 261.89 425.18 266.62 422.65 270.72C420.12 274.82 417.06 278.72 415.54 283.26" fill="#E0E0E0"/>
<path d="M415.54 285C413.71 279.66 413.54 272.89 410.33 268.25C408.1 265 404.52 262.79 402.6 259.35C401.436 262.647 401.597 266.268 403.05 269.45C404.516 272.597 406.531 275.458 409 277.9C411.36 280.42 413.38 282.32 415.58 284.99" fill="#E0E0E0"/>
<path d="M415.57 442C415.43 442 415.31 406.44 415.3 362.58C415.29 318.72 415.4 283.15 415.54 283.15C415.68 283.15 415.8 318.7 415.81 362.58C415.82 406.46 415.72 442 415.57 442Z" fill="#E0E0E0"/>
<path d="M446.65 335.45C446.222 335.663 445.773 335.83 445.31 335.95L441.63 337.2C438.53 338.25 434.27 339.78 429.63 341.68C424.99 343.58 420.73 345.24 418.27 347.37C417.291 348.182 416.511 349.208 415.99 350.37C415.64 351.21 415.57 351.72 415.53 351.71C415.49 351.7 415.53 351.58 415.53 351.34C415.59 351 415.677 350.666 415.79 350.34C416.246 349.093 417.006 347.98 418 347.1C419.504 345.825 421.189 344.78 423 344C425 343.08 427.16 342.12 429.48 341.16C434.12 339.26 438.41 337.78 441.55 336.81C443.12 336.32 444.4 335.96 445.29 335.72C445.735 335.592 446.19 335.502 446.65 335.45Z" fill="#E0E0E0"/>
<path d="M456.84 310.43C456.728 310.576 456.601 310.711 456.46 310.83L455.32 311.9L451.06 315.77L436.88 328.4C431.35 333.33 426.56 338.03 423.25 341.58C421.59 343.35 420.25 344.81 419.39 345.84L418.39 347.01C418.15 347.28 418.02 347.42 418 347.4C418.091 347.242 418.195 347.091 418.31 346.95C418.52 346.66 418.84 346.24 419.31 345.71C420.15 344.64 421.42 343.14 423.05 341.33C427.309 336.652 431.812 332.203 436.54 328C442.09 323.09 447.15 318.67 450.82 315.49L455.19 311.74L456.4 310.74C456.534 310.62 456.682 310.516 456.84 310.43Z" fill="#E0E0E0"/>
<path d="M430.91 333.41C430.76 333.34 431.91 330.67 433.07 327.3C434.23 323.93 434.78 321.07 434.93 321.1C434.802 323.278 434.34 325.423 433.56 327.46C433.064 328.916 432.49 330.345 431.84 331.74C431.608 332.336 431.295 332.898 430.91 333.41Z" fill="#E0E0E0"/>
<path d="M415.61 354.93C415.286 354.63 414.998 354.295 414.75 353.93L412.57 351.13C410.73 348.76 408.19 345.48 405.35 341.9C402.51 338.32 399.89 335.1 398 332.77L395.76 330C395.476 329.688 395.219 329.354 394.99 329C395.337 329.267 395.649 329.576 395.92 329.92C396.49 330.54 397.29 331.45 398.28 332.58C400.28 334.85 402.9 338.03 405.75 341.58C408.6 345.13 411.1 348.48 412.86 350.91C413.74 352.13 414.44 353.12 414.91 353.81C415.176 354.162 415.411 354.536 415.61 354.93Z" fill="#E0E0E0"/>
<path d="M408.79 346.19C407.418 344.665 406.44 342.828 405.94 340.84C405.397 339.097 405.177 337.271 405.29 335.45H405.52C405.41 335.86 405.34 336.08 405.3 336.07C405.26 336.06 405.3 335.84 405.3 335.41H405.53C405.642 337.184 405.947 338.941 406.44 340.65C407.086 342.552 407.871 344.403 408.79 346.19Z" fill="#E0E0E0"/>
<path d="M400 335.12C399.387 334.647 398.715 334.257 398 333.96C396.208 333.428 394.324 333.278 392.47 333.52C390.588 333.663 388.722 333.964 386.89 334.42C386.141 334.657 385.375 334.841 384.6 334.97C385.284 334.562 386.026 334.259 386.8 334.07C388.63 333.503 390.519 333.147 392.43 333.01C394.355 332.756 396.312 332.965 398.14 333.62C398.916 333.887 399.575 334.418 400 335.12Z" fill="#E0E0E0"/>
<path d="M397.91 332.44C397.91 332.52 396.75 331.97 394.85 331.33C392.389 330.49 389.832 329.963 387.24 329.76C384.644 329.57 382.034 329.701 379.47 330.15C377.47 330.5 376.31 330.87 376.28 330.79C376.529 330.629 376.802 330.511 377.09 330.44C377.847 330.18 378.618 329.967 379.4 329.8C381.985 329.227 384.64 329.038 387.28 329.24C389.925 329.449 392.526 330.042 395 331C395.746 331.289 396.474 331.623 397.18 332C397.443 332.111 397.689 332.259 397.91 332.44Z" fill="#E0E0E0"/>
<path d="M415.54 321.1C414.63 318.571 413.885 315.985 413.31 313.36C412.568 310.779 411.99 308.154 411.58 305.5C412.491 308.025 413.236 310.608 413.81 313.23C414.554 315.814 415.131 318.443 415.54 321.1Z" fill="#E0E0E0"/>
<path d="M415.68 321.1C414.966 319.497 414.141 317.947 413.21 316.46C412.166 315.062 410.946 313.805 409.58 312.72C409.58 312.66 410.18 312.87 410.98 313.44C412.013 314.192 412.909 315.115 413.63 316.17C414.735 317.604 415.442 319.305 415.68 321.1Z" fill="#E0E0E0"/>
<path d="M415.57 423C415.52 423 415.41 422.15 415.01 420.64C414.424 418.513 413.63 416.45 412.64 414.48C410.18 409.48 405.71 403.09 400.03 396.72C397.21 393.5 394.48 390.47 392.16 387.56C390.08 385.006 388.201 382.294 386.54 379.45C385.422 377.535 384.472 375.528 383.7 373.45C383.44 372.71 383.25 372.13 383.14 371.73C383.069 371.533 383.022 371.328 383 371.12C383 371.12 383.3 371.93 383.89 373.38C384.74 375.422 385.743 377.398 386.89 379.29C388.594 382.086 390.492 384.759 392.57 387.29C394.9 390.16 397.63 393.18 400.45 396.4C406.15 402.79 410.61 409.24 413 414.34C413.977 416.341 414.732 418.444 415.25 420.61C415.41 421.38 415.52 421.98 415.56 422.4C415.586 422.599 415.589 422.8 415.57 423Z" fill="#E0E0E0"/>
<path d="M443.66 391.3C443.188 391.607 442.697 391.884 442.19 392.13C440.858 392.877 439.581 393.719 438.37 394.65C436.588 396.046 434.917 397.577 433.37 399.23C431.61 401.09 429.8 403.23 427.95 405.56C424.25 410.2 420.79 414.31 418.72 417.56C417.67 419.19 416.9 420.56 416.4 421.56C416.169 422.073 415.898 422.568 415.59 423.04C415.618 422.897 415.665 422.76 415.73 422.63C415.84 422.36 415.99 421.97 416.22 421.47C416.867 420.073 417.598 418.717 418.41 417.41C420.41 414.05 423.86 409.89 427.55 405.26C429.4 402.94 431.24 400.78 433.03 398.92C434.614 397.266 436.334 395.748 438.17 394.38C439.412 393.465 440.73 392.659 442.11 391.97C442.6 391.73 443 391.58 443.26 391.46C443.388 391.394 443.522 391.34 443.66 391.3Z" fill="#E0E0E0"/>
<path d="M444.21 401.59C443.186 401.82 442.147 401.973 441.1 402.05C438.6 402.299 436.129 402.785 433.72 403.5C431.337 404.275 429.102 405.448 427.11 406.97C425.59 408.14 424.87 409.12 424.8 409.06C424.91 408.794 425.066 408.551 425.26 408.34C425.746 407.739 426.288 407.186 426.88 406.69C428.849 405.044 431.117 403.795 433.56 403.01C436 402.279 438.517 401.836 441.06 401.69C442.105 401.562 443.159 401.529 444.21 401.59Z" fill="#E0E0E0"/>
<path d="M425.71 407.93C425.55 407.84 426.95 405.7 428.03 402.82C429.11 399.94 429.29 397.36 429.48 397.39C429.551 397.946 429.535 398.509 429.43 399.06C429.272 400.399 428.967 401.717 428.52 402.99C428.044 404.253 427.437 405.463 426.71 406.6C426.16 407.46 425.77 408 425.71 407.93Z" fill="#E0E0E0"/>
<path d="M452.75 363.68C452.593 363.783 452.425 363.87 452.25 363.94L450.79 364.61C450.15 364.88 449.37 365.23 448.5 365.69C447.63 366.15 446.59 366.61 445.5 367.25L443.8 368.25C443.21 368.59 442.63 368.99 442.01 369.38C440.76 370.13 439.5 371.07 438.17 372.02C432.442 376.294 427.444 381.467 423.37 387.34C422.46 388.71 421.57 389.99 420.85 391.27C420.49 391.9 420.11 392.5 419.79 393.1L418.88 394.82C418.28 395.91 417.88 396.95 417.42 397.82C416.96 398.69 416.67 399.5 416.42 400.15L415.8 401.63C415.741 401.811 415.657 401.982 415.55 402.14C415.584 401.956 415.635 401.775 415.7 401.6L416.23 400.08C416.498 399.27 416.808 398.476 417.16 397.7C417.56 396.79 417.97 395.7 418.56 394.63L419.44 392.88C419.75 392.27 420.13 391.66 420.44 391.02C421.14 389.73 422.02 388.43 422.93 387.02C426.99 381.072 432.027 375.855 437.83 371.59C439.19 370.64 440.46 369.71 441.73 368.97C442.36 368.58 442.95 368.19 443.55 367.86L445.27 366.91C446.36 366.29 447.4 365.84 448.27 365.41C449.14 364.98 449.96 364.65 450.61 364.41L452.12 363.84C452.32 363.752 452.533 363.698 452.75 363.68Z" fill="#E0E0E0"/>
<path d="M430.53 378.57C430.732 377.849 431.16 377.211 431.75 376.75C433.115 375.559 434.858 374.889 436.67 374.86C438.446 374.844 440.207 375.184 441.85 375.86C442.56 376.076 443.234 376.396 443.85 376.81C443.139 376.676 442.443 376.475 441.77 376.21C440.161 375.656 438.472 375.369 436.77 375.36C435.046 375.382 433.374 375.957 432 377C431.471 377.485 430.98 378.01 430.53 378.57Z" fill="#E0E0E0"/>
<path d="M427.2 382C427.863 380.551 428.334 379.021 428.6 377.45C428.699 375.86 428.595 374.263 428.29 372.7C428.58 373.091 428.778 373.542 428.87 374.02C429.168 375.158 429.25 376.342 429.11 377.51C428.993 378.673 428.653 379.804 428.11 380.84C427.64 381.63 427.25 382 427.2 382Z" fill="#E0E0E0"/>
<path d="M391 428.12C391.77 441.71 395.86 455.53 402.16 469.51H429.56C435.56 455.67 439.38 441.87 440.05 428.12H391Z" fill="#E0E0E0"/>
<path d="M435.62 450.11C435.62 450.26 426.62 450.37 415.48 450.37C404.34 450.37 395.34 450.26 395.34 450.11C395.34 449.96 404.34 449.86 415.48 449.86C426.62 449.86 435.62 450 435.62 450.11Z" fill="#FAFAFA"/>
<path d="M435 455C435 455.14 426.55 455.25 416.12 455.25C405.69 455.25 397.23 455.14 397.23 455C397.23 454.86 405.69 454.74 416.12 454.74C426.55 454.74 435 454.9 435 455Z" fill="#FAFAFA"/>
<path d="M402.61 437C402.957 441.2 402.957 445.42 402.61 449.62C402.277 445.42 402.277 441.2 402.61 437Z" fill="#FAFAFA"/>
<path d="M417.29 437C417.637 441.35 417.637 445.72 417.29 450.07C416.943 445.72 416.943 441.35 417.29 437Z" fill="#FAFAFA"/>
<path d="M431.07 436.93C431.417 441.366 431.417 445.823 431.07 450.26C430.723 445.823 430.723 441.366 431.07 436.93Z" fill="#FAFAFA"/>
<path d="M439.19 437C439.19 437.15 428.62 437.26 415.57 437.26C402.52 437.26 391.94 437.15 391.94 437C391.94 436.85 402.52 436.75 415.57 436.75C428.62 436.75 439.19 436.9 439.19 437Z" fill="#FAFAFA"/>
<path d="M454.1 38.71H386.45V109.23H454.1V38.71Z" fill="#E0E0E0"/>
<path d="M449.52 38.71H381.87V109.23H449.52V38.71Z" fill="#FAFAFA"/>
<path d="M449.54 109.25H381.85V38.6899H449.54V109.25ZM381.89 109.25H449.5V38.7299H381.89V109.25Z" fill="#E0E0E0"/>
<path d="M440.42 48.1899H390.96V99.7499H440.42V48.1899Z" fill="white"/>
<path d="M391 100.09C390.653 100.611 390.243 101.088 389.78 101.51C388.99 102.35 387.88 103.51 386.64 104.7C385.4 105.89 384.25 107.02 383.4 107.79C382.974 108.246 382.494 108.649 381.97 108.99C382.32 108.471 382.73 107.994 383.19 107.57C383.98 106.74 385.09 105.57 386.34 104.38C387.59 103.19 388.73 102.05 389.58 101.28C390.005 100.829 390.482 100.429 391 100.09Z" fill="#E0E0E0"/>
<path d="M440.43 100C440.944 100.352 441.417 100.762 441.84 101.22C442.68 102.01 443.84 103.12 445.03 104.36C446.22 105.6 447.35 106.75 448.13 107.59C448.576 108.023 448.975 108.502 449.32 109.02C448.796 108.68 448.319 108.273 447.9 107.81C447.07 107.02 445.9 105.91 444.71 104.66C443.52 103.41 442.39 102.26 441.61 101.42C441.16 100.997 440.763 100.52 440.43 100Z" fill="#E0E0E0"/>
<path d="M440.29 48.3299C440.637 47.8087 441.047 47.3318 441.51 46.9099C442.3 46.0699 443.41 44.9099 444.66 43.7199C445.91 42.5299 447.04 41.3999 447.89 40.6299C448.311 40.1705 448.792 39.7702 449.32 39.4399C448.968 39.9543 448.558 40.4273 448.1 40.8499C447.31 41.6799 446.2 42.8499 444.95 44.0399C443.7 45.2299 442.56 46.3699 441.71 47.1399C441.285 47.591 440.808 47.9904 440.29 48.3299Z" fill="#E0E0E0"/>
<path d="M390.83 48.4497C390.309 48.1024 389.832 47.6927 389.41 47.2297C388.57 46.4397 387.41 45.3297 386.22 44.0897C385.03 42.8497 383.9 41.6997 383.13 40.8597C382.676 40.4337 382.276 39.9534 381.94 39.4297C382.457 39.7752 382.93 40.1814 383.35 40.6397C384.18 41.4297 385.35 42.5397 386.54 43.7897C387.73 45.0397 388.87 46.1897 389.64 47.0297C390.091 47.4546 390.49 47.9313 390.83 48.4497Z" fill="#E0E0E0"/>
<path d="M440.29 99.75C440.29 99.75 440.29 99.66 440.29 99.5C440.29 99.34 440.29 99.09 440.29 98.78C440.29 98.13 440.29 97.21 440.29 96C440.29 93.56 440.29 90 440.24 85.49C440.24 76.49 440.18 63.59 440.14 48.19L440.33 48.38H391.01L391.23 48.16C391.23 67.08 391.23 84.79 391.23 99.72L391.04 99.53L426.76 99.63H436.76H439.42H440.34C440.267 99.6412 440.193 99.6412 440.12 99.63H439.46H436.84H426.84L391 99.73H390.81V99.54C390.81 84.61 390.81 66.9 390.81 47.98V48H391H440.32H440.51V48.19C440.51 63.64 440.44 76.55 440.41 85.61C440.41 90.11 440.41 93.61 440.36 96.08C440.36 97.27 440.36 98.19 440.36 98.82C440.36 99.12 440.36 99.35 440.36 99.52C440.342 99.5982 440.319 99.6751 440.29 99.75Z" fill="#E0E0E0"/>
<path d="M423.95 65.7197H407.44V82.2297H423.95V65.7197Z" fill="#EBEBEB"/>
<path d="M473.17 470.47C473.17 470.61 372.35 470.73 248.01 470.73C123.67 470.73 22.83 470.61 22.83 470.47C22.83 470.33 123.63 470.21 248.01 470.21C372.39 470.21 473.17 470.33 473.17 470.47Z" fill="#263238"/>
<path d="M195.09 430.37V469.51H313.05V430.37H195.09Z" fill="#E0E0E0"/>
<path opacity="0.3" d="M195.09 430.37V469.51H313.05V430.37H195.09Z" fill="black"/>
<path d="M313.05 352.24H273.91V391.32H235.07V430.46H304.49V430.33H313.05V352.24Z" fill="#455A64"/>
<path opacity="0.3" d="M313.05 352.24H273.91V391.32H235.07V430.46H304.49V430.33H313.05V352.24Z" fill="black"/>
<path d="M273.67 274.46H229.32V313.21H273.67V352.12H312.81V313.21V274.46H273.67Z" fill="#27272C"/>
<path opacity="0.3" d="M273.67 274.46H229.32V313.21H273.67V352.12H312.81V313.21V274.46H273.67Z" fill="black"/>
<path d="M184.98 234.27H111.55V313.08H184.98V234.27Z" fill="#E0E0E0"/>
<path opacity="0.3" d="M184.98 234.27H111.55V313.08H184.98V234.27Z" fill="black"/>
<path d="M155.63 234.27H82.2V313.08H155.63V234.27Z" fill="#E0E0E0"/>
<path d="M83.36 430.37V391.93H44.22V430.37V469.51H83.36H122.66V430.37H83.36Z" fill="#E0E0E0"/>
<path d="M161.3 352.48H121.85V313.08H82.71V352.48H43.41V391.62H82.71V430.37H121.85V391.62H161.3V352.48Z" fill="#455A64"/>
<path d="M82.71 234.27H43.57V353.09H82.71V234.27Z" fill="#27272C"/>
<path d="M43.57 234.27C43.57 234.27 43.57 234.48 43.57 234.87V236.6C43.57 238.13 43.57 240.37 43.57 243.27C43.57 249.09 43.57 257.53 43.64 268.11C43.64 289.26 43.71 318.92 43.76 353.11L43.51 352.86H82.71L82.45 353.12C82.45 305.47 82.52 262.77 82.54 234.3L82.71 234.47L54 234.35H46.29H44.29H43.6H44.25H46.25H53.93L82.77 234.26H82.94V234.43C82.94 262.9 82.99 305.6 83.03 353.25V353.51H43.31V353.26C43.31 319.03 43.4 289.26 43.43 268.11C43.43 257.55 43.49 249.11 43.5 243.33C43.5 240.45 43.5 238.23 43.5 236.71V235.01C43.56 234.46 43.57 234.27 43.57 234.27Z" fill="#263238"/>
<path d="M161.3 352.12V391.41H122.16V469.51H161.3V430.21H200.59V352.12H161.3Z" fill="#27272C"/>
<path d="M206.36 312.9H200.49H122.25V352.13H200.49V391.17H239.63V312.9H206.36Z" fill="#E0E0E0"/>
<path d="M239.43 274.46H195.09V313.21H239.43V352.12H278.57V313.21V274.46H239.43Z" fill="#27272C"/>
<path d="M278.57 352.24H239.43V391.32H200.59V430.46H270.02V430.33H278.57V352.24Z" fill="#455A64"/>
<path d="M161.08 430.37V469.51H279.38V430.37H161.08Z" fill="#E0E0E0"/>
<path d="M155.54 234.27C155.553 234.399 155.553 234.53 155.54 234.66C155.54 234.95 155.54 235.33 155.54 235.81C155.54 236.81 155.54 238.33 155.59 240.23C155.59 244.1 155.59 249.64 155.67 256.48C155.67 270.23 155.67 289.18 155.74 310.1V313.16H155.48L103.72 313.08L88.2 313H84H82.9C82.7768 313.009 82.6532 313.009 82.53 313C82.653 312.986 82.777 312.986 82.9 313H84L88.23 312.95L103.81 312.87L155.57 312.79L155.31 313.05V310.25C155.31 289.33 155.37 270.38 155.39 256.63C155.39 249.79 155.45 244.25 155.47 240.38C155.47 238.48 155.47 237 155.52 235.96C155.52 235.48 155.52 235.1 155.52 234.81C155.52 234.52 155.54 234.27 155.54 234.27Z" fill="#263238"/>
<path d="M155.54 312.82C155.54 312.82 156.06 312.82 157.07 312.82H161.53L178.53 312.76L239.45 312.67H239.67V312.89C239.67 335.69 239.67 362.54 239.67 391.39V391.65H200.23V391.39C200.23 377.78 200.23 364.65 200.23 352.2L200.47 352.44L121.83 352.36H121.67V352.2C121.67 339.87 121.67 330.11 121.74 323.42C121.74 320.09 121.74 317.52 121.74 315.78C121.74 314.92 121.74 314.27 121.74 313.78C121.74 313.29 121.74 313.12 121.74 313.12C121.74 313.12 121.74 313.34 121.74 313.78C121.74 314.22 121.74 314.89 121.74 315.78C121.74 317.52 121.74 320.09 121.74 323.42C121.74 330.11 121.74 339.87 121.81 352.2L121.65 352.04L200.29 351.95H200.54V352.2C200.54 364.65 200.54 377.78 200.54 391.39L200.28 391.13H239.22L238.96 391.39C238.96 362.54 238.96 335.69 238.96 312.89L239.18 313.11L178.26 313.01L161.26 312.95H156.8L155.54 312.82Z" fill="#263238"/>
<path d="M312.66 352.26C312.66 352.4 296.25 352.52 276.02 352.52C255.79 352.52 239.37 352.4 239.37 352.26C239.37 352.12 255.77 352 276 352C296.23 352 312.66 352.11 312.66 352.26Z" fill="#263238"/>
<path d="M314.23 430.34C314.23 430.48 280.1 430.6 238 430.6C195.9 430.6 161.76 430.48 161.76 430.34C161.76 430.2 195.88 430.08 238 430.08C280.12 430.08 314.23 430.2 314.23 430.34Z" fill="#263238"/>
<path d="M200.59 392.63C200.74 392.63 200.85 400.97 200.85 411.25C200.85 421.53 200.74 429.87 200.59 429.87C200.44 429.87 200.33 421.53 200.33 411.25C200.33 400.97 200.45 392.63 200.59 392.63Z" fill="#263238"/>
<path d="M161.08 469.54C160.94 469.54 160.82 460.76 160.82 449.94C160.82 439.12 160.94 430.34 161.08 430.34C161.22 430.34 161.34 439.11 161.34 449.94C161.34 460.77 161.23 469.54 161.08 469.54Z" fill="#263238"/>
<path d="M161.3 352.48C161.304 352.54 161.304 352.6 161.3 352.66V353.19C161.3 353.7 161.3 354.39 161.3 355.29C161.3 357.15 161.3 359.83 161.36 363.23C161.36 370.1 161.36 379.86 161.45 391.56V391.79H161.23H122.45H122.18L122.44 391.53C122.44 412.97 122.38 432.36 122.36 446.42C122.36 453.42 122.3 459.1 122.28 463.05C122.28 464.99 122.28 466.51 122.28 467.57C122.28 468.06 122.28 468.45 122.28 468.74C122.293 468.873 122.293 469.007 122.28 469.14C122.267 469.007 122.267 468.873 122.28 468.74C122.28 468.45 122.28 468.06 122.28 467.57C122.28 466.51 122.28 464.99 122.28 463.05C122.28 459.1 122.23 453.42 122.19 446.42C122.19 432.36 122.19 412.97 122.12 391.53V391.27H122.65H161.43L161.2 391.49C161.2 379.79 161.27 370.03 161.29 363.16C161.29 359.76 161.34 357.08 161.36 355.22C161.36 354.32 161.36 353.62 161.36 353.12C161.36 352.9 161.36 352.73 161.36 352.59C161.36 352.45 161.29 352.48 161.3 352.48Z" fill="#263238"/>
<path d="M121.85 430.37H121.66H121.1H118.95L110.85 430.44L82.71 430.53H82.46V430.29C82.46 424.29 82.46 417.69 82.46 410.84C82.46 403.99 82.46 397.51 82.46 391.54L82.71 391.78L54.46 391.69L46.33 391.62H44.16H43.6H43.41C43.41 391.62 43.48 391.62 43.6 391.62H44.16H46.33L54.46 391.55L82.71 391.45H83V391.7C83 397.7 83 404.2 83 411C83 417.8 83 424.43 83 430.45L82.76 430.2L110.9 430.3L119 430.37H121.15H121.71C121.79 430.35 121.85 430.36 121.85 430.37Z" fill="#263238"/>
<path d="M312.81 274.46C312.677 274.475 312.543 274.475 312.41 274.46H311.22L306.68 274.51L289.98 274.59L234.87 274.67H194.87L195.09 274.45C195.09 285.84 195.02 295.33 195 302C195 305.3 195 307.91 194.94 309.71C194.94 310.58 194.94 311.26 194.94 311.71C194.94 311.93 194.94 312.1 194.94 312.23C194.94 312.36 194.94 312.41 194.94 312.41C194.94 312.41 194.94 312.17 194.94 311.71C194.94 311.25 194.94 310.55 194.94 309.71C194.94 307.91 194.94 305.3 194.88 302C194.88 295.33 194.82 285.84 194.78 274.45V274.22H195.01H235.01L290.12 274.29L306.82 274.38H311.36H312.55L312.81 274.46Z" fill="#263238"/>
</svg>
