<svg width="24" height="23" viewBox="0 0 24 23" fill="none" xmlns="http://www.w3.org/2000/svg">
<path d="M10.4091 7.89375C15.2454 7.89375 19.1659 6.38255 19.1659 4.51841C19.1659 2.65426 15.2454 1.14307 10.4091 1.14307C5.57288 1.14307 1.65234 2.65426 1.65234 4.51841C1.65234 6.38255 5.57288 7.89375 10.4091 7.89375Z" fill="white"/>
<path d="M10.4091 7.89375C15.2454 7.89375 19.1659 6.38255 19.1659 4.51841C19.1659 2.65426 15.2454 1.14307 10.4091 1.14307C5.57288 1.14307 1.65234 2.65426 1.65234 4.51841C1.65234 6.38255 5.57288 7.89375 10.4091 7.89375Z" stroke="#1D3749" stroke-width="1.71" stroke-linecap="round" stroke-linejoin="round"/>
<path d="M19.1641 8.30785V4.51855" stroke="#1D3749" stroke-width="1.71" stroke-linecap="round" stroke-linejoin="round"/>
<path d="M1.65234 4.51855V15.2814C1.65234 16.9866 4.91356 18.3425 9.15277 18.6109" stroke="#1D3749" stroke-width="1.71" stroke-linecap="round" stroke-linejoin="round"/>
<path d="M1.65234 9.8999C1.65234 11.6296 5.08414 13.0573 9.3985 13.2015" stroke="#1D3749" stroke-width="1.71" stroke-linecap="round" stroke-linejoin="round"/>
<path d="M17.5242 19.4526C19.2827 19.4526 20.7085 18.027 20.7085 16.2683C20.7085 14.5096 19.2827 13.084 17.5242 13.084C15.7655 13.084 14.3398 14.5096 14.3398 16.2683C14.3398 18.027 15.7655 19.4526 17.5242 19.4526Z" fill="white"/>
<path d="M17.5273 10.6958V13.084" stroke="#1D3749" stroke-width="1.71" stroke-linecap="round" stroke-linejoin="round"/>
<path d="M12.7031 13.4819L14.7729 14.676" stroke="#1D3749" stroke-width="1.71" stroke-linecap="round" stroke-linejoin="round"/>
<path d="M12.7031 19.0545L14.7729 17.8604" stroke="#1D3749" stroke-width="1.71" stroke-linecap="round" stroke-linejoin="round"/>
<path d="M17.5273 21.8409V19.4526" stroke="#1D3749" stroke-width="1.71" stroke-linecap="round" stroke-linejoin="round"/>
<path d="M22.351 19.0545L20.2812 17.8604" stroke="#1D3749" stroke-width="1.71" stroke-linecap="round" stroke-linejoin="round"/>
<path d="M22.351 13.4819L20.2812 14.676" stroke="#1D3749" stroke-width="1.71" stroke-linecap="round" stroke-linejoin="round"/>
<path d="M17.5242 19.4526C19.2827 19.4526 20.7085 18.027 20.7085 16.2683C20.7085 14.5096 19.2827 13.084 17.5242 13.084C15.7655 13.084 14.3398 14.5096 14.3398 16.2683C14.3398 18.027 15.7655 19.4526 17.5242 19.4526Z" stroke="#1D3749" stroke-width="1.71" stroke-linecap="round" stroke-linejoin="round"/>
</svg>
