<svg width="24" height="22" viewBox="0 0 24 22" fill="none" xmlns="http://www.w3.org/2000/svg">
<path d="M3.24219 7.81592H20.7558V18.9609C20.7558 19.3832 20.5879 19.7882 20.2894 20.0867C19.9909 20.3852 19.5859 20.5531 19.1636 20.5531H4.83433C4.41206 20.5531 4.0071 20.3852 3.70851 20.0867C3.40994 19.7882 3.24219 19.3832 3.24219 18.9609V7.81592Z" stroke="white" stroke-width="1.71" stroke-linecap="round" stroke-linejoin="round"/>
<path d="M22.3482 6.22369V3.03941C22.3482 2.1601 21.6354 1.44727 20.7561 1.44727H3.24253C2.36322 1.44727 1.65039 2.1601 1.65039 3.03941V6.22369C1.65039 7.103 2.36322 7.81584 3.24253 7.81584H20.7561C21.6354 7.81584 22.3482 7.103 22.3482 6.22369Z" stroke="white" stroke-width="1.71" stroke-linecap="round" stroke-linejoin="round"/>
<path d="M9.61133 12.5923H14.3878" stroke="white" stroke-width="1.71" stroke-linecap="round" stroke-linejoin="round"/>
</svg>
