<svg width="24" height="25" viewBox="0 0 24 25" fill="none" xmlns="http://www.w3.org/2000/svg">
<g clip-path="url(#clip0_2080_13629)">
<path d="M12.0013 22.5133C17.7169 22.5133 22.3502 17.88 22.3502 12.1644C22.3502 6.4488 17.7169 1.81543 12.0013 1.81543C6.28572 1.81543 1.65234 6.4488 1.65234 12.1644C1.65234 17.88 6.28572 22.5133 12.0013 22.5133Z" fill="#E3F2FD"/>
<path d="M12.0013 22.5133C17.7169 22.5133 22.3502 17.88 22.3502 12.1644C22.3502 6.4488 17.7169 1.81543 12.0013 1.81543C6.28572 1.81543 1.65234 6.4488 1.65234 12.1644C1.65234 17.88 6.28572 22.5133 12.0013 22.5133Z" stroke="#2196F3" stroke-width="1.71" stroke-linecap="round" stroke-linejoin="round"/>
<path d="M9.61328 16.9404H14.3897" stroke="#2196F3" stroke-width="1.71" stroke-linecap="round" stroke-linejoin="round"/>
<path d="M12.0003 16.9407V11.3682H10.4082" stroke="#2196F3" stroke-width="1.71" stroke-linecap="round" stroke-linejoin="round"/>
<path d="M12.0016 7.78631C11.7817 7.78631 11.6035 7.6081 11.6035 7.38827C11.6035 7.16844 11.7817 6.99023 12.0016 6.99023" stroke="#2196F3" stroke-width="1.71" stroke-linecap="round" stroke-linejoin="round"/>
<path d="M12.002 7.78631C12.2218 7.78631 12.4 7.6081 12.4 7.38827C12.4 7.16844 12.2218 6.99023 12.002 6.99023" stroke="#2196F3" stroke-width="1.71" stroke-linecap="round" stroke-linejoin="round"/>
</g>
<defs>
<clipPath id="clip0_2080_13629">
<rect width="24" height="24" fill="white" transform="translate(0 0.164062)"/>
</clipPath>
</defs>
</svg>
