<svg width="16" height="12" viewBox="0 0 16 12" fill="none" xmlns="http://www.w3.org/2000/svg">
<path d="M14.6126 5.19968C14.7888 5.4194 14.8864 5.70492 14.8864 6C14.8864 6.29614 14.7888 6.5806 14.6126 6.80032C13.4981 8.14939 10.9612 10.7764 7.99986 10.7764C5.03847 10.7764 2.50166 8.14939 1.38716 6.80032C1.20797 6.5722 1.11143 6.29007 1.11331 6C1.11331 5.70492 1.21096 5.4194 1.38716 5.19968C2.50166 3.85061 5.03847 1.22357 7.99986 1.22357C10.9612 1.22357 13.4981 3.85061 14.6126 5.19968Z" stroke="#1D3749" stroke-width="1.14" stroke-linecap="round" stroke-linejoin="round"/>
<path d="M7.99981 8.12285C8.56283 8.12285 9.10278 7.89919 9.5009 7.50108C9.89901 7.10297 10.1227 6.56301 10.1227 5.99999C10.1227 5.43698 9.89901 4.89702 9.5009 4.49891C9.10278 4.10079 8.56283 3.87714 7.99981 3.87714C7.43679 3.87714 6.89684 4.10079 6.49872 4.49891C6.10061 4.89702 5.87695 5.43698 5.87695 5.99999C5.87695 6.56301 6.10061 7.10297 6.49872 7.50108C6.89684 7.89919 7.43679 8.12285 7.99981 8.12285Z" stroke="#1D3749" stroke-width="1.14" stroke-linecap="round" stroke-linejoin="round"/>
</svg>
