<svg width="16" height="16" viewBox="0 0 16 16" fill="none" xmlns="http://www.w3.org/2000/svg">
<g clip-path="url(#clip0_1705_21418)">
<path d="M4.42155 4.41704C5.47529 3.73231 6.69626 3.22357 7.99945 3.22357C10.9608 3.22357 13.4976 5.85064 14.6121 7.2C14.7881 7.41942 14.8856 7.70449 14.8856 8.00006C14.8856 8.29564 14.7881 8.58071 14.6121 8.80013C13.9978 9.54392 12.9513 10.6759 11.6397 11.5422M9.59159 12.532C9.07958 12.6868 8.54676 12.7765 7.99945 12.7765C5.03806 12.7765 2.50125 10.1495 1.38675 8.80013C1.21072 8.58071 1.11328 8.29564 1.11328 8.00006C1.11328 7.70449 1.21072 7.41942 1.38675 7.2C1.73985 6.77248 2.23573 6.2167 2.84266 5.65686" stroke="#1D3749" stroke-width="1.14" stroke-linecap="round" stroke-linejoin="round"/>
<path d="M9.50119 9.50108C10.3302 8.67206 10.3302 7.32794 9.50119 6.49891C8.67216 5.66988 7.32805 5.66988 6.49902 6.49891" stroke="#1D3749" stroke-width="1.14" stroke-linecap="round" stroke-linejoin="round"/>
<path d="M14.8992 14.8993L1.10059 1.10071" stroke="#1D3749" stroke-width="1.14" stroke-linecap="round" stroke-linejoin="round"/>
</g>
<defs>
<clipPath id="clip0_1705_21418">
<rect width="16" height="16" fill="white"/>
</clipPath>
</defs>
</svg>
