<svg width="41" height="28" viewBox="0 0 41 28" fill="none" xmlns="http://www.w3.org/2000/svg">
<path d="M37.8008 -2.45006e-05L2.80006 -2.30076e-05C1.25363 -2.29417e-05 -1.94688e-07 1.25361 -1.2542e-07 2.80004C-5.61526e-08 4.34647 1.25362 5.6001 2.80006 5.6001L37.8008 5.6001C39.3473 5.6001 40.6009 4.34647 40.6009 2.80004C40.6009 1.2536 39.3473 -2.45666e-05 37.8008 -2.45006e-05Z" fill="white"/>
<path d="M37.8008 11.1987L2.80006 11.1987C1.25363 11.1987 -1.94688e-07 12.4523 -1.2542e-07 13.9988C-5.61526e-08 15.5452 1.25363 16.7988 2.80006 16.7988L37.8008 16.7988C39.3473 16.7988 40.6009 15.5452 40.6009 13.9988C40.6009 12.4523 39.3473 11.1987 37.8008 11.1987Z" fill="white"/>
<path d="M37.8008 22.3999L2.80006 22.3999C1.25363 22.3999 -1.94688e-07 23.6535 -1.2542e-07 25.1999C-5.61526e-08 26.7464 1.25362 28 2.80006 28L37.8008 28C39.3473 28 40.6009 26.7464 40.6009 25.1999C40.6009 23.6535 39.3473 22.3999 37.8008 22.3999Z" fill="white"/>
</svg>
