<svg width="24" height="22" viewBox="0 0 24 22" fill="none" xmlns="http://www.w3.org/2000/svg">
<path d="M1.65039 19.3586V2.64116C1.65039 2.2189 1.81813 1.81394 2.11672 1.51534C2.4153 1.21676 2.82027 1.04902 3.24253 1.04902H9.11754C9.48123 1.03842 9.8376 1.15272 10.1273 1.37288C10.417 1.59304 10.6225 1.90579 10.7097 2.25905L11.2032 4.23331H20.7561C21.1783 4.23331 21.5834 4.40104 21.8819 4.69963C22.1804 4.99822 22.3482 5.40318 22.3482 5.82545V19.3586C22.3482 19.781 22.1804 20.1859 21.8819 20.4844C21.5834 20.7831 21.1783 20.9507 20.7561 20.9507H3.24253C2.82027 20.9507 2.4153 20.7831 2.11672 20.4844C1.81813 20.1859 1.65039 19.781 1.65039 19.3586Z" stroke="white" stroke-width="1.71" stroke-linecap="round" stroke-linejoin="round"/>
</svg>
