<svg width="22" height="24" viewBox="0 0 22 24" fill="none" xmlns="http://www.w3.org/2000/svg">
<path d="M8.18176 4.43713L8.86638 2.66985C8.98184 2.37063 9.18498 2.11325 9.44919 1.93143C9.7134 1.74961 10.0264 1.65183 10.3471 1.65088H11.6526C11.9734 1.65183 12.2863 1.74961 12.5505 1.93143C12.8147 2.11325 13.0179 2.37063 13.1333 2.66985L13.8179 4.43713L16.1425 5.77453L18.0212 5.48794C18.334 5.44548 18.6524 5.49698 18.9359 5.63589C19.2194 5.7748 19.4552 5.99486 19.6133 6.26809L20.2502 7.38259C20.4134 7.66018 20.4886 7.98073 20.4658 8.30193C20.4431 8.62313 20.3235 8.92989 20.1228 9.18171L18.9606 10.6624V13.3372L20.1547 14.8179C20.3554 15.0697 20.475 15.3765 20.4977 15.6977C20.5204 16.0189 20.4452 16.3394 20.282 16.617L19.6452 17.7315C19.4871 18.0048 19.2513 18.2248 18.9678 18.3637C18.6843 18.5026 18.3659 18.5541 18.053 18.5117L16.1743 18.2251L13.8498 19.5625L13.1652 21.3298C13.0497 21.629 12.8466 21.8864 12.5824 22.0682C12.3182 22.25 12.0052 22.3478 11.6845 22.3487H10.3471C10.0264 22.3478 9.7134 22.25 9.44919 22.0682C9.18498 21.8864 8.98184 21.629 8.86638 21.3298L8.18176 19.5625L5.85723 18.2251L3.97851 18.5117C3.66568 18.5541 3.34729 18.5026 3.06379 18.3637C2.7803 18.2248 2.5445 18.0048 2.38636 17.7315L1.74951 16.617C1.58631 16.3394 1.51113 16.0189 1.53387 15.6977C1.55661 15.3765 1.6762 15.0697 1.87688 14.8179L3.03914 13.3372V10.6624L1.84503 9.18171C1.64436 8.92989 1.52476 8.62313 1.50202 8.30193C1.47928 7.98073 1.55447 7.66018 1.71766 7.38259L2.35452 6.26809C2.51266 5.99486 2.74845 5.7748 3.03195 5.63589C3.31544 5.49698 3.63383 5.44548 3.94666 5.48794L5.82539 5.77453L8.18176 4.43713ZM7.81557 11.9998C7.81557 12.8443 8.15106 13.6543 8.74823 14.2514C9.3454 14.8486 10.1553 15.1841 10.9999 15.1841C11.8444 15.1841 12.6543 14.8486 13.2515 14.2514C13.8487 13.6543 14.1841 12.8443 14.1841 11.9998C14.1841 11.1553 13.8487 10.3453 13.2515 9.74818C12.6543 9.15101 11.8444 8.81552 10.9999 8.81552C10.1553 8.81552 9.3454 9.15101 8.74823 9.74818C8.15106 10.3453 7.81557 11.1553 7.81557 11.9998Z" stroke="white" stroke-width="1.71" stroke-linecap="round" stroke-linejoin="round"/>
</svg>
