<svg width="48" height="48" viewBox="0 0 48 48" fill="none" xmlns="http://www.w3.org/2000/svg">
<path d="M12.3282 13.3893C11.7654 13.3893 11.2256 13.6129 10.8276 14.0108C10.4296 14.4088 10.2061 14.9486 10.2061 15.5114V35.6718C10.2061 36.2346 10.4296 36.7744 10.8276 37.1724C11.2256 37.5703 11.7654 37.7939 12.3282 37.7939H35.6718C36.2346 37.7939 36.7744 37.5703 37.1723 37.1724C37.5703 36.7744 37.7939 36.2346 37.7939 35.6718V15.5114C37.7939 14.9486 37.5703 14.4088 37.1723 14.0108C36.7744 13.6129 36.2346 13.3893 35.6718 13.3893H12.3282Z" fill="#FFAB8F"/>
<path d="M12.3282 13.3893C11.7654 13.3893 11.2256 13.6129 10.8276 14.0108C10.4296 14.4088 10.2061 14.9486 10.2061 15.5114V35.6718C10.2061 36.2346 10.4296 36.7744 10.8276 37.1724C11.2256 37.5703 11.7654 37.7939 12.3282 37.7939H35.6718C36.2346 37.7939 36.7744 37.5703 37.1723 37.1724C37.5703 36.7744 37.7939 36.2346 37.7939 35.6718V15.5114C37.7939 14.9486 37.5703 14.4088 37.1723 14.0108C36.7744 13.6129 36.2346 13.3893 35.6718 13.3893H31.4275" stroke="#1D3749" stroke-width="2.29" stroke-linecap="round" stroke-linejoin="round"/>
<path d="M16.5723 10.2061V16.5725" stroke="#1D3749" stroke-width="2.29" stroke-linecap="round" stroke-linejoin="round"/>
<path d="M31.4277 10.2061V16.5725" stroke="#1D3749" stroke-width="2.29" stroke-linecap="round" stroke-linejoin="round"/>
<path d="M16.5723 13.3893H27.183" stroke="#1D3749" stroke-width="2.29" stroke-linecap="round" stroke-linejoin="round"/>
<path d="M22.2769 18.7604C21.9955 18.7604 21.7256 18.8722 21.5267 19.0712C21.3277 19.2702 21.2159 19.5401 21.2159 19.8215V22.8073H18.23C17.9486 22.8073 17.6787 22.9191 17.4797 23.1181C17.2807 23.3171 17.1689 23.587 17.1689 23.8684V27.3169C17.1689 27.5983 17.2807 27.8682 17.4797 28.0672C17.6787 28.2662 17.9486 28.378 18.23 28.378H21.2159V31.3617C21.2159 31.6431 21.3277 31.913 21.5267 32.112C21.7256 32.311 21.9955 32.4228 22.2769 32.4228H25.7254C26.0068 32.4228 26.2767 32.311 26.4757 32.112C26.6747 31.913 26.7865 31.6431 26.7865 31.3617V28.378H29.7702C30.0516 28.378 30.3215 28.2662 30.5205 28.0672C30.7195 27.8682 30.8313 27.5983 30.8313 27.3169V23.8684C30.8313 23.587 30.7195 23.3171 30.5205 23.1181C30.3215 22.9191 30.0516 22.8073 29.7702 22.8073H26.7865V19.8194C26.7865 19.538 26.6747 19.2681 26.4757 19.0691C26.2767 18.8701 26.0068 18.7583 25.7254 18.7583H22.2769V18.7604Z" fill="white"/>
<path d="M22.2769 18.7604C21.9955 18.7604 21.7256 18.8722 21.5267 19.0712C21.3277 19.2702 21.2159 19.5401 21.2159 19.8215V22.8073H18.23C17.9486 22.8073 17.6787 22.9191 17.4797 23.1181C17.2807 23.3171 17.1689 23.587 17.1689 23.8684V27.3169C17.1689 27.5983 17.2807 27.8682 17.4797 28.0672C17.6787 28.2662 17.9486 28.378 18.23 28.378H21.2159V31.3617C21.2159 31.6431 21.3277 31.913 21.5267 32.112C21.7256 32.311 21.9955 32.4228 22.2769 32.4228H25.7254C26.0068 32.4228 26.2767 32.311 26.4757 32.112C26.6747 31.913 26.7865 31.6431 26.7865 31.3617V28.378H29.7702C30.0516 28.378 30.3215 28.2662 30.5205 28.0672C30.7195 27.8682 30.8313 27.5983 30.8313 27.3169V23.8684C30.8313 23.587 30.7195 23.3171 30.5205 23.1181C30.3215 22.9191 30.0516 22.8073 29.7702 22.8073H26.7865V19.8194C26.7865 19.538 26.6747 19.2681 26.4757 19.0691C26.2767 18.8701 26.0068 18.7583 25.7254 18.7583H22.2769V18.7604Z" stroke="#1D3749" stroke-width="2.29" stroke-linecap="round" stroke-linejoin="round"/>
</svg>
