<svg width="18" height="24" viewBox="0 0 18 24" fill="none" xmlns="http://www.w3.org/2000/svg">
<path d="M15.3683 9.6123H2.63121C2.20894 9.6123 1.80398 9.78005 1.50539 10.0786C1.20681 10.3772 1.03906 10.7822 1.03906 11.2044V20.7573C1.03906 21.1796 1.20681 21.5845 1.50539 21.8831C1.80398 22.1817 2.20894 22.3494 2.63121 22.3494H15.3683C15.7906 22.3494 16.1956 22.1817 16.4942 21.8831C16.7927 21.5845 16.9605 21.1796 16.9605 20.7573V11.2044C16.9605 10.7822 16.7927 10.3772 16.4942 10.0786C16.1956 9.78005 15.7906 9.6123 15.3683 9.6123Z" stroke="#1D3749" stroke-width="1.71" stroke-linecap="round" stroke-linejoin="round"/>
<path d="M14.5727 9.61208V7.22387C14.5727 5.74595 13.9856 4.32856 12.9406 3.28351C11.8955 2.23847 10.4782 1.65137 9.00023 1.65137C7.52232 1.65137 6.10493 2.23847 5.05988 3.28351C4.01484 4.32856 3.42773 5.74595 3.42773 7.22387V9.61208" stroke="#1D3749" stroke-width="1.71" stroke-linecap="round" stroke-linejoin="round"/>
<path d="M8.9992 16.7767C9.21033 16.7767 9.41281 16.6928 9.5621 16.5435C9.7114 16.3943 9.79527 16.1918 9.79527 15.9806C9.79527 15.7695 9.7114 15.567 9.5621 15.4177C9.41281 15.2684 9.21033 15.1846 8.9992 15.1846C8.78807 15.1846 8.58558 15.2684 8.43629 15.4177C8.287 15.567 8.20312 15.7695 8.20312 15.9806C8.20312 16.1918 8.287 16.3943 8.43629 16.5435C8.58558 16.6928 8.78807 16.7767 8.9992 16.7767Z" stroke="#1D3749" stroke-width="1.71" stroke-linecap="round" stroke-linejoin="round"/>
</svg>
