<svg width="24" height="24" viewBox="0 0 24 24" fill="none" xmlns="http://www.w3.org/2000/svg">
<path d="M15.9797 17.5723V20.7566C15.9797 21.1788 15.8119 21.5839 15.5134 21.8824C15.2148 22.1809 14.8098 22.3487 14.3875 22.3487H3.24253C2.82027 22.3487 2.4153 22.1809 2.11672 21.8824C1.81813 21.5839 1.65039 21.1788 1.65039 20.7566V3.24302C1.65039 2.82075 1.81813 2.41579 2.11672 2.11721C2.4153 1.81862 2.82027 1.65088 3.24253 1.65088H14.3875C14.8098 1.65088 15.2148 1.81862 15.5134 2.11721C15.8119 2.41579 15.9797 2.82075 15.9797 3.24302V6.42731" stroke="white" stroke-width="1.71" stroke-linecap="round" stroke-linejoin="round"/>
<path d="M11.2031 12H22.3481" stroke="white" stroke-width="1.71" stroke-linecap="round" stroke-linejoin="round"/>
<path d="M19.1641 8.81543L22.3483 11.9997L19.1641 15.184" stroke="white" stroke-width="1.71" stroke-linecap="round" stroke-linejoin="round"/>
</svg>
