<svg width="48" height="48" viewBox="0 0 48 48" fill="none" xmlns="http://www.w3.org/2000/svg">
<path d="M34.148 10.3015H13.8518C13.4477 10.3015 13.0602 10.462 12.7744 10.7478C12.4887 11.0335 12.3281 11.4211 12.3281 11.8252V21.8778C12.3281 22.7203 13.0115 23.4015 13.8518 23.4015H34.148C34.5521 23.4015 34.9397 23.241 35.2254 22.9552C35.5112 22.6695 35.6717 22.2819 35.6717 21.8778V11.8252C35.6717 11.4211 35.5112 11.0335 35.2254 10.7478C34.9397 10.462 34.5521 10.3015 34.148 10.3015Z" fill="#FFAB8F"/>
<path d="M16.5298 31.4974C17.1723 31.4974 17.7885 31.2422 18.2428 30.7879C18.6971 30.3336 18.9523 29.7175 18.9523 29.075C18.9523 28.4325 18.6971 27.8164 18.2428 27.3621C17.7885 26.9078 17.1723 26.6526 16.5298 26.6526C15.8874 26.6526 15.2712 26.9078 14.8169 27.3621C14.3626 27.8164 14.1074 28.4325 14.1074 29.075C14.1074 29.7175 14.3626 30.3336 14.8169 30.7879C15.2712 31.2422 15.8874 31.4974 16.5298 31.4974Z" fill="#FFAB8F"/>
<path d="M25.2193 16.6558C24.8958 16.9793 24.457 17.1611 23.9995 17.1611C23.542 17.1611 23.1032 16.9793 22.7797 16.6558C22.4562 16.3323 22.2744 15.8935 22.2744 15.436C22.2744 14.9785 22.4562 14.5397 22.7797 14.2162C23.1032 13.8927 23.542 13.7109 23.9995 13.7109C24.457 13.7109 24.8958 13.8927 25.2193 14.2162C25.5428 14.5397 25.7245 14.9785 25.7245 15.436C25.7245 15.8935 25.5428 16.3323 25.2193 16.6558Z" fill="white" stroke="#1D3749"/>
<path d="M32.8394 30.4344C32.4789 30.7949 31.9899 30.9974 31.48 30.9974C30.9702 30.9974 30.4812 30.7949 30.1207 30.4344C29.7602 30.0738 29.5576 29.5849 29.5576 29.075C29.5576 28.5652 29.7602 28.0762 30.1207 27.7157C30.4812 27.3551 30.9702 27.1526 31.48 27.1526C31.9899 27.1526 32.4789 27.3551 32.8394 27.7157C33.1999 28.0762 33.4025 28.5652 33.4025 29.075C33.4025 29.5849 33.1999 30.0738 32.8394 30.4344Z" fill="#FFAB8F" stroke="#1D3749"/>
<path d="M16.5298 31.4974C17.1723 31.4974 17.7885 31.2422 18.2428 30.7879C18.6971 30.3336 18.9523 29.7175 18.9523 29.075C18.9523 28.4325 18.6971 27.8164 18.2428 27.3621C17.7885 26.9078 17.1723 26.6526 16.5298 26.6526C15.8874 26.6526 15.2712 26.9078 14.8169 27.3621C14.3626 27.8164 14.1074 28.4325 14.1074 29.075C14.1074 29.7175 14.3626 30.3336 14.8169 30.7879C15.2712 31.2422 15.8874 31.4974 16.5298 31.4974Z" stroke="#1D3749" stroke-width="2.29" stroke-linecap="round" stroke-linejoin="round"/>
<path d="M13.1701 35.8893C13.5098 35.2964 13.999 34.803 14.5889 34.4582C15.1782 34.1138 15.8474 33.9297 16.5298 33.9243C17.212 33.9301 17.8808 34.1142 18.4697 34.4586C19.0592 34.8034 19.5482 35.2967 19.8877 35.8893C20.1261 36.3111 20.2826 36.7725 20.3504 37.2492H12.7073C12.7752 36.7725 12.9316 36.3111 13.1701 35.8893Z" fill="#FFAB8F" stroke="#1D3749"/>
<path d="M20.3201 21.3599C19.9673 21.983 19.7782 22.6854 19.7705 23.4014H28.2251C28.2174 22.6854 28.0283 21.983 27.6755 21.3599C27.3043 20.7115 26.7696 20.1717 26.1246 19.7945C25.4797 19.4173 24.7471 19.2158 23.9999 19.2102C23.2524 19.2154 22.5194 19.4167 21.874 19.794C21.2287 20.1712 20.6936 20.7112 20.3223 21.3599H20.3201Z" fill="#FFAB8F"/>
<path d="M12.1689 37.7492C12.1766 37.0102 12.3716 36.2852 12.7356 35.642C13.1187 34.9727 13.6708 34.4156 14.3366 34.0265C15.0025 33.6373 15.7588 33.4297 16.5299 33.4243C17.3008 33.4301 18.0566 33.6379 18.7221 34.027C19.3875 34.4161 19.9392 34.973 20.3222 35.642C20.6872 36.285 20.8803 37.0107 20.8888 37.7492" stroke="#1D3749" stroke-width="2.29" stroke-linecap="round" stroke-linejoin="round"/>
<path d="M31.48 31.4974C32.1225 31.4974 32.7387 31.2422 33.193 30.7879C33.6472 30.3336 33.9025 29.7175 33.9025 29.075C33.9025 28.4325 33.6472 27.8164 33.193 27.3621C32.7387 26.9078 32.1225 26.6526 31.48 26.6526C30.8376 26.6526 30.2214 26.9078 29.7671 27.3621C29.3128 27.8164 29.0576 28.4325 29.0576 29.075C29.0576 29.7175 29.3128 30.3336 29.7671 30.7879C30.2214 31.2422 30.8376 31.4974 31.48 31.4974Z" stroke="#1D3749" stroke-width="2.29" stroke-linecap="round" stroke-linejoin="round"/>
<path d="M27.6858 35.642C27.3218 36.2852 27.1268 37.0102 27.1191 37.7492H35.839C35.8279 36.5994 35.3637 35.5004 34.5472 34.6907C33.7307 33.881 32.6279 33.4259 31.478 33.4243C30.7072 33.4301 29.9513 33.6379 29.2859 34.027C28.6205 34.4161 28.0687 34.973 27.6858 35.642Z" fill="#FFAB8F"/>
<path d="M27.1191 37.7492C27.1268 37.0102 27.3218 36.2852 27.6858 35.642C28.0687 34.973 28.6205 34.4161 29.2859 34.027C29.9513 33.6379 30.7072 33.4301 31.478 33.4243C32.6275 33.4259 33.7301 33.8807 34.5465 34.6899C35.3629 35.4992 35.8273 36.5977 35.839 37.7471" stroke="#1D3749" stroke-width="2.29" stroke-linecap="round" stroke-linejoin="round"/>
<path d="M23.9975 17.6611C24.5877 17.6611 25.1536 17.4266 25.5709 17.0094C25.9882 16.5921 26.2226 16.0261 26.2226 15.436C26.2226 14.8459 25.9882 14.2799 25.5709 13.8626C25.1536 13.4454 24.5877 13.2109 23.9975 13.2109C23.4074 13.2109 22.8414 13.4454 22.4242 13.8626C22.0069 14.2799 21.7725 14.8459 21.7725 15.436C21.7725 16.0261 22.0069 16.5921 22.4242 17.0094C22.8414 17.4266 23.4074 17.6611 23.9975 17.6611Z" stroke="#1D3749" stroke-width="2.29" stroke-linecap="round" stroke-linejoin="round"/>
<path d="M19.7725 23.4014C19.7788 22.6863 19.9677 21.9838 20.32 21.3599C20.6915 20.7109 21.2269 20.1707 21.8727 19.7934C22.5184 19.4162 23.2519 19.2151 23.9998 19.2102C25.5065 19.2123 26.9347 20.0463 27.6774 21.3599C28.0297 21.9838 28.2186 22.6863 28.2271 23.4014" stroke="#1D3749" stroke-width="2.29" stroke-linecap="round" stroke-linejoin="round"/>
<path d="M34.148 10.3015H13.8518C13.4477 10.3015 13.0602 10.462 12.7744 10.7478C12.4887 11.0335 12.3281 11.4211 12.3281 11.8252V21.8778C12.3281 22.7203 13.0115 23.4015 13.8518 23.4015H34.148C34.5521 23.4015 34.9397 23.241 35.2254 22.9552C35.5112 22.6695 35.6717 22.2819 35.6717 21.8778V11.8252C35.6717 11.4211 35.5112 11.0335 35.2254 10.7478C34.9397 10.462 34.5521 10.3015 34.148 10.3015Z" stroke="#1D3749" stroke-width="2.29" stroke-linecap="round" stroke-linejoin="round"/>
</svg>
