<svg width="48" height="48" viewBox="0 0 48 48" fill="none" xmlns="http://www.w3.org/2000/svg">
<path d="M31.4275 10.2061H12.3282C11.7654 10.2061 11.2256 10.4296 10.8276 10.8276C10.4296 11.2256 10.2061 11.7654 10.2061 12.3282V35.6718C10.2061 36.2346 10.4296 36.7744 10.8276 37.1723C11.2256 37.5703 11.7654 37.7939 12.3282 37.7939H31.4275C31.9903 37.7939 32.5301 37.5703 32.9281 37.1723C33.326 36.7744 33.5496 36.2346 33.5496 35.6718V12.3282C33.5496 11.7654 33.326 11.2256 32.9281 10.8276C32.5301 10.4296 31.9903 10.2061 31.4275 10.2061Z" fill="white"/>
<path d="M31.4275 37.7939C31.7062 37.7939 31.9821 37.739 32.2396 37.6324C32.4971 37.5257 32.731 37.3694 32.9281 37.1723C33.1251 36.9753 33.2814 36.7413 33.3881 36.4839C33.4947 36.2264 33.5496 35.9504 33.5496 35.6718L33.6069 31.4445H10.2634L10.2061 35.6718C10.2061 36.2346 10.4296 36.7744 10.8276 37.1723C11.0247 37.3694 11.2586 37.5257 11.5161 37.6324C11.7736 37.739 12.0495 37.7939 12.3282 37.7939H31.4275Z" fill="#FFAB8F"/>
<path d="M26.1221 10.2061H12.3282C11.7654 10.2061 11.2256 10.4296 10.8276 10.8276C10.4296 11.2256 10.2061 11.7654 10.2061 12.3282V35.6718C10.2061 36.2346 10.4296 36.7744 10.8276 37.1723C11.2256 37.5703 11.7654 37.7939 12.3282 37.7939H31.4275C31.9903 37.7939 32.5301 37.5703 32.9281 37.1723C33.326 36.7744 33.5496 36.2346 33.5496 35.6718V26.1221" stroke="#1D3749" stroke-width="2.29" stroke-linecap="round" stroke-linejoin="round"/>
<path d="M10.2061 31.4275H33.5496" stroke="#1D3749" stroke-width="2.29" stroke-linecap="round" stroke-linejoin="round"/>
<path d="M16.5723 15.5114H20.8166" stroke="#1D3749" stroke-width="2.29" stroke-linecap="round" stroke-linejoin="round"/>
<path d="M16.5723 20.8168H18.6944" stroke="#1D3749" stroke-width="2.29" stroke-linecap="round" stroke-linejoin="round"/>
<path d="M28.2317 25.0738L21.8652 26.2198L22.9263 19.7685L31.903 10.8343C32.1003 10.6354 32.335 10.4775 32.5936 10.3698C32.8522 10.262 33.1295 10.2065 33.4097 10.2065C33.6898 10.2065 33.9672 10.262 34.2258 10.3698C34.4844 10.4775 34.7191 10.6354 34.9164 10.8343L37.1659 13.0837C37.3653 13.2807 37.5236 13.5153 37.6317 13.774C37.7398 14.0326 37.7954 14.3102 37.7954 14.5905C37.7954 14.8708 37.7398 15.1483 37.6317 15.4069C37.5236 15.6656 37.3653 15.9002 37.1659 16.0972L28.2317 25.0738Z" fill="#FFAB8F"/>
<path d="M28.2317 25.0738L21.8652 26.2198L22.9263 19.7685L31.903 10.8343C32.1003 10.6354 32.335 10.4775 32.5936 10.3698C32.8522 10.262 33.1295 10.2065 33.4097 10.2065C33.6898 10.2065 33.9672 10.262 34.2258 10.3698C34.4844 10.4775 34.7191 10.6354 34.9164 10.8343L37.1659 13.0837C37.3653 13.2807 37.5236 13.5153 37.6317 13.774C37.7398 14.0326 37.7954 14.3102 37.7954 14.5905C37.7954 14.8708 37.7398 15.1483 37.6317 15.4069C37.5236 15.6656 37.3653 15.9002 37.1659 16.0972L28.2317 25.0738Z" stroke="#1D3749" stroke-width="2.29" stroke-linecap="round" stroke-linejoin="round"/>
</svg>
