<svg width="24" height="24" viewBox="0 0 24 24" fill="none" xmlns="http://www.w3.org/2000/svg">
<path d="M21.839 22.349C21.1706 20.2647 19.8576 18.4465 18.0892 17.1565C16.3208 15.8665 14.1885 15.1714 11.9996 15.1714C9.81071 15.1714 7.67837 15.8665 5.91 17.1565C4.14162 18.4465 2.82857 20.2647 2.16016 22.349H21.839Z" stroke="#1D3749" stroke-width="1.71" stroke-linecap="round" stroke-linejoin="round"/>
<path d="M11.9997 15.1844C13.7867 15.1844 15.5005 14.4745 16.7641 13.2109C18.0277 11.9473 18.7376 10.2335 18.7376 8.44644C18.7376 6.65943 18.0277 4.94561 16.7641 3.682C15.5005 2.41839 13.7867 1.7085 11.9997 1.7085C10.2127 1.7085 8.49883 2.41839 7.23522 3.682C5.97161 4.94561 5.26172 6.65943 5.26172 8.44644C5.26172 10.2335 5.97161 11.9473 7.23522 13.2109C8.49883 14.4745 10.2127 15.1844 11.9997 15.1844Z" stroke="#1D3749" stroke-width="1.71" stroke-linecap="round" stroke-linejoin="round"/>
<path d="M14.2015 11.0527C14.2015 11.0527 13.641 12.1529 12.0011 12.1529C10.3612 12.1529 9.80078 11.0543 9.80078 11.0543" stroke="#1D3749" stroke-width="1.71" stroke-linecap="round" stroke-linejoin="round"/>
<path d="M18.6168 7.16328H18.5722C17.6418 7.16416 16.7219 6.96698 15.8737 6.58486C15.0254 6.20273 14.2682 5.64441 13.6525 4.94702C13.0365 5.64461 12.279 6.20305 11.4305 6.58519C10.5819 6.96732 9.66176 7.16439 8.73114 7.16328C7.63385 7.16557 6.55361 6.89181 5.58984 6.36721C6.05196 4.94702 6.9726 3.7205 8.20725 2.8802C9.4419 2.03989 10.9206 1.63337 12.4113 1.72447C13.902 1.81557 15.3203 2.39912 16.4434 3.38351C17.5666 4.3679 18.331 5.6974 18.6168 7.16328Z" stroke="#1D3749" stroke-width="1.71" stroke-linecap="round" stroke-linejoin="round"/>
</svg>
