<svg width="50" height="50" viewBox="0 0 50 50" fill="none" xmlns="http://www.w3.org/2000/svg">
<path fill-rule="evenodd" clip-rule="evenodd" d="M19.6383 9.49578C11.7945 14.5333 7.43689 20.3968 6.56536 27.0864C5.20807 37.5 14.5206 42.5968 19.2393 38.0177C23.9581 33.4385 21.1299 27.625 17.7133 26.0354C14.2966 24.4458 12.207 25 12.5716 22.876C12.9362 20.752 17.7966 14.8656 22.0674 12.1239C22.2186 11.9951 22.315 11.8135 22.337 11.6162C22.3591 11.4188 22.3051 11.2204 22.1862 11.0614L21.1299 9.68745C20.6716 9.09162 20.232 9.11453 19.6383 9.49474M40.2904 9.49578C32.4466 14.5333 28.089 20.3968 27.2174 27.0864C25.8591 37.5 35.1716 42.5968 39.8904 38.0177C44.6091 33.4385 41.781 27.625 38.3633 26.0354C34.9456 24.4458 32.857 25 33.2216 22.876C33.5862 20.752 38.4477 14.8656 42.7185 12.1239C42.8695 11.9949 42.9657 11.8133 42.9875 11.6159C43.0094 11.4186 42.9553 11.2203 42.8362 11.0614L41.781 9.68745C41.3227 9.09162 40.8831 9.11453 40.2904 9.49474" fill="#436884"/>
</svg>
