<svg width="52" height="52" viewBox="0 0 52 52" fill="none" xmlns="http://www.w3.org/2000/svg">
<path d="M34.5957 21.7042C32.8857 21.7042 31.2459 22.3835 30.0368 23.5926C28.8277 24.8017 28.1484 26.4415 28.1484 28.1514V30.3005H41.0429V28.1514C41.0429 26.4415 40.3636 24.8017 39.1545 23.5926C37.9454 22.3835 36.3056 21.7042 34.5957 21.7042Z" fill="#FFAB8F"/>
<path d="M30.2979 15.257C30.2979 15.8214 30.409 16.3804 30.625 16.9018C30.841 17.4233 31.1576 17.8971 31.5567 18.2963C31.9559 18.6954 32.4297 19.012 32.9512 19.228C33.4726 19.444 34.0316 19.5551 34.596 19.5551C35.1604 19.5551 35.7193 19.444 36.2408 19.228C36.7623 19.012 37.2361 18.6954 37.6352 18.2963C38.0344 17.8971 38.351 17.4233 38.567 16.9018C38.783 16.3804 38.8941 15.8214 38.8941 15.257C38.8941 14.6926 38.783 14.1337 38.567 13.6122C38.351 13.0907 38.0344 12.6169 37.6352 12.2178C37.2361 11.8186 36.7623 11.502 36.2408 11.286C35.7193 11.07 35.1604 10.9589 34.596 10.9589C34.0316 10.9589 33.4726 11.07 32.9512 11.286C32.4297 11.502 31.9559 11.8186 31.5567 12.2178C31.1576 12.6169 30.841 13.0907 30.625 13.6122C30.409 14.1337 30.2979 14.6926 30.2979 15.257Z" fill="#FFAB8F"/>
<path d="M41.0428 30.3005V28.1515C41.0433 26.7218 40.5684 25.3325 39.6931 24.2021C38.8177 23.0717 37.5914 22.2644 36.2071 21.907C34.8228 21.5497 33.359 21.6626 32.0459 22.228C30.7327 22.7934 29.6448 23.7793 28.9531 25.0305" stroke="#1D3749" stroke-width="2.57" stroke-linecap="round" stroke-linejoin="round"/>
<path d="M13.1055 15.257C13.1055 16.3969 13.5583 17.4902 14.3644 18.2963C15.1704 19.1023 16.2637 19.5551 17.4036 19.5551C18.5436 19.5551 19.6368 19.1023 20.4429 18.2963C21.2489 17.4902 21.7018 16.3969 21.7018 15.257C21.7018 14.1171 21.2489 13.0238 20.4429 12.2178C19.6368 11.4117 18.5436 10.9589 17.4036 10.9589C16.2637 10.9589 15.1704 11.4117 14.3644 12.2178C13.5583 13.0238 13.1055 14.1171 13.1055 15.257Z" fill="#FFAB8F"/>
<path d="M17.4033 21.7042C15.6934 21.7042 14.0535 22.3835 12.8444 23.5926C11.6353 24.8017 10.9561 26.4415 10.9561 28.1514V30.3005H23.8505V28.1514C23.8505 26.4415 23.1712 24.8017 21.9621 23.5926C20.7531 22.3835 19.1132 21.7042 17.4033 21.7042Z" fill="#FFAB8F"/>
<path d="M21.7041 28.1467C21.7041 28.7111 21.8153 29.27 22.0313 29.7915C22.2473 30.313 22.5639 30.7868 22.963 31.1859C23.3621 31.585 23.8359 31.9016 24.3574 32.1176C24.8789 32.3336 25.4378 32.4448 26.0022 32.4448C26.5667 32.4448 27.1256 32.3336 27.6471 32.1176C28.1685 31.9016 28.6424 31.585 29.0415 31.1859C29.4406 30.7868 29.7572 30.313 29.9732 29.7915C30.1892 29.27 30.3004 28.7111 30.3004 28.1467C30.3004 27.0067 29.8475 25.9135 29.0415 25.1074C28.2354 24.3013 27.1422 23.8485 26.0022 23.8485C24.8623 23.8485 23.7691 24.3013 22.963 25.1074C22.1569 25.9135 21.7041 27.0067 21.7041 28.1467Z" fill="#FFAB8F"/>
<path d="M30.2979 15.257C30.2979 15.8214 30.409 16.3804 30.625 16.9018C30.841 17.4233 31.1576 17.8971 31.5567 18.2963C31.9559 18.6954 32.4297 19.012 32.9512 19.228C33.4726 19.444 34.0316 19.5551 34.596 19.5551C35.1604 19.5551 35.7193 19.444 36.2408 19.228C36.7623 19.012 37.2361 18.6954 37.6352 18.2963C38.0344 17.8971 38.351 17.4233 38.567 16.9018C38.783 16.3804 38.8941 15.8214 38.8941 15.257C38.8941 14.6926 38.783 14.1337 38.567 13.6122C38.351 13.0907 38.0344 12.6169 37.6352 12.2178C37.2361 11.8186 36.7623 11.502 36.2408 11.286C35.7193 11.07 35.1604 10.9589 34.596 10.9589C34.0316 10.9589 33.4726 11.07 32.9512 11.286C32.4297 11.502 31.9559 11.8186 31.5567 12.2178C31.1576 12.6169 30.841 13.0907 30.625 13.6122C30.409 14.1337 30.2979 14.6926 30.2979 15.257Z" stroke="#1D3749" stroke-width="2.57" stroke-linecap="round" stroke-linejoin="round"/>
<path d="M13.1055 15.257C13.1055 16.3969 13.5583 17.4902 14.3644 18.2963C15.1704 19.1023 16.2637 19.5551 17.4036 19.5551C18.5436 19.5551 19.6368 19.1023 20.4429 18.2963C21.2489 17.4902 21.7018 16.3969 21.7018 15.257C21.7018 14.1171 21.2489 13.0238 20.4429 12.2178C19.6368 11.4117 18.5436 10.9589 17.4036 10.9589C16.2637 10.9589 15.1704 11.4117 14.3644 12.2178C13.5583 13.0238 13.1055 14.1171 13.1055 15.257Z" stroke="#1D3749" stroke-width="2.57" stroke-linecap="round" stroke-linejoin="round"/>
<path d="M21.7041 28.1467C21.7041 28.7111 21.8153 29.27 22.0313 29.7915C22.2473 30.313 22.5639 30.7868 22.963 31.1859C23.3621 31.585 23.8359 31.9016 24.3574 32.1176C24.8789 32.3336 25.4378 32.4448 26.0022 32.4448C26.5667 32.4448 27.1256 32.3336 27.6471 32.1176C28.1685 31.9016 28.6424 31.585 29.0415 31.1859C29.4406 30.7868 29.7572 30.313 29.9732 29.7915C30.1892 29.27 30.3004 28.7111 30.3004 28.1467C30.3004 27.0067 29.8475 25.9135 29.0415 25.1074C28.2354 24.3013 27.1422 23.8485 26.0022 23.8485C24.8623 23.8485 23.7691 24.3013 22.963 25.1074C22.1569 25.9135 21.7041 27.0067 21.7041 28.1467Z" stroke="#1D3749" stroke-width="2.57" stroke-linecap="round" stroke-linejoin="round"/>
<path d="M26.0019 34.5939C24.292 34.5939 22.6521 35.2731 21.443 36.4822C20.2339 37.6913 19.5547 39.3312 19.5547 41.0411H32.4491C32.4491 39.3312 31.7699 37.6913 30.5608 36.4822C29.3517 35.2731 27.7118 34.5939 26.0019 34.5939Z" fill="#FFAB8F"/>
<path d="M32.4491 41.0411C32.4491 39.3312 31.7699 37.6913 30.5608 36.4822C29.3517 35.2731 27.7118 34.5939 26.0019 34.5939C24.292 34.5939 22.6521 35.2731 21.443 36.4822C20.2339 37.6913 19.5547 39.3312 19.5547 41.0411" stroke="#1D3749" stroke-width="2.57" stroke-linecap="round" stroke-linejoin="round"/>
<path d="M10.9561 30.3005V28.1515C10.9556 26.7218 11.4305 25.3325 12.3058 24.2021C13.1812 23.0717 14.4075 22.2644 15.7918 21.907C17.1761 21.5497 18.6399 21.6626 19.953 22.228C21.2662 22.7934 22.3541 23.7793 23.0458 25.0305" stroke="#1D3749" stroke-width="2.57" stroke-linecap="round" stroke-linejoin="round"/>
</svg>
