<svg width="24" height="25" viewBox="0 0 24 25" fill="none" xmlns="http://www.w3.org/2000/svg">
<g clip-path="url(#clip0_2009_10988)">
<path d="M12.0013 22.5133C14.746 22.5133 17.3783 21.423 19.3191 19.4822C21.2599 17.5414 22.3502 14.9091 22.3502 12.1644C22.3502 9.41965 21.2599 6.78736 19.3191 4.84656C17.3783 2.90576 14.746 1.81543 12.0013 1.81543C9.25657 1.81543 6.62428 2.90576 4.68348 4.84656C2.74267 6.78736 1.65234 9.41965 1.65234 12.1644C1.65234 14.9091 2.74267 17.5414 4.68348 19.4822C6.62428 21.423 9.25657 22.5133 12.0013 22.5133Z" fill="#FFEBEE"/>
<path d="M12.0013 22.5133C14.746 22.5133 17.3783 21.423 19.3191 19.4822C21.2599 17.5414 22.3502 14.9091 22.3502 12.1644C22.3502 9.41965 21.2599 6.78736 19.3191 4.84656C17.3783 2.90576 14.746 1.81543 12.0013 1.81543C9.25657 1.81543 6.62428 2.90576 4.68347 4.84656C2.74267 6.78736 1.65234 9.41965 1.65234 12.1644C1.65234 14.9091 2.74267 17.5414 4.68347 19.4822C6.62428 21.423 9.25657 22.5133 12.0013 22.5133Z" stroke="#F44336" stroke-width="1.71" stroke-linecap="round" stroke-linejoin="round"/>
<path d="M12 7.47949V12.654" stroke="#F44336" stroke-width="1.71" stroke-linecap="round" stroke-linejoin="round"/>
<path d="M12.0016 17.6711C11.896 17.6711 11.7947 17.6291 11.7201 17.5545C11.6455 17.4798 11.6035 17.3786 11.6035 17.273C11.6035 17.1675 11.6455 17.0662 11.7201 16.9916C11.7947 16.9169 11.896 16.875 12.0016 16.875" stroke="#F44336" stroke-width="1.71" stroke-linecap="round" stroke-linejoin="round"/>
<path d="M12.002 17.6711C12.1075 17.6711 12.2088 17.6291 12.2834 17.5545C12.3581 17.4798 12.4 17.3786 12.4 17.273C12.4 17.1675 12.3581 17.0662 12.2834 16.9916C12.2088 16.9169 12.1075 16.875 12.002 16.875" stroke="#F44336" stroke-width="1.71" stroke-linecap="round" stroke-linejoin="round"/>
</g>
<defs>
<clipPath id="clip0_2009_10988">
<rect width="24" height="24" fill="white" transform="translate(0 0.164062)"/>
</clipPath>
</defs>
</svg>
