<svg width="272" height="272" viewBox="0 0 272 272" fill="none" xmlns="http://www.w3.org/2000/svg">
<path d="M103.958 109.126C103.958 109.126 89.1069 92.5889 70.6109 100.966C52.115 109.344 31.1166 143.126 30.5182 149.491C20.4542 256.17 160.806 229.35 160.806 229.35C160.806 229.35 148.729 144.813 141.984 135.782C135.238 126.752 103.958 109.126 103.958 109.126Z" fill="#436984"/>
<path d="M141.712 53.8016C141.712 53.8016 148.185 81.2192 147.152 81.6C146.118 81.9808 142.909 80.8928 142.909 80.8928C142.909 80.8928 145.737 99.9328 139.59 124.957C139.59 124.957 112.445 120.714 100.531 108.528C100.531 108.528 104.883 42.3776 110.595 40.6368C116.307 38.896 141.712 53.8016 141.712 53.8016Z" fill="#F8AA8F"/>
<path d="M112.064 58.9153C112.064 58.9153 114.566 72.4065 113.043 74.7457C111.52 77.0849 104.013 69.9041 104.013 69.9041C104.013 69.9041 103.523 39.4401 106.842 35.8497C110.16 32.2593 170.816 58.0449 165.539 60.2209C160.262 62.3969 141.766 53.8017 141.766 53.8017L122.182 51.4081C122.128 51.4081 117.667 57.9905 112.064 58.9153Z" fill="#1B3749"/>
<path d="M104.448 70.2304C104.448 70.2304 94.8737 65.3344 98.2465 56.848C101.619 48.3616 108.854 65.9328 108.854 65.9328L104.448 70.2304Z" fill="#F8AA8F"/>
<path d="M122.563 66.8034C122.563 66.8034 132.355 66.1506 133.28 74.637C133.334 75.2353 132.899 75.8338 132.301 75.8882C132.246 75.8882 132.192 75.8882 132.138 75.8882C129.309 75.6706 122.291 74.4738 122.563 66.8034Z" fill="#F2EBEB"/>
<path d="M122.128 66.5857C123.434 66.8033 124.739 67.0753 126.045 67.4561C126.643 67.6737 127.296 67.8913 127.84 68.1633C128.112 68.2721 128.438 68.4353 128.71 68.5985C128.982 68.7617 129.254 68.9249 129.526 69.0881C130.07 69.4145 130.56 69.8497 130.995 70.2849C131.43 70.7201 131.811 71.2641 132.138 71.8081C132.79 72.9505 133.226 74.2017 133.334 75.5073C133.606 74.1473 133.443 72.6785 132.845 71.4273C132.246 70.1217 131.322 68.9793 130.07 68.2177C128.874 67.4561 127.568 66.9121 126.208 66.6945C124.848 66.3681 123.488 66.3681 122.128 66.5857Z" fill="#000001"/>
<path d="M130.941 69.5777C130.941 69.5777 128.167 69.5233 127.677 74.9089C127.677 74.9089 133.389 77.1937 133.335 75.2353C133.335 75.1809 133.008 70.2305 130.941 69.5777Z" fill="#000001"/>
<path d="M123.651 79.6416C123.379 80.24 123.379 80.8928 123.542 81.4912C123.76 82.144 124.141 82.7424 124.685 83.1232C125.229 83.504 125.827 83.7216 126.534 83.776C126.861 83.776 127.133 83.776 127.459 83.776C127.786 83.7216 128.058 83.6672 128.33 83.5584C128.058 83.4496 127.786 83.3408 127.459 83.232C127.187 83.1232 126.915 83.0144 126.643 82.96C126.154 82.7968 125.718 82.5248 125.283 82.2528C124.467 81.6 123.869 80.6752 123.651 79.6416Z" fill="#000001"/>
<path d="M122.073 61.7441C123.379 62.0161 124.521 62.1793 125.664 62.2881C126.806 62.3969 127.949 62.5057 129.091 62.6145C130.233 62.7233 131.376 62.7233 132.518 62.7777C133.715 62.8321 134.966 62.7777 136.163 62.6689C135.238 61.7985 134.096 61.1457 132.899 60.7105C131.702 60.2753 130.505 60.0033 129.254 59.8945C128.003 59.7857 126.752 59.8945 125.501 60.1665C124.304 60.4385 123.107 60.9825 122.073 61.7441Z" fill="#000001"/>
<path d="M125.283 159.446C125.283 159.446 107.005 136.544 115.491 136.054C115.491 136.054 113.261 129.962 118.102 128.656C118.102 128.656 99.6608 117.558 104.557 116.742C109.453 115.926 126.317 121.53 134.15 121.203C141.984 120.877 142.8 108.746 145.085 109.018C147.37 109.29 145.085 135.728 145.085 135.728C145.085 135.728 193.664 182.131 197.363 212.323C198.941 225.107 189.203 240.339 167.28 229.242C145.357 218.144 125.283 159.446 125.283 159.446Z" fill="#F8AA8F"/>
<path d="M125.283 142.746C123.869 141.712 122.509 140.678 121.149 139.645C119.789 138.611 118.483 137.523 117.341 136.272C116.742 135.674 116.253 135.021 115.818 134.368C115.382 133.715 115.11 132.954 115.11 132.192C115.165 131.43 115.546 130.723 116.144 130.179C116.797 129.581 117.504 129.091 118.266 128.71C117.395 128.928 116.579 129.254 115.818 129.744C115.437 130.016 115.11 130.342 114.838 130.723C114.675 130.941 114.566 131.158 114.512 131.376C114.077 132.518 114.24 133.878 115.002 134.858C115.437 135.619 115.981 136.381 116.634 137.034C117.286 137.686 117.939 138.23 118.592 138.829C119.299 139.373 120.006 139.862 120.768 140.352C122.074 141.277 123.651 142.038 125.283 142.746Z" fill="#000001"/>
<path d="M132.192 134.803C129.635 133.443 127.024 132.138 124.467 130.832C121.91 129.526 119.299 128.221 116.797 126.861C115.491 126.208 114.24 125.501 112.989 124.794C111.738 124.086 110.486 123.379 109.235 122.618C108.038 121.856 106.841 121.04 105.753 120.17C105.209 119.734 104.72 119.19 104.339 118.646C104.176 118.374 104.067 118.048 104.067 117.667C104.121 117.341 104.285 117.014 104.611 116.797C104.285 116.96 104.013 117.286 103.958 117.667C103.904 118.048 103.958 118.429 104.121 118.81C104.448 119.462 104.883 120.061 105.427 120.605C106.461 121.638 107.603 122.563 108.8 123.379C111.193 125.011 113.696 126.534 116.307 127.84C118.864 129.2 121.475 130.451 124.141 131.594C126.806 132.736 129.472 133.878 132.192 134.803Z" fill="#000001"/>
<path d="M142.963 112.118C142.365 112.934 141.767 113.75 141.168 114.621C140.57 115.491 140.026 116.307 139.482 117.178C138.938 118.048 138.394 118.918 137.904 119.843C137.687 120.278 137.415 120.768 137.197 121.258C136.979 121.747 136.762 122.291 136.653 122.781L137.251 122.4C135.021 121.693 132.791 121.04 130.506 120.442C128.221 119.843 125.936 119.299 123.651 118.81C121.367 118.32 119.027 117.939 116.688 117.613L114.947 117.45L113.207 117.341C112.608 117.341 112.01 117.341 111.466 117.341C110.922 117.341 110.269 117.45 109.725 117.504C112.064 117.504 114.403 117.776 116.688 118.266C118.973 118.701 121.258 119.19 123.543 119.734C125.827 120.278 128.058 120.877 130.343 121.421C132.627 121.965 134.858 122.618 137.088 123.27L137.578 123.434L137.687 122.944C137.959 122.019 138.285 121.094 138.72 120.224C139.155 119.299 139.645 118.429 140.08 117.504L141.549 114.838L142.963 112.118Z" fill="#000001"/>
<path d="M89.7602 234.899C89.7602 234.899 19.6386 225.869 13.165 212.432C4.13457 193.61 31.2258 146.989 31.2258 146.989L71.8626 169.51L57.6642 193.555L91.6098 214.662C91.6098 214.662 122.074 205.034 124.685 204.707C127.296 204.381 132.083 221.408 132.083 221.408C132.083 221.408 136.272 232.016 134.967 232.016H131.757C131.757 232.016 127.568 237.402 124.032 234.845C120.496 232.288 108.963 233.92 108.963 233.92C108.963 233.92 92.7522 237.13 89.7602 234.899Z" fill="#F8AA8F"/>
<path d="M122.509 216.294C123.542 217.981 124.63 219.613 125.718 221.245C126.806 222.877 127.894 224.509 128.928 226.195C129.472 227.011 129.962 227.827 130.397 228.698C130.886 229.514 131.267 230.384 131.485 231.254C131.539 231.418 131.539 231.581 131.485 231.744C131.485 231.798 131.485 231.798 131.43 231.798L131.322 231.907C131.213 231.962 131.158 232.07 131.05 232.179C130.723 232.506 130.342 232.778 129.907 232.995C129.091 233.485 128.166 233.866 127.187 234.029C128.221 234.029 129.2 233.866 130.125 233.43C130.614 233.213 131.05 232.995 131.485 232.669C131.594 232.614 131.702 232.506 131.811 232.397L131.974 232.288C132.029 232.234 132.083 232.125 132.138 232.07C132.301 231.798 132.355 231.418 132.301 231.091C132.246 230.547 132.138 230.058 131.92 229.514C131.757 229.024 131.539 228.589 131.322 228.099C130.886 227.174 130.342 226.358 129.853 225.488C128.819 223.802 127.677 222.17 126.426 220.646C125.229 219.232 123.923 217.709 122.509 216.294Z" fill="#000001"/>
<path d="M115.546 221.245C116.579 222.442 117.613 223.584 118.646 224.726C119.68 225.869 120.768 226.957 121.747 228.154C122.291 228.698 122.781 229.296 123.216 229.894C123.651 230.493 124.195 231.091 124.576 231.69C125.011 232.288 125.392 232.941 125.664 233.648C125.827 233.974 125.882 234.355 125.936 234.736C125.936 235.117 125.827 235.498 125.61 235.77C125.936 235.498 126.154 235.171 126.208 234.736C126.262 234.301 126.262 233.92 126.154 233.485C125.99 232.723 125.664 231.962 125.283 231.254C124.467 229.894 123.542 228.589 122.509 227.446C121.475 226.304 120.333 225.162 119.19 224.128C118.102 223.04 116.851 222.115 115.546 221.245Z" fill="#000001"/>
<path d="M83.7759 149.437C81.4367 153.027 79.1519 156.618 76.8671 160.262C74.6367 163.907 72.4063 167.552 70.2303 171.251C68.0543 174.95 65.8783 178.65 63.8111 182.349C61.7439 186.048 59.6223 189.856 57.6639 193.61C60.0031 190.019 62.3423 186.429 64.5727 182.784C66.8031 179.139 69.0335 175.494 71.2095 171.795C73.3855 168.096 75.5071 164.397 77.6287 160.698C79.7503 156.998 81.7631 153.245 83.7759 149.437Z" fill="#000001"/>
<path d="M199.049 227.392C199.049 227.392 201.715 221.789 200.083 218.09C198.451 214.39 194.044 207.754 194.153 204.054C194.262 200.355 197.907 188.496 197.907 188.496L195.132 187.898L194.643 190.944H192.521V187.462L183.328 188.605C183.328 188.605 185.884 192.902 186.592 196.982C187.299 201.062 187.19 209.658 183.328 214.118C179.465 218.579 182.512 228.099 182.512 228.099C182.512 228.099 178.921 229.731 179.846 229.731C180.771 229.731 203.238 229.84 202.096 228.915C201.116 228.262 200.083 227.718 199.049 227.392Z" fill="#000001"/>
<path d="M201.225 216.675C201.225 216.675 179.03 217.981 179.792 216.675C180.553 215.37 181.859 215.152 186.428 214.336C190.998 213.52 205.088 215.315 201.225 216.675Z" fill="#000001"/>
<path d="M197.526 197.581C197.254 197.418 186.918 197.2 185.885 197.581C184.851 197.962 186.429 199.485 188.115 199.648C189.801 199.811 198.941 198.397 197.526 197.581Z" fill="#000001"/>
<path d="M224.563 187.408C224.563 187.408 230.656 176.038 229.894 175.766C229.132 175.494 223.312 175.766 223.312 175.766C223.312 175.766 222.224 173.645 221.843 173.917C221.462 174.189 220.483 176.093 220.483 176.093C220.483 176.093 213.846 175.385 213.846 175.984C213.846 176.582 219.34 187.353 219.34 187.353C219.34 187.353 219.34 197.961 217.763 204.653C216.185 211.344 210.8 215.152 210.8 219.286C210.854 222.006 211.398 224.672 212.377 227.229C212.377 227.229 208.95 228.915 209.766 229.078C210.582 229.241 234.355 229.677 234.137 229.078C233.92 228.48 230.112 227.12 230.112 227.12C230.112 227.12 233.267 222.822 231.852 217.709C230.438 212.595 225.76 204 224.998 198.56C224.508 194.915 224.345 191.161 224.563 187.408Z" fill="#000001"/>
<path d="M233.375 215.859C233.375 215.859 208.787 217.165 209.657 215.859C210.527 214.554 211.942 214.336 217.001 213.52C222.06 212.704 237.619 214.445 233.375 215.859Z" fill="#000001"/>
<path d="M227.338 196.656C227.338 196.656 215.642 197.635 216.077 196.656C216.512 195.677 217.165 195.514 219.558 194.861C221.952 194.208 229.35 195.568 227.338 196.656Z" fill="#000001"/>
<path d="M227.338 189.475C227.338 189.475 215.642 190.454 216.077 189.475C216.512 188.496 217.165 188.333 219.558 187.68C221.952 187.027 229.35 188.387 227.338 189.475Z" fill="#000001"/>
<path d="M222.387 171.36C222.496 171.088 222.659 170.816 222.822 170.544C223.094 170.218 224.672 169.184 224.019 169.13C223.366 169.075 220.048 169.075 220.048 169.13C220.048 169.184 221.68 170.816 221.68 171.36C221.68 171.904 221.353 175.331 221.843 175.44C222.332 175.549 222.441 175.44 222.441 175.44L222.387 171.36Z" fill="#000001"/>
<path d="M218.307 174.298C218.252 174.298 218.252 171.034 218.307 170.326C218.361 169.619 219.395 171.251 219.721 171.523C219.939 171.686 220.156 171.795 220.374 171.904C221.081 171.85 221.788 171.85 222.496 171.904H224.019C224.726 171.414 225.324 170.925 225.977 170.326C226.032 170.326 226.032 173.645 225.977 174.298C225.923 174.95 224.889 173.373 224.563 173.101C224.345 172.938 224.128 172.829 223.91 172.72C223.203 172.774 222.496 172.72 221.788 172.72L220.265 172.774C219.558 173.21 218.905 173.699 218.307 174.298Z" fill="#000001"/>
<path d="M109.561 184.634C109.561 184.634 113.968 189.04 112.445 192.304C110.921 195.568 109.888 195.405 109.888 195.405C109.888 195.405 107.821 209.494 109.67 212.486C111.52 215.478 113.261 217.981 114.294 221.082C115.328 224.182 111.629 228.589 111.629 228.589C111.629 228.589 115.491 229.35 114.403 229.786C113.315 230.221 98.0286 231.091 98.083 230.438C98.1374 229.786 99.987 228.262 99.987 228.262C99.987 228.262 95.4174 224.074 97.9198 219.613C100.422 215.152 103.958 212.704 104.611 208.733C105.264 204.762 105.427 195.459 105.427 195.459C105.427 195.459 102.816 190.781 104.013 187.462C105.209 184.144 107.494 184.253 107.494 184.253C107.494 184.253 107.821 181.206 109.072 182.022C110.323 182.838 109.561 184.634 109.561 184.634Z" fill="#F2EBEB"/>
<path d="M112.662 196.928C112.662 196.928 101.238 196.329 102.816 197.635C104.393 198.941 114.62 198.777 112.662 196.928Z" fill="#F2EBEB"/>
<path d="M112.553 204.218C110.649 203.728 108.745 203.402 106.787 203.238C104.013 203.075 101.619 204.163 102.979 204.653C104.339 205.142 113.369 205.197 112.553 204.218Z" fill="#F2EBEB"/>
<path d="M113.478 219.722C113.478 219.722 118.701 221.082 116.361 221.517C114.022 221.952 95.7983 221.462 95.4719 220.157C95.1455 218.851 97.3215 219.667 101.51 218.851C105.699 218.035 113.478 219.722 113.478 219.722Z" fill="#F2EBEB"/>
<path d="M162.982 201.171C162.982 201.171 164.07 203.837 164.56 204.109C165.05 204.381 168.096 203.782 168.096 203.782C168.096 203.782 170.218 206.013 170.49 205.904C170.762 205.795 172.502 204.381 172.122 203.401C171.741 202.422 165.811 196.221 165.811 196.221C165.811 196.221 166.355 192.413 165.811 192.576C165.267 192.739 163.363 194.589 163.363 194.589L162.384 192.576C162.384 192.576 155.203 193.555 152.483 199.702C149.763 205.85 155.802 214.445 156.074 216.294C156.346 218.144 153.136 219.395 153.789 220.048C154.442 220.701 157.379 221.136 157.379 221.136C155.258 223.094 153.789 225.706 153.245 228.589C153.245 228.589 150.688 230.33 151.613 230.33C152.538 230.33 174.352 230.982 173.155 230.166C171.958 229.35 171.306 228.806 171.306 228.806C171.306 228.806 172.339 223.693 169.13 220.701C169.13 220.701 172.394 220.973 171.686 220.102C170.979 219.232 169.021 218.198 169.021 218.198C169.021 218.198 171.414 212.704 168.858 210.745C166.301 208.787 161.894 205.033 162.982 201.171Z" fill="#F2EBEB"/>
<path d="M260.685 236.531H48.4158C48.4158 236.531 51.5166 230.166 55.379 230.493C59.2414 230.819 247.52 228.48 250.294 229.949C253.069 231.418 260.685 236.531 260.685 236.531Z" fill="#000001"/>
<path d="M211.181 168.749C211.126 169.13 211.126 169.456 211.181 169.837C211.235 170.163 211.289 170.49 211.453 170.816C211.561 171.142 211.725 171.469 211.942 171.741C212.16 172.067 212.432 172.339 212.704 172.557C212.758 172.176 212.813 171.85 212.758 171.469C212.704 171.142 212.595 170.816 212.486 170.49C212.377 170.163 212.214 169.837 211.997 169.565C211.779 169.238 211.507 168.966 211.181 168.749Z" fill="#436984"/>
<path d="M211.942 174.08C211.616 173.645 211.29 173.21 210.854 172.883C210.474 172.557 210.038 172.23 209.603 171.958C209.168 171.686 208.678 171.414 208.189 171.197C207.699 170.979 207.155 170.816 206.611 170.707C206.938 171.142 207.264 171.578 207.699 171.904C208.08 172.23 208.515 172.557 208.95 172.829C209.386 173.101 209.875 173.373 210.365 173.59C210.854 173.808 211.398 173.971 211.942 174.08Z" fill="#436984"/>
<path d="M206.556 175.821C206.828 176.038 207.155 176.147 207.481 176.256C208.08 176.419 208.678 176.419 209.276 176.256C209.603 176.147 209.929 176.038 210.201 175.821C209.929 175.603 209.603 175.494 209.276 175.386C208.678 175.222 208.08 175.222 207.481 175.386C207.155 175.494 206.828 175.658 206.556 175.821Z" fill="#436984"/>
</svg>
