<svg width="24" height="24" viewBox="0 0 24 24" fill="none" xmlns="http://www.w3.org/2000/svg">
<path d="M21.5514 11.2036H15.1828C14.7431 11.2036 14.3867 11.56 14.3867 11.9997V21.5525C14.3867 21.9921 14.7431 22.3486 15.1828 22.3486H21.5514C21.991 22.3486 22.3474 21.9921 22.3474 21.5525V11.9997C22.3474 11.56 21.991 11.2036 21.5514 11.2036Z" stroke="white" stroke-width="1.71" stroke-linecap="round" stroke-linejoin="round"/>
<path d="M21.5514 1.65088H15.1828C14.7431 1.65088 14.3867 2.00729 14.3867 2.44695V5.64716C14.3867 6.08681 14.7431 6.44323 15.1828 6.44323H21.5514C21.991 6.44323 22.3474 6.08681 22.3474 5.64716V2.44695C22.3474 2.00729 21.991 1.65088 21.5514 1.65088Z" stroke="white" stroke-width="1.71" stroke-linecap="round" stroke-linejoin="round"/>
<path d="M8.81503 1.65088H2.44646C2.0068 1.65088 1.65039 2.00729 1.65039 2.44695V11.9998C1.65039 12.4395 2.0068 12.7959 2.44646 12.7959H8.81503C9.25469 12.7959 9.6111 12.4395 9.6111 11.9998V2.44695C9.6111 2.00729 9.25469 1.65088 8.81503 1.65088Z" stroke="white" stroke-width="1.71" stroke-linecap="round" stroke-linejoin="round"/>
<path d="M8.81503 17.5562H2.44646C2.0068 17.5562 1.65039 17.9125 1.65039 18.3522V21.5524C1.65039 21.992 2.0068 22.3485 2.44646 22.3485H8.81503C9.25469 22.3485 9.6111 21.992 9.6111 21.5524V18.3522C9.6111 17.9125 9.25469 17.5562 8.81503 17.5562Z" stroke="white" stroke-width="1.71" stroke-linecap="round" stroke-linejoin="round"/>
</svg>
