<svg width="52" height="52" viewBox="0 0 52 52" fill="none" xmlns="http://www.w3.org/2000/svg">
<path d="M23.6117 36.7453C27.0949 36.7453 30.4354 35.3616 32.8983 32.8987C35.3613 30.4357 36.7449 27.0952 36.7449 23.6121C36.7449 20.129 35.3613 16.7885 32.8983 14.3255C30.4354 11.8626 27.0949 10.4789 23.6117 10.4789C20.1286 10.4789 16.7881 11.8626 14.3251 14.3255C11.8622 16.7885 10.4785 20.129 10.4785 23.6121C10.4785 27.0952 11.8622 30.4357 14.3251 32.8987C16.7881 35.3616 20.1286 36.7453 23.6117 36.7453Z" fill="#FFAB8F"/>
<path d="M23.6117 36.7453C27.0949 36.7453 30.4354 35.3616 32.8983 32.8987C35.3613 30.4357 36.7449 27.0952 36.7449 23.6121C36.7449 20.129 35.3613 16.7885 32.8983 14.3255C30.4354 11.8626 27.0949 10.4789 23.6117 10.4789C20.1286 10.4789 16.7881 11.8626 14.3251 14.3255C11.8622 16.7885 10.4785 20.129 10.4785 23.6121C10.4785 27.0952 11.8622 30.4357 14.3251 32.8987C16.7881 35.3616 20.1286 36.7453 23.6117 36.7453Z" fill="#FFAB8F" stroke="#1D3749" stroke-width="2.57" stroke-linecap="round" stroke-linejoin="round"/>
<path d="M41.5206 41.5211L33.1631 33.1636" stroke="#1D3749" stroke-width="2.57" stroke-linecap="round" stroke-linejoin="round"/>
</svg>
