<svg width="48" height="48" viewBox="0 0 48 48" fill="none" xmlns="http://www.w3.org/2000/svg">
<path d="M20.2853 10.2061H16.041V14.4503H20.2853V10.2061Z" fill="#FFAB8F"/>
<path d="M14.4492 14.4504H21.8767V22.939C21.8767 24.1151 20.9307 25.0723 19.7547 25.0862L16.6587 25.1227C15.4427 25.137 14.4492 24.1551 14.4492 22.939V14.4504Z" fill="white"/>
<path d="M20.8156 33.5496V32.4885H37.7928V37.7939H16.5713C19.1179 37.7939 20.8156 34.9644 20.8156 33.5496Z" fill="#FFAB8F"/>
<path d="M25.1078 19.8805H21.877V14.4629H25.4805C32.2806 14.4629 37.7931 19.9754 37.7931 26.7754V32.4887L31.9426 32.4891V26.7153C31.9426 22.9405 28.8826 19.8805 25.1078 19.8805Z" fill="#FFAB8F"/>
<path d="M14.4492 14.4504H21.8767V22.939C21.8767 24.1151 20.9307 25.0723 19.7547 25.0862L16.6587 25.1227C15.4427 25.137 14.4492 24.1551 14.4492 22.939V14.4504Z" stroke="#1D3749" stroke-width="2.29" stroke-linecap="round" stroke-linejoin="round"/>
<path d="M20.2853 10.2061H16.041V14.4503H20.2853V10.2061Z" stroke="#1D3749" stroke-width="2.29" stroke-linecap="round" stroke-linejoin="round"/>
<path d="M21.8779 19.8797H25.1088C28.8836 19.8797 31.9436 22.9398 31.9436 26.7145V32.4882L37.7939 32.488V26.7746C37.7939 19.9746 32.2814 14.4622 25.4815 14.4622H21.8779" stroke="#1D3749" stroke-width="2.29" stroke-linecap="round" stroke-linejoin="round"/>
<path d="M20.8157 32.4885V33.5496C20.8157 34.9644 19.118 37.7939 16.5714 37.7939H37.7929V32.4885H12.3271" stroke="#1D3749" stroke-width="2.29" stroke-linecap="round" stroke-linejoin="round"/>
<path d="M18.6937 37.7939H10.2051" stroke="#1D3749" stroke-width="2.29" stroke-linecap="round" stroke-linejoin="round"/>
</svg>
