<svg width="48" height="48" viewBox="0 0 48 48" fill="none" xmlns="http://www.w3.org/2000/svg">
<path d="M29.051 12.197C26.2614 12.197 24 14.4584 24 17.248L24.0001 30.9792C24.0001 34.1717 26.5883 36.7599 29.781 36.7599C32.9736 36.7599 35.5618 34.1717 35.5618 30.9792C35.5618 30.8156 35.555 30.6537 35.5416 30.4934C36.7447 29.2009 37.5038 26.6728 37.5038 24.5633C37.5038 21.6889 36.0945 18.8941 34.0727 17.7956C34.092 17.6157 34.102 17.433 34.102 17.248C34.102 14.4584 31.8406 12.197 29.051 12.197Z" fill="#FFAB8F"/>
<path d="M18.948 12.197C21.7376 12.197 23.999 14.4584 23.999 17.248L23.9989 30.9792C23.9989 34.1717 21.4107 36.7599 18.218 36.7599C15.0254 36.7599 12.4372 34.1717 12.4372 30.9792C12.4372 30.8156 12.444 30.6537 12.4573 30.4934C11.2542 29.2009 10.4951 26.6728 10.4951 24.5633C10.4951 21.6889 11.9046 18.8941 13.9263 17.7956C13.9069 17.6157 13.897 17.433 13.897 17.248C13.897 14.4584 16.1584 12.197 18.948 12.197Z" fill="#FFAB8F"/>
<path d="M18.948 12.197C21.7376 12.197 23.999 14.4584 23.999 17.248L23.9989 30.9792C23.9989 34.1717 21.4107 36.7599 18.218 36.7599C15.0254 36.7599 12.4372 34.1717 12.4372 30.9792C12.4372 30.8156 12.444 30.6537 12.4573 30.4934C11.2542 29.2009 10.4951 26.6728 10.4951 24.5633C10.4951 21.6889 11.9046 18.8941 13.9263 17.7956C13.9069 17.6157 13.897 17.433 13.897 17.248C13.897 14.4584 16.1584 12.197 18.948 12.197Z" stroke="#1D3749" stroke-width="2.29" stroke-linecap="round" stroke-linejoin="round"/>
<path d="M16.5958 21.2286C15.8541 21.0595 14.1735 19.9573 13.9199 17.8086" stroke="#1D3749" stroke-width="2.29" stroke-linecap="round" stroke-linejoin="round"/>
<path d="M19.6914 26.8961C22.7208 26.558 23.9213 23.361 23.9993 22.0605" stroke="#1D3749" stroke-width="2.29" stroke-linecap="round" stroke-linejoin="round"/>
<path d="M14.0032 27.4631C13.2487 28.0589 12.6471 29.4091 12.4521 30.4907" stroke="#1D3749" stroke-width="2.29" stroke-linecap="round" stroke-linejoin="round"/>
<path d="M29.051 12.197C26.2614 12.197 24 14.4584 24 17.248L24.0001 30.9792C24.0001 34.1717 26.5883 36.7599 29.781 36.7599C32.9736 36.7599 35.5618 34.1717 35.5618 30.9792C35.5618 30.8156 35.555 30.6537 35.5416 30.4934C36.7447 29.2009 37.5038 26.6728 37.5038 24.5633C37.5038 21.6889 36.0945 18.8941 34.0727 17.7956C34.092 17.6157 34.102 17.433 34.102 17.248C34.102 14.4584 31.8406 12.197 29.051 12.197Z" stroke="#1D3749" stroke-width="2.29" stroke-linecap="round" stroke-linejoin="round"/>
<path d="M31.4033 21.2286C32.145 21.0595 33.8255 19.9573 34.0791 17.8086" stroke="#1D3749" stroke-width="2.29" stroke-linecap="round" stroke-linejoin="round"/>
<path d="M28.3069 26.8961C25.2776 26.558 24.0771 23.361 23.999 22.0605" stroke="#1D3749" stroke-width="2.29" stroke-linecap="round" stroke-linejoin="round"/>
<path d="M33.9951 27.4631C34.7495 28.0589 35.3512 29.4091 35.5462 30.4907" stroke="#1D3749" stroke-width="2.29" stroke-linecap="round" stroke-linejoin="round"/>
</svg>
