<svg width="24" height="22" viewBox="0 0 24 22" fill="none" xmlns="http://www.w3.org/2000/svg">
<path d="M8.81434 9.20388C11.0126 9.20388 12.7947 7.42181 12.7947 5.22352C12.7947 3.02523 11.0126 1.24316 8.81434 1.24316C6.61605 1.24316 4.83398 3.02523 4.83398 5.22352C4.83398 7.42181 6.61605 9.20388 8.81434 9.20388Z" stroke="white" stroke-width="1.71" stroke-linecap="round" stroke-linejoin="round"/>
<path d="M1.65039 20.3491H15.9797V19.486C15.967 18.2723 15.647 17.0819 15.0494 16.0255C14.4519 14.9693 13.5964 14.0816 12.5628 13.4455C11.5292 12.8095 10.3513 12.4458 9.13907 12.3884C9.03099 12.3833 8.92295 12.3806 8.81503 12.3804C8.70712 12.3806 8.59908 12.3833 8.491 12.3884C7.27876 12.4458 6.10083 12.8095 5.06724 13.4455C4.03367 14.0816 3.17816 14.9693 2.58063 16.0255C1.98311 17.0819 1.66307 18.2723 1.65039 19.486V20.3491Z" stroke="white" stroke-width="1.71" stroke-linecap="round" stroke-linejoin="round"/>
<path d="M15.1836 9.20388C17.3819 9.20388 19.164 7.42181 19.164 5.22352C19.164 3.02523 17.3819 1.24316 15.1836 1.24316" stroke="white" stroke-width="1.71" stroke-linecap="round" stroke-linejoin="round"/>
<path d="M19.1636 20.349H22.3479V19.4859C22.3352 18.2723 22.0151 17.0817 21.4176 16.0253C20.8201 14.9691 19.9646 14.0814 18.931 13.4454C18.2629 13.0342 17.5344 12.7369 16.7754 12.5625" stroke="white" stroke-width="1.71" stroke-linecap="round" stroke-linejoin="round"/>
</svg>
