<svg width="16" height="16" viewBox="0 0 16 16" fill="none" xmlns="http://www.w3.org/2000/svg">
<g clip-path="url(#clip0_1681_6209)">
<path d="M5.87701 13.5618L1.10059 14.8992L2.43799 10.1227L11.1842 1.41903C11.283 1.31793 11.4011 1.2376 11.5314 1.18276C11.6617 1.12792 11.8017 1.09967 11.9431 1.09967C12.0845 1.09967 12.2245 1.12792 12.3548 1.18276C12.485 1.2376 12.6032 1.31793 12.702 1.41903L14.5807 3.30837C14.6802 3.40704 14.7592 3.52444 14.8131 3.65378C14.867 3.78313 14.8947 3.92187 14.8947 4.06199C14.8947 4.20211 14.867 4.34085 14.8131 4.47019C14.7592 4.59953 14.6802 4.71693 14.5807 4.8156L5.87701 13.5618Z" stroke="#1D3749" stroke-width="1.14" stroke-linecap="round" stroke-linejoin="round"/>
</g>
<defs>
<clipPath id="clip0_1681_6209">
<rect width="16" height="16" fill="white"/>
</clipPath>
</defs>
</svg>
