<svg width="48" height="48" viewBox="0 0 48 48" fill="none" xmlns="http://www.w3.org/2000/svg">
<path d="M37.7939 22.9389L32.0429 13.3892C31.8551 13.0724 31.5881 12.81 31.2681 12.6277C30.9481 12.4453 30.5861 12.3494 30.2179 12.3494H17.7821C17.4138 12.3494 17.0519 12.4453 16.7319 12.6277C16.4119 12.81 16.1449 13.0724 15.9571 13.3892L10.2061 22.9389" fill="white"/>
<path d="M37.7939 22.9389L32.0429 13.3892C31.8551 13.0724 31.5881 12.81 31.2681 12.6277C30.9481 12.4453 30.5861 12.3494 30.2179 12.3494H17.7821C17.4138 12.3494 17.0519 12.4453 16.7319 12.6277C16.4119 12.81 16.1449 13.0724 15.9571 13.3892L10.2061 22.9389" fill="#FFAB8F"/>
<path d="M37.7939 22.9389L32.0429 13.3892C31.8551 13.0724 31.5881 12.81 31.2681 12.6277C30.9481 12.4453 30.5861 12.3494 30.2179 12.3494H17.7821C17.4138 12.3494 17.0519 12.4453 16.7319 12.6277C16.4119 12.81 16.1449 13.0724 15.9571 13.3892L10.2061 22.9389" stroke="#1D3749" stroke-width="2.29" stroke-linecap="round" stroke-linejoin="round"/>
<path d="M10.7061 23.4387V33.5494C10.7061 33.9796 10.877 34.3923 11.1811 34.6964C11.4854 35.0006 11.898 35.1716 12.3282 35.1716H18.6934C18.9368 35.1703 19.1766 35.1143 19.3953 35.0078C19.6144 34.901 19.8066 34.7464 19.9575 34.5552L19.9601 34.5519L19.9602 34.5519L22.7399 31.0932C22.7399 31.0932 22.7399 31.0931 22.74 31.0931L22.7402 31.0928L10.7061 23.4387ZM10.7061 23.4387H37.2919H10.7061Z" fill="#FFAB8F" stroke="#1D3749"/>
<path d="M37.7939 22.9387H10.2061V33.5494C10.2061 34.1122 10.4296 34.6521 10.8276 35.05C11.2256 35.4479 11.7654 35.6716 12.3282 35.6716H18.6946C19.0134 35.6701 19.3277 35.5969 19.6143 35.4572C19.9008 35.3176 20.1523 35.1154 20.3499 34.8652L23.1299 31.4061C23.2293 31.2821 23.3553 31.1822 23.4986 31.1134C23.6418 31.0447 23.7987 31.009 23.9575 31.009C24.1164 31.009 24.2733 31.0447 24.4165 31.1134C24.5598 31.1822 24.6858 31.2821 24.7852 31.4061L27.6076 34.8652C27.8053 35.1154 28.0567 35.3176 28.3432 35.4572C28.6298 35.5969 28.9441 35.6701 29.2629 35.6716H35.6293C36.1921 35.6716 36.732 35.4479 37.1299 35.05C37.5278 34.6521 37.7515 34.1122 37.7515 33.5494L37.7939 22.9387Z" stroke="#1D3749" stroke-width="2.29" stroke-linecap="round" stroke-linejoin="round"/>
</svg>
