<svg width="32" height="32" viewBox="0 0 32 32" fill="none" xmlns="http://www.w3.org/2000/svg">
<path d="M12.104 22.7504V20.632C12.104 20.2256 11.7739 19.8951 11.3681 19.8951H5.71382C5.30801 19.8951 4.98336 19.5646 4.98336 19.1637V16.7256C4.98336 16.3247 4.65871 15.9996 4.25831 15.9996H1.59619C1.17956 15.9996 0.844086 15.6475 0.86573 15.2303C1.19038 8.7667 5.57855 3.20249 11.8064 1.41458C12.0282 1.34956 12.1581 1.12201 12.104 0.899873C12.0445 0.67232 11.8064 0.531454 11.5791 0.596469C10.0316 1.04074 8.5599 1.71798 7.2072 2.60652C5.7571 3.56007 4.48015 4.74118 3.40881 6.1065C2.32665 7.48807 1.48256 9.02134 0.903605 10.6738C0.303005 12.3805 0 14.1684 0 15.9942C0 18.156 0.422043 20.2527 1.25531 22.2302C2.06152 24.1374 3.21402 25.8494 4.68576 27.3231C6.1575 28.7968 7.86732 29.9508 9.77192 30.7581C11.5088 31.4949 13.3431 31.9121 15.226 31.9988C15.6427 32.0204 15.9944 31.6845 15.9944 31.2619V31.1698V27.7565C15.9944 27.3502 15.6697 27.0251 15.2639 27.0251H12.8236C12.4232 27.0251 12.0986 26.7 12.0986 26.2991V22.7504H12.104Z" fill="white"/>
<path d="M19.8899 16H16.7408C16.3296 16 15.9941 16.3359 15.9941 16.7477V26.2832C15.9941 26.695 16.3296 27.0309 16.7408 27.0309H19.1432C19.5545 27.0309 19.8899 26.695 19.8899 26.2832V20.6486C19.8899 20.2368 20.2254 19.9009 20.6366 19.9009H26.2639C26.6751 19.9009 27.0106 19.565 27.0106 19.1532V16.7477C27.0106 16.3359 26.6751 16 26.2639 16H19.8899Z" fill="white"/>
<path d="M12.105 15.9996H15.2703C15.6707 15.9996 16.0008 15.6745 16.0008 15.2682V5.70554C16.0008 5.30461 15.6761 4.97412 15.2703 4.97412H12.8355C12.4351 4.97412 12.105 5.2992 12.105 5.70554V11.3727C12.105 11.7736 11.7804 12.1041 11.3745 12.1041H5.71483C5.31443 12.1041 4.98438 12.4292 4.98438 12.8355V15.2736C4.98438 15.6745 5.30902 16.005 5.71483 16.005H12.105V15.9996Z" fill="white"/>
<path d="M30.7336 9.7641C29.9274 7.85699 28.7749 6.14492 27.3032 4.67125C25.8314 3.19757 24.1216 2.04355 22.217 1.23628C20.4856 0.50486 18.6513 0.0876799 16.7629 0.000993061C16.3463 -0.0206786 16 0.315233 16 0.726995V4.23781C16 4.64416 16.3301 4.97465 16.7359 4.97465H19.1653C19.5657 4.97465 19.8958 5.29972 19.8958 5.70607V11.3678C19.8958 11.7741 20.2258 12.1046 20.6317 12.1046H26.313C26.7026 12.1046 27.0164 12.4189 27.0164 12.809V15.2795C27.0164 15.6805 27.3411 16.0055 27.7415 16.0055H30.409C30.8256 16.0055 31.1557 16.3523 31.1394 16.7695C30.8148 23.2331 26.4266 28.8027 20.1934 30.5852C19.9715 30.6502 19.8417 30.8778 19.8958 31.0999C19.9553 31.3274 20.1934 31.4683 20.4206 31.4033C21.9681 30.959 23.4399 30.2818 24.7926 29.3932C26.2427 28.4397 27.5196 27.2586 28.591 25.8933C29.6731 24.5117 30.5172 22.9784 31.0962 21.3259C31.6968 19.6193 31.9998 17.8314 31.9998 16.0055C31.9998 13.8438 31.5777 11.7471 30.7445 9.76951L30.7336 9.7641Z" fill="white"/>
</svg>
